<svg xmlns="http://www.w3.org/2000/svg" width="22" height="22" viewBox="0 0 22 22" fill="none"><g clip-path="url(#clip0_2011_3730)"><path d="M19.7083 3.66667H17.2639V5.5C17.2639 5.67655 17.2291 5.85138 17.1615 6.0145C17.094 6.17761 16.9949 6.32582 16.8701 6.45067C16.7452 6.57551 16.597 6.67454 16.4339 6.7421C16.2708 6.80967 16.096 6.84444 15.9194 6.84444C15.7429 6.84444 15.568 6.80967 15.4049 6.7421C15.2418 6.67454 15.0936 6.57551 14.9688 6.45067C14.8439 6.32582 14.7449 6.17761 14.6773 6.0145C14.6098 5.85138 14.575 5.67655 14.575 5.5V3.66667H7.45554V5.5C7.45554 5.85657 7.31389 6.19853 7.06176 6.45066C6.80963 6.7028 6.46766 6.84444 6.11109 6.84444C5.75452 6.84444 5.41256 6.7028 5.16043 6.45066C4.90829 6.19853 4.76665 5.85657 4.76665 5.5V3.66667H2.3222C2.17677 3.66501 2.03249 3.69254 1.89788 3.74761C1.76327 3.80269 1.64108 3.88421 1.53852 3.98733C1.43597 4.09046 1.35513 4.2131 1.3008 4.34801C1.24647 4.48292 1.21974 4.62736 1.2222 4.77278V18.4494C1.21978 18.5923 1.24551 18.7342 1.29795 18.8671C1.35038 19 1.42849 19.1213 1.5278 19.224C1.62711 19.3267 1.74568 19.4089 1.87674 19.4658C2.00781 19.5227 2.14879 19.5532 2.29165 19.5556H19.7083C19.8512 19.5532 19.9922 19.5227 20.1232 19.4658C20.2543 19.4089 20.3729 19.3267 20.4722 19.224C20.5715 19.1213 20.6496 19 20.702 18.8671C20.7544 18.7342 20.7802 18.5923 20.7778 18.4494V4.77278C20.7802 4.62992 20.7544 4.48799 20.702 4.35508C20.6496 4.22218 20.5715 4.1009 20.4722 3.99819C20.3729 3.89547 20.2543 3.81333 20.1232 3.75644C19.9922 3.69956 19.8512 3.66905 19.7083 3.66667ZM6.11109 15.8889H4.88887V14.6667H6.11109V15.8889ZM6.11109 12.8333H4.88887V11.6111H6.11109V12.8333ZM6.11109 9.77778H4.88887V8.55555H6.11109V9.77778ZM9.77776 15.8889H8.55554V14.6667H9.77776V15.8889ZM9.77776 12.8333H8.55554V11.6111H9.77776V12.8333ZM9.77776 9.77778H8.55554V8.55555H9.77776V9.77778ZM13.4444 15.8889H12.2222V14.6667H13.4444V15.8889ZM13.4444 12.8333H12.2222V11.6111H13.4444V12.8333ZM13.4444 9.77778H12.2222V8.55555H13.4444V9.77778ZM17.1111 15.8889H15.8889V14.6667H17.1111V15.8889ZM17.1111 12.8333H15.8889V11.6111H17.1111V12.8333ZM17.1111 9.77778H15.8889V8.55555H17.1111V9.77778Z" fill="#00828C"></path><path d="M6.11111 6.11112C6.27319 6.11112 6.42863 6.04673 6.54323 5.93213C6.65784 5.81752 6.72222 5.66208 6.72222 5.50001V1.83334C6.72222 1.67126 6.65784 1.51582 6.54323 1.40122C6.42863 1.28661 6.27319 1.22223 6.11111 1.22223C5.94903 1.22223 5.7936 1.28661 5.67899 1.40122C5.56438 1.51582 5.5 1.67126 5.5 1.83334V5.50001C5.5 5.66208 5.56438 5.81752 5.67899 5.93213C5.7936 6.04673 5.94903 6.11112 6.11111 6.11112Z" fill="#00828C"></path><path d="M15.8889 6.11112C16.051 6.11112 16.2065 6.04673 16.3211 5.93213C16.4357 5.81752 16.5001 5.66208 16.5001 5.50001V1.83334C16.5001 1.67126 16.4357 1.51582 16.3211 1.40122C16.2065 1.28661 16.051 1.22223 15.8889 1.22223C15.7269 1.22223 15.5714 1.28661 15.4568 1.40122C15.3422 1.51582 15.2778 1.67126 15.2778 1.83334V5.50001C15.2778 5.66208 15.3422 5.81752 15.4568 5.93213C15.5714 6.04673 15.7269 6.11112 15.8889 6.11112Z" fill="#00828C"></path></g><defs><clipPath id="clip0_2011_3730"><rect width="22" height="22" fill="white"></rect></clipPath></defs></svg>