<svg xmlns="http://www.w3.org/2000/svg" width="180" height="111" viewBox="0 0 180 111" fill="none"><path d="M15.3774 60.3759C15.3774 60.3759 9.44018 52.1869 5.08621 55.8964C-0.594919 60.7258 10.0223 63.4322 10.0223 63.4322" stroke="#00818E" stroke-width="2.5" stroke-linecap="round" stroke-linejoin="round"></path><path d="M70.21 60.3759C70.21 60.3759 76.1472 52.1869 80.5012 55.8964C86.1823 60.7258 75.5651 63.4322 75.5651 63.4322" stroke="#00818E" stroke-width="2.5" stroke-linecap="round" stroke-linejoin="round"></path><path d="M57.6134 93.1319L62.9452 96.8181H80.9432C80.9432 96.8181 82.3868 90.6122 83.3181 84.663C85.0644 73.4877 84.785 67.9117 82.5265 65.6486C80.5474 63.6655 77.1248 63.5255 73.9582 63.1289C70.7917 62.7323 65.227 52.3969 55.774 51.5104C51.5597 51.1137 34.6793 51.1137 30.0226 51.5104C20.5696 52.3036 14.9118 62.7556 11.8384 63.1289C8.76499 63.5022 5.24921 63.6655 3.27013 65.6486C1.01165 67.9117 0.732252 73.4877 2.4785 84.663C3.40983 90.6122 4.8534 96.8181 4.8534 96.8181H22.8514L28.1833 93.1319H57.6134Z" stroke="#00818E" stroke-width="2.5" stroke-linecap="round" stroke-linejoin="round"></path><path d="M53.7717 56.8297C58.7543 57.2496 65.7626 64.0388 65.7626 64.0388H20.0342C20.0342 64.0388 27.0657 57.5996 32.0251 56.8297C36.868 56.0831 48.3932 56.3864 53.7717 56.8297Z" stroke="#00818E" stroke-width="2.5" stroke-linecap="round" stroke-linejoin="round"></path><path d="M76.0073 70.0348C76.0073 70.0348 77.1948 74.6542 77.1948 76.1007C77.1948 77.5472 62.2236 77.9438 62.2236 77.9438L63.9466 74.0243L75.9841 70.0115L76.0073 70.0348Z" stroke="#00818E" stroke-width="2.5" stroke-linecap="round" stroke-linejoin="round"></path><path d="M9.58003 70.0348C9.58003 70.0348 8.39258 74.6542 8.39258 76.1007C8.39258 77.5472 23.3637 77.9438 23.3637 77.9438L21.6408 74.0243L9.60331 70.0115L9.58003 70.0348Z" stroke="#00818E" stroke-width="2.5" stroke-linecap="round" stroke-linejoin="round"></path><path d="M14.5625 93.0619H71.2341" stroke="#00818E" stroke-width="2.5" stroke-linecap="round" stroke-linejoin="round"></path><path d="M168 85.2V56.5502L164.88 22.0678C164.88 22.0678 160.293 10.1226 126.043 10.1226C91.7933 10.1226 90.7223 22.0678 90.7223 22.0678L88.2077 56.5502V85.2C87.8817 88.3963 90.1635 97.4719 90.1635 97.4719H107.416L112.911 92.6425H143.226L148.721 97.4719H165.974C165.974 97.4719 168.232 86.3432 168.023 85.2H168Z" stroke="#00818E" stroke-width="2.5" stroke-linecap="round" stroke-linejoin="round"></path><path d="M102.923 92.3859H153.261" stroke="#00818E" stroke-width="2.5" stroke-linecap="round" stroke-linejoin="round"></path><path d="M161.294 70.0819C161.294 70.0819 162.482 74.7014 162.482 76.1478C162.482 77.5943 147.511 77.991 147.511 77.991L149.234 74.0714L161.271 70.0586L161.294 70.0819Z" stroke="#00818E" stroke-width="2.5" stroke-linecap="round" stroke-linejoin="round"></path><path d="M94.8671 70.0819C94.8671 70.0819 93.6797 74.7014 93.6797 76.1478C93.6797 77.5943 108.651 77.991 108.651 77.991L106.928 74.0714L94.8904 70.0586L94.8671 70.0819Z" stroke="#00818E" stroke-width="2.5" stroke-linecap="round" stroke-linejoin="round"></path><path d="M87.7191 48.8511C87.7191 48.8511 80.1288 43.3452 77.7772 48.1979C74.4011 55.0804 87.463 55.1737 87.463 55.1737" stroke="#00818E" stroke-width="2.5" stroke-linecap="round" stroke-linejoin="round"></path><path d="M168.023 48.8511C168.023 48.8511 175.614 43.3452 177.965 48.1979C181.341 55.0804 168.28 55.1737 168.28 55.1737" stroke="#00818E" stroke-width="2.5" stroke-linecap="round" stroke-linejoin="round"></path><path d="M114.564 71.295H141.62" stroke="#00818E" stroke-width="2.5" stroke-linecap="round" stroke-linejoin="round"></path><path d="M115.473 76.801H140.712" stroke="#00818E" stroke-width="2.5" stroke-linecap="round" stroke-linejoin="round"></path><path d="M89.4424 28.9036H164.717" stroke="#00818E" stroke-width="2.5" stroke-miterlimit="10"></path><path d="M115.31 19.4547H138.733" stroke="#00818E" stroke-width="2.5" stroke-miterlimit="10"></path><path d="M87.4395 56.5502H167.231" stroke="#00818E" stroke-width="2.5" stroke-miterlimit="10"></path><path d="M58.2188 101.811H114.89" stroke="#00818E" stroke-width="2.5" stroke-linecap="round" stroke-linejoin="round"></path><path d="M52.6772 59.2328C52.6772 59.2328 46.74 51.0438 42.386 54.7534C36.7049 59.5828 47.3221 62.2891 47.3221 62.2891" fill="white"></path><path d="M52.6772 59.2328C52.6772 59.2328 46.74 51.0438 42.386 54.7534C36.7049 59.5828 47.3221 62.2891 47.3221 62.2891" stroke="#00818E" stroke-width="2.5" stroke-linecap="round" stroke-linejoin="round"></path><path d="M123.854 59.2328C123.854 59.2328 129.792 51.0438 134.146 54.7534C139.827 59.5828 129.21 62.2891 129.21 62.2891" fill="white"></path><path d="M123.854 59.2328C123.854 59.2328 129.792 51.0438 134.146 54.7534C139.827 59.5828 129.21 62.2891 129.21 62.2891" stroke="#00818E" stroke-width="2.5" stroke-linecap="round" stroke-linejoin="round"></path><path d="M131.655 89.3758H128.907C130.583 73.1612 130.258 67.5618 127.976 64.2023C126.579 62.1492 124.483 61.4026 122.248 60.9593V6.31933L114.122 2.1665V21.6941C111.305 20.9709 106.369 15.0449 98.3594 14.5083C94.6108 14.2517 79.6396 14.2517 75.4952 14.5083C67.6255 14.9749 62.736 20.7142 59.8954 21.6475V2.1665L51.7695 6.31933V23.3039C51.7695 23.3039 51.7695 23.3039 51.7462 23.3039V23.7005L51.7695 60.9127C49.511 61.3793 47.3923 62.1025 45.972 64.1789C43.6902 67.5385 43.3875 73.1145 45.0407 89.3525H41.3852C40.0347 89.3525 38.9404 90.449 38.9404 91.8022V99.2213C38.9404 100.574 40.0347 101.671 41.3852 101.671H46.5308C47.1129 105.847 47.5785 108.81 47.5785 108.81H62.3401L67.8583 101.858H106.043L111.561 108.81H126.323C126.323 108.81 126.788 105.847 127.37 101.671H131.631C132.982 101.671 134.076 100.574 134.076 99.2213V91.8022C134.076 90.449 132.982 89.3525 131.631 89.3525L131.655 89.3758Z" fill="white" stroke="#00818E" stroke-width="2.5" stroke-linecap="round" stroke-linejoin="round"></path><path d="M98.0334 27.7133C92.3523 27.2234 80.1751 26.8734 75.0761 27.7133C69.8373 28.5532 63.4111 33.5226 63.4111 33.5226V53.1202H110.723V33.4993C110.723 33.4993 103.319 28.1566 98.0567 27.69L98.0334 27.7133Z" stroke="#00818E" stroke-width="2.5" stroke-linecap="round" stroke-linejoin="round"></path><path d="M71.7471 71.3881H101.363" stroke="#00818E" stroke-width="2.5" stroke-linecap="round" stroke-linejoin="round"></path><path d="M72.7246 76.894H100.362" stroke="#00818E" stroke-width="2.5" stroke-linecap="round" stroke-linejoin="round"></path><path d="M74.2383 82.4934H98.8487" stroke="#00818E" stroke-width="2.5" stroke-linecap="round" stroke-linejoin="round"></path><path d="M119.756 79.1806C119.756 79.1806 120.944 83.8 120.944 85.2465C120.944 86.693 105.973 87.0896 105.973 87.0896L107.696 83.1701L119.733 79.1572L119.756 79.1806Z" stroke="#00818E" stroke-width="2.5" stroke-linecap="round" stroke-linejoin="round"></path><path d="M53.33 79.1806C53.33 79.1806 52.1426 83.8 52.1426 85.2465C52.1426 86.693 67.1137 87.0896 67.1137 87.0896L65.3908 83.1701L53.3533 79.1572L53.33 79.1806Z" stroke="#00818E" stroke-width="2.5" stroke-linecap="round" stroke-linejoin="round"></path></svg>