<svg xmlns="http://www.w3.org/2000/svg" width="131" height="105" viewBox="0 0 131 105" fill="none"><g clip-path="url(#clip0_2011_8565)"><path d="M57.665 77.1682L52.3096 84.5401H58.1195L52.9617 91.4389" stroke="#00818E" stroke-width="2.5" stroke-miterlimit="10"></path><path d="M25.5126 77.1682L20.1572 84.5401H25.9474L20.7896 91.4389" stroke="#00818E" stroke-width="2.5" stroke-miterlimit="10"></path><path d="M89.8169 27.1223H0.988281V36.4653H89.8169V27.1223Z" stroke="#00818E" stroke-width="2.5" stroke-linecap="round" stroke-linejoin="round"></path><path d="M128.51 27.3193H90.2715V102.891H128.51V27.3193Z" stroke="#00818E" stroke-width="2.5" stroke-linecap="round" stroke-linejoin="round"></path><path d="M119.737 59.0145H99.2832V102.911H119.737V59.0145Z" stroke="#00818E" stroke-width="2.5" stroke-linecap="round" stroke-linejoin="round"></path><path d="M39.5635 37.1354V104.014" stroke="#00818E" stroke-width="2.5" stroke-linecap="round" stroke-linejoin="round"></path><path d="M63.2576 70.4271H47.1914V102.911H63.2576V70.4271Z" stroke="#00818E" stroke-width="2.5" stroke-linecap="round" stroke-linejoin="round"></path><path d="M63.2576 64.4351H47.1914V70.4272H63.2576V64.4351Z" stroke="#00818E" stroke-width="2.5" stroke-linecap="round" stroke-linejoin="round"></path><path d="M63.2576 59.5073H47.1914V64.435H63.2576V59.5073Z" stroke="#00818E" stroke-width="2.5" stroke-linecap="round" stroke-linejoin="round"></path><path d="M31.7371 70.4271H15.6709V102.911H31.7371V70.4271Z" stroke="#00818E" stroke-width="2.5" stroke-linecap="round" stroke-linejoin="round"></path><path d="M31.7371 64.4351H15.6709V70.4272H31.7371V64.4351Z" stroke="#00818E" stroke-width="2.5" stroke-linecap="round" stroke-linejoin="round"></path><path d="M31.7371 59.5073H15.6709V64.435H31.7371V59.5073Z" stroke="#00818E" stroke-width="2.5" stroke-linecap="round" stroke-linejoin="round"></path><path d="M100.608 12.3785H97.999V19.6716H100.608V12.3785Z" stroke="#00818E" stroke-width="2.5" stroke-linecap="round" stroke-linejoin="round"></path><path d="M119.163 12.3785H116.555V19.6716H119.163V12.3785Z" stroke="#00818E" stroke-width="2.5" stroke-linecap="round" stroke-linejoin="round"></path><path d="M128.491 19.6715H89.8174V27.1222H128.491V19.6715Z" stroke="#00818E" stroke-width="2.5" stroke-linecap="round" stroke-linejoin="round"></path><path d="M124.124 0.985596H94.165V12.3785H124.124V0.985596Z" stroke="#00818E" stroke-width="2.5" stroke-linecap="round" stroke-linejoin="round"></path><path d="M94.7773 26.5507V20.2432" stroke="#00818E" stroke-width="2.5" stroke-linecap="round" stroke-linejoin="round"></path><path d="M99.5596 26.5507V20.2432" stroke="#00818E" stroke-width="2.5" stroke-linecap="round" stroke-linejoin="round"></path><path d="M104.361 26.5507V20.2432" stroke="#00818E" stroke-width="2.5" stroke-linecap="round" stroke-linejoin="round"></path><path d="M109.145 26.5507V20.2432" stroke="#00818E" stroke-width="2.5" stroke-linecap="round" stroke-linejoin="round"></path><path d="M113.946 26.5507V20.2432" stroke="#00818E" stroke-width="2.5" stroke-linecap="round" stroke-linejoin="round"></path><path d="M123.53 26.5507V20.2432" stroke="#00818E" stroke-width="2.5" stroke-linecap="round" stroke-linejoin="round"></path><path d="M118.729 26.5507V20.2432" stroke="#00818E" stroke-width="2.5" stroke-linecap="round" stroke-linejoin="round"></path><path d="M0.988281 104.014H130.012" stroke="#00818E" stroke-width="2.5" stroke-linecap="round" stroke-linejoin="round"></path></g><defs><clipPath id="clip0_2011_8565"><rect width="131" height="105" fill="white"></rect></clipPath></defs></svg>