<svg xmlns="http://www.w3.org/2000/svg" width="46" height="61" viewBox="0 0 46 61" fill="none"><path d="M0.0562133 58.3261C0.099514 60.188 0.402616 60.4911 2.17795 60.4911H44.093C44.2662 60.4911 44.4394 60.4911 44.6126 60.4911C44.9157 60.4911 45.9983 60.3179 45.955 59.2354C45.955 58.9323 45.955 58.5859 45.955 58.2828C45.955 56.7673 45.955 55.2517 45.6086 53.8228C44.2662 47.5442 38.9402 43.344 32.4451 43.3007C31.8389 43.3007 31.1894 43.3007 30.5832 43.3007H29.2409L29.1976 42.8244C28.8512 39.447 29.4574 38.4944 31.6224 36.9788C36.9484 33.2117 38.9835 26.2403 36.5587 20.0483C34.1772 13.8996 27.9419 10.1757 21.3602 10.9551C17.4631 11.4314 13.9557 13.3799 11.5742 16.4976C9.19265 19.5719 8.15344 23.3824 8.67305 27.2362C9.23596 31.4796 11.3577 34.8571 14.9084 37.3252C15.8177 37.9314 16.8569 38.8841 16.9435 40.5295C16.9868 41.0058 16.9868 41.5254 16.9435 42.045C16.9435 42.3048 16.9435 42.5646 16.9435 42.8244V43.3873H16.3806C16.0342 43.3873 15.6445 43.3873 15.2981 43.3873C14.9516 43.3873 14.6486 43.3873 14.3454 43.3873C13.9557 43.3873 13.6093 43.3873 13.2196 43.3873C8.84626 43.5172 5.2956 45.3359 2.65426 48.7999C0.749025 51.2248 -0.0736888 54.2991 0.0562133 58.3261ZM16.5971 35.42C12.7 32.7787 10.8381 29.0548 11.0546 24.335C11.3144 19.1822 15.8177 14.2027 20.9271 13.5531C27.8553 12.6438 33.571 16.6708 34.7401 23.3824C35.5628 28.1022 33.9174 32.1725 29.8471 35.0736C28.5481 35.9829 27.2924 37.1087 26.6862 38.8841C26.5129 39.3604 26.0366 39.4903 25.517 39.6635C25.3005 39.7068 25.1273 39.7934 24.9108 39.88L24.1747 40.1831V36.5891C24.1747 36.0695 24.1747 35.5499 24.1747 34.987C24.1747 33.4715 24.1747 31.9126 24.218 30.3971C24.218 29.8775 24.4778 29.3146 24.8242 28.8816C25.3005 28.3187 25.8201 27.7991 26.3397 27.3228C26.6428 27.0197 26.9459 26.7166 27.2491 26.4135C27.8986 25.7639 27.9419 24.9845 27.4223 24.4216C26.6428 23.6422 25.7768 24.2917 25.4304 24.5948C25.0407 24.9845 24.6943 25.2876 24.4345 25.5907C24.218 25.8072 24.0015 26.0671 23.785 26.3702L23.0489 27.2362L21.9231 26.1104C21.4035 25.5907 20.9704 25.1577 20.4941 24.6814C20.0611 24.2484 19.6281 24.0319 19.1951 24.0319C18.892 24.0319 18.6322 24.1618 18.4157 24.4216C17.8961 24.9845 17.9827 25.7639 18.7188 26.4568C21.1436 28.1022 22.1396 30.527 21.7499 33.7313C21.62 34.9004 21.6633 36.0695 21.6633 37.2819C21.6633 37.8448 21.7066 38.4078 21.7066 38.9707V39.4037L21.3169 39.5336C20.4508 39.7934 19.3683 39.8367 18.9353 38.2779C18.6322 37.1953 17.8528 36.286 16.5971 35.42ZM25.0407 47.4576C24.3912 47.9339 23.6984 48.1504 23.0056 48.1504C22.3994 48.1504 21.7932 47.9772 21.187 47.6308C19.1951 46.4617 19.325 44.5132 19.4549 42.8244L19.4982 42.3048H26.4696L26.5129 42.7811C26.6428 44.2966 26.7727 46.2019 25.0407 47.4576ZM6.1616 48.6267C8.19674 46.7648 10.5783 45.8122 13.2629 45.8555H13.4361C13.566 45.8555 13.7392 45.8555 13.8691 45.8555C15.3414 45.7256 16.9868 45.7256 18.0693 47.9772C18.9786 49.7958 20.8838 50.7918 23.3087 50.6186C25.7335 50.4454 27.5089 49.2329 28.4615 47.0246C28.8512 46.1586 29.4141 45.8122 30.3667 45.8122H30.9729C33.0514 45.8122 35.2164 45.8555 37.2515 46.8514C41.1919 48.8432 43.5734 52.9568 43.227 57.3302L43.1837 57.8498H2.61095L2.56765 57.3302C2.43775 53.9094 3.60686 50.965 6.1616 48.6267Z" fill="#00828C"></path><path d="M13.4364 8.66034C13.9993 8.31394 14.1725 7.57782 13.8261 6.92831L13.7395 6.71181C13.2199 5.75919 12.7003 4.76328 12.0941 3.89726C11.9209 3.63746 11.6178 3.46426 11.3147 3.24775C11.2281 3.16115 11.0982 3.11785 11.0116 3.03125C10.492 3.16115 10.1023 3.42096 9.88576 3.81066C9.71256 4.15707 9.71256 4.54677 9.88576 4.93648C10.4487 6.0623 11.1415 7.18812 11.7044 8.14073C12.0941 8.87685 12.7869 9.05005 13.4364 8.66034Z" fill="#00828C"></path><path d="M35.6493 3.42031C35.0431 3.0739 34.2637 3.29041 33.8307 3.98322C33.2678 4.89253 32.7482 5.84515 32.1853 6.88437C32.0987 7.05757 32.0554 7.23077 32.0121 7.40397C32.0121 7.44728 32.0121 7.49058 31.9688 7.53388C32.0121 8.39989 32.3585 8.65969 32.8781 8.8329C33.4843 9.0061 33.9173 8.8329 34.2637 8.35659C34.8266 7.49058 35.3895 6.49466 36.0823 5.23894C36.4287 4.50283 36.2555 3.76671 35.6493 3.42031Z" fill="#00828C"></path><path d="M5.72971 13.899C4.8204 13.3361 3.86779 12.8165 3.00177 12.3402C2.82857 12.2536 2.56877 12.167 2.39556 12.0804C2.35226 12.0804 2.30895 12.0371 2.26565 12.0371C1.35634 12.1237 1.09653 12.5134 0.966632 12.9464C0.79343 13.5526 0.96664 14.0289 1.52955 14.4186C2.35226 14.9383 3.30487 15.5012 4.47399 16.1507C5.25341 16.5837 5.94622 16.4538 6.33593 15.8043C6.76894 15.0682 6.50912 14.3753 5.72971 13.899Z" fill="#00828C"></path><path d="M43.6604 12.0371C43.314 12.2536 42.9676 12.4268 42.6212 12.6C41.6253 13.1629 40.6294 13.7258 39.72 14.332C39.5468 14.4619 39.4603 14.6352 39.4603 14.8084C39.417 15.1115 39.5036 15.5012 39.6768 15.761C39.9799 16.1507 40.4562 16.5404 41.0191 16.2806C42.2748 15.6744 43.4872 14.9816 44.6996 14.2021C45.3058 13.8124 45.1326 13.1196 45.046 12.8598C44.8295 12.3402 44.4398 12.0804 43.8336 12.0371C43.747 12.0371 43.7037 12.0371 43.6604 12.0371Z" fill="#00828C"></path><path d="M21.75 4.93628C21.7933 5.62909 22.2696 6.1487 22.9624 6.1487C22.9624 6.1487 22.9624 6.1487 23.0057 6.1487C23.6985 6.1487 24.1748 5.67239 24.2181 4.97958C24.2614 3.68056 24.2614 2.38154 24.2181 1.16912C24.2181 0.519609 23.6985 0.0433007 23.0057 0C22.3562 0 21.8366 0.476308 21.7933 1.12582C21.75 1.55883 21.7933 1.94853 21.7933 2.38154C21.7933 2.59804 21.7933 2.81455 21.7933 2.98775C21.7933 3.16095 21.7933 3.37746 21.7933 3.55066C21.75 4.02697 21.75 4.50327 21.75 4.93628Z" fill="#00828C"></path></svg>