<svg xmlns="http://www.w3.org/2000/svg" width="43" height="48" viewBox="0 0 43 48" fill="none"><g clip-path="url(#clip0_2791_8778)"><path d="M42.5 46.5817C42.5 43.4027 42.5 40.2236 42.5 37.0445C42.5 31.774 42.5 26.3361 42.5165 20.9651C42.5165 20.1955 42.2354 19.7939 41.5244 19.5764C40.1189 19.1246 38.7134 18.6394 37.3409 18.1709C36.911 18.0203 36.4811 17.8697 36.0512 17.7359C35.2244 17.4514 34.4142 17.167 33.6039 16.8993L32.4299 16.4977L32.4465 16.414C34.0008 10.7252 32.5291 6.05698 28.1638 2.94484C24.278 0.16734 18.8378 0.133876 14.9354 2.89465C12.9016 4.33359 11.4134 6.25776 10.5039 8.6337C9.32992 11.7291 9.62756 14.8078 11.4465 18.3215L11.5291 18.4888L11.3472 18.4386C11.2315 18.4051 11.1323 18.3717 11.0661 18.355C10.9339 18.3215 10.8677 18.3048 10.785 18.2713L2.18661 15.3767C1.5252 15.1592 1.09528 15.1257 0.86378 15.3097C0.615748 15.4938 0.516535 15.8954 0.516535 16.5814C0.516535 18.8234 0.516535 21.0823 0.516535 23.3243C0.516535 29.4315 0.516535 35.7394 0.5 41.9302C0.5 42.7836 0.797638 43.2019 1.62441 43.4863C3.59213 44.1389 5.57638 44.8081 7.51102 45.4607C9.66063 46.1802 11.8764 46.9331 14.0591 47.6526C14.522 47.8032 15.1173 47.8032 15.5803 47.6526C17.6472 46.9666 19.7638 46.2638 21.7811 45.5778C23.6661 44.942 25.6173 44.2894 27.5354 43.6536C27.7504 43.5867 27.9984 43.5532 28.2465 43.5532C28.511 43.5532 28.7591 43.5867 28.9906 43.6704C32.1323 44.7077 35.3071 45.7786 38.3827 46.8327C39.2425 47.1171 40.0858 47.4183 40.9457 47.7028C41.5244 47.9035 41.9213 47.9035 42.1528 47.7362C42.3842 47.5522 42.5 47.1841 42.5 46.5817ZM13.9598 25.0645C13.9268 29.8665 13.9268 34.769 13.9268 39.4874C13.9268 41.2108 13.9268 42.9174 13.9268 44.6408V45.8622L12.1575 45.2599C10.9339 44.8416 9.74331 44.44 8.56929 44.0385L7.52756 43.6871C6.0063 43.1684 4.4189 42.633 2.86457 42.131C2.35197 41.9637 2.17008 41.7127 2.17008 41.1773C2.18661 35.1203 2.18661 28.963 2.18661 23.0064V17.7526C2.18661 17.6689 2.18661 17.602 2.20315 17.5016C2.20315 17.4514 2.21968 17.4012 2.21968 17.3343V17.2339L2.3189 17.2506C2.40157 17.2674 2.50079 17.2841 2.58346 17.3008C2.76535 17.3343 2.94724 17.3678 3.1126 17.4347L4.35276 17.853C6.83307 18.6896 9.4126 19.5597 11.926 20.4464C12.2567 20.5636 12.5874 20.8313 12.9346 21.2663C13.8441 22.4375 13.9598 23.7928 13.9598 25.0645ZM26.7583 42.131C24.3606 42.9342 21.9465 43.754 19.5984 44.5404C18.5071 44.9085 17.3992 45.2934 16.2913 45.6615C16.1921 45.6949 16.0764 45.7117 15.9441 45.7284C15.878 45.7451 15.8118 45.7451 15.7291 45.7619L15.6299 45.7786V25.8509L16.374 26.9719C16.7543 27.5408 17.1016 28.0595 17.4488 28.5782C18.4906 30.1844 19.5488 31.774 20.5906 33.3802C20.8882 33.8487 21.2024 34.083 21.5 34.083C21.7976 34.083 22.0953 33.8487 22.3929 33.397L23.8646 31.1549C24.8071 29.7159 25.7331 28.2937 26.6756 26.8548C26.7583 26.7209 26.8575 26.6038 26.9732 26.4365C27.0394 26.3528 27.122 26.2357 27.2047 26.1186L27.337 25.9345L27.3535 26.1688C27.3701 26.3026 27.3701 26.403 27.3701 26.5034C27.3866 26.6707 27.3866 26.7878 27.3866 26.905C27.3866 28.1933 27.3866 29.4984 27.3866 30.7868C27.3866 34.1834 27.3866 37.6803 27.4031 41.1271C27.4197 41.6123 27.3039 41.947 26.7583 42.131ZM24.1126 27.6914L24.0134 27.842C23.4677 28.6618 22.922 29.4984 22.3598 30.3517L21.5 31.6568L21.4339 31.5564C21.0866 31.021 20.7394 30.5023 20.3921 29.9836C19.6315 28.8291 18.9039 27.7583 18.1929 26.6373C16.3244 23.7259 14.1583 20.2457 12.3724 16.4475C10.9669 13.4692 11.248 10.0057 13.1165 7.16129C15.1008 4.11608 18.4079 2.39269 21.9465 2.54327C26.8079 2.76079 30.9087 6.60913 31.4709 11.5116C31.6528 13.1179 31.3717 14.6739 30.5449 16.5646C28.8252 20.4966 26.4276 24.1609 24.1126 27.6914ZM40.8134 43.7038V45.5778C40.8134 45.6113 40.7968 45.628 40.7968 45.6782C40.7968 45.6949 40.7803 45.7284 40.7638 45.7619L40.7307 45.8455L39.011 45.2766C37.7709 44.8583 36.5142 44.44 35.274 44.0217C34.5465 43.7708 33.8189 43.5198 33.0748 43.2855C32 42.9174 30.8921 42.5493 29.8008 42.1812C29.3213 42.0306 29.0402 41.8131 29.0567 41.1773C29.0732 37.1282 29.0732 32.9954 29.0732 29.0132C29.0732 27.2229 29.0732 25.4158 29.0732 23.6255V23.592C29.0732 23.3411 29.0732 23.0734 29.189 22.8558C29.8339 21.6679 30.4622 20.5134 31.1402 19.2752L31.785 18.104L33.4717 18.6729C35.7205 19.4258 38.0685 20.2122 40.3504 20.9986C40.5654 21.0823 40.8134 21.4336 40.8134 21.6679C40.8299 29.0132 40.8299 36.4756 40.8134 43.7038Z" fill="#0C8890"></path><path d="M15.1505 12.6329C15.167 16.1968 18.0111 19.0747 21.5001 19.0747C21.5166 19.0747 21.5166 19.0747 21.5331 19.0747C25.0221 19.058 27.8662 16.1299 27.8497 12.566C27.8497 10.8259 27.1717 9.20288 25.9481 7.98145C24.741 6.77675 23.1536 6.12421 21.467 6.14094C17.9615 6.15767 15.1339 9.06903 15.1505 12.6329ZM21.5993 7.81413C22.8725 7.8476 24.0465 8.36629 24.9229 9.30327C25.7827 10.2235 26.2457 11.4617 26.1961 12.7501C26.1631 14.0217 25.6174 15.2264 24.6749 16.1132C23.7985 16.933 22.6906 17.3848 21.5331 17.3848C21.4835 17.3848 21.4174 17.3848 21.3678 17.3848C18.7883 17.2844 16.7544 15.0758 16.8205 12.4656C16.8536 11.194 17.3662 10.006 18.2757 9.11922C19.1686 8.24916 20.3426 7.78067 21.5993 7.81413Z" fill="#0C8890"></path></g><defs><clipPath id="clip0_2791_8778"><rect width="42" height="47" fill="white" transform="translate(0.5 0.853516)"></rect></clipPath></defs></svg>