<svg xmlns="http://www.w3.org/2000/svg" width="46" height="46" viewBox="0 0 46 46" fill="none"><path d="M45.4385 7.47306C45.1024 4.16968 42.9635 1.75333 39.6941 0.958074C36.608 0.223992 33.5219 1.47805 31.8413 4.1391C31.5052 4.65907 31.1691 4.75083 30.6497 4.75083C26.3719 4.75083 22.033 4.75083 17.8163 4.75083C16.533 4.75083 15.2191 4.75083 13.9358 4.75083C11.9497 4.75083 10.483 5.60726 9.50521 7.25895C6.08298 13.1622 3.30243 17.9949 0.735768 22.4912C-0.211454 24.1428 -0.211456 25.7945 0.705211 27.4462C3.73021 32.7071 6.6941 37.8763 9.56632 42.8008C10.3608 44.1772 11.5524 44.9724 12.9274 45.0948C12.958 45.0948 13.0191 45.0948 13.0497 45.0948C14.6691 45.2171 16.3497 45.2171 17.9691 45.2171H18.3969C18.458 45.2171 18.5497 45.2171 18.6108 45.1865C20.6885 45.1865 23.2552 45.2171 26.3413 45.2171C26.4635 45.2477 26.6163 45.2477 26.7385 45.2477H26.8302C27.3802 45.2477 27.9302 45.2477 28.5108 45.2477C28.8163 45.2477 29.1524 45.2477 29.4885 45.2477C29.9774 45.2477 30.4663 45.2477 30.9552 45.2477C33.1552 45.2783 34.7747 44.3301 35.8747 42.4031C38.4719 37.8457 41.2524 32.9518 44.1247 28.0885C45.408 25.9169 45.408 23.9593 44.0941 21.8488C43.1774 20.3807 42.3219 18.8513 41.4663 17.3526C41.0997 16.6797 40.7024 16.0068 40.3358 15.3339L40.3052 15.3033L40.6413 15.1503C40.8247 15.0586 40.9774 14.9974 41.1302 14.9362C44.033 13.5598 45.7441 10.5623 45.4385 7.47306ZM42.7497 22.8582C43.6358 24.2958 43.6358 25.5804 42.7802 27.0486C40.3358 31.2084 37.7385 35.7046 34.408 41.5773C33.6747 42.8925 32.5747 43.5348 31.0774 43.5348C31.0469 43.5348 31.0469 43.5348 31.0163 43.5348H30.9552C29.8247 43.5348 28.633 43.5043 27.4719 43.5348C25.4858 43.5348 21.5747 43.5348 18.5497 43.5348C18.4885 43.5348 18.4274 43.5348 18.3663 43.5348C17.8774 43.5348 17.3885 43.5348 16.8997 43.5348H16.7774C15.708 43.5348 14.8524 43.5348 14.3635 43.5348H14.0885C12.6524 43.5348 11.6135 42.9231 10.8802 41.6691C8.16076 36.8975 5.28854 31.9425 2.35521 26.8651C1.62188 25.5804 1.62188 24.3875 2.35521 23.1029C5.07465 18.4231 7.94688 13.4681 10.8497 8.36007C11.583 7.04484 12.6524 6.43311 14.1497 6.43311H14.1802C17.9691 6.46369 21.8497 6.46369 25.5774 6.43311C27.0135 6.43311 28.4802 6.43311 29.9163 6.43311H30.833V6.46369C30.4052 8.72711 30.9552 11.0517 32.3608 12.7952C33.7358 14.508 35.783 15.5174 37.9524 15.5785C38.4719 15.5785 38.7163 15.7621 38.9913 16.1903L39.3885 16.8938C40.4274 18.8819 41.558 20.9006 42.7497 22.8582ZM42.1385 12.1528C41.0691 13.2234 39.633 13.8045 38.0135 13.8045C34.7441 13.8045 32.3608 11.4187 32.3302 8.11538C32.3302 6.64721 32.9108 5.20963 33.9802 4.1391C35.0802 3.03797 36.4858 2.42624 38.0135 2.42624C38.0135 2.42624 38.0135 2.42624 38.0441 2.42624C41.1302 2.42624 43.758 4.99553 43.7885 8.0542C43.758 9.64472 43.208 11.1129 42.1385 12.1528Z" fill="#0C8890"></path><path d="M22.7354 11.9082C22.7049 11.9082 22.7049 11.9082 22.6743 11.9082C14.1493 11.9388 9.71875 18.5761 9.71875 25.0911C9.74931 32.2484 15.4326 37.8152 22.6437 37.8152C22.6743 37.8152 22.6743 37.8152 22.7049 37.8152C26.1271 37.8152 29.3354 36.4388 31.8104 33.9613C34.2549 31.4837 35.5688 28.2721 35.5688 24.877C35.5688 21.3595 34.2243 18.0867 31.7493 15.6092C29.3049 13.2234 26.1271 11.9082 22.7354 11.9082ZM26.1271 30.0156C25.6382 30.3214 25.4549 30.6885 25.4549 31.239C25.4549 31.7284 25.4549 32.2178 25.4549 32.6766C25.4549 33.4107 25.4243 34.1448 25.4854 34.8789C25.516 35.2459 25.4549 35.5212 25.3021 35.6741C25.1493 35.8576 24.9049 35.9188 24.5076 35.9494C24.3243 35.9494 24.141 35.98 23.8965 36.0412C23.7743 36.0717 23.6521 36.0717 23.4993 36.1023H23.4687V35.3377C23.4687 34.6342 23.4687 33.9307 23.4687 33.2272C23.4687 33.0437 23.4687 32.8296 23.4687 32.646C23.4687 32.1566 23.4687 31.6367 23.4687 31.1167C23.4687 30.7191 23.3771 30.4438 23.1938 30.2908C23.041 30.1685 22.8271 30.0767 22.5826 30.1073C22.0326 30.1379 21.7576 30.4438 21.7576 31.1167C21.7576 31.9425 21.7576 32.799 21.7576 33.6248C21.7576 34.2365 21.7576 34.8483 21.7576 35.46C21.7576 35.5824 21.7576 35.6741 21.7271 35.7965C21.7271 35.8576 21.7271 35.9188 21.6965 35.98V36.0106H21.666C21.6049 36.0106 21.5743 36.0412 21.5438 36.0412C21.4826 36.0412 21.4521 36.0717 21.4215 36.0412C21.2076 36.0106 21.0243 35.98 20.841 35.9494C19.741 35.7965 19.741 35.7659 19.741 34.94C19.741 34.7565 19.741 34.5118 19.741 34.206C19.7104 33.3189 19.7104 32.4013 19.741 31.4531C19.7715 30.7802 19.5271 30.3214 18.916 29.8932C17.3882 28.8533 16.4104 27.171 16.2271 25.244C16.0437 23.3477 16.6549 21.543 17.9076 20.289C17.9687 20.2278 18.0299 20.1666 18.1215 20.1055C18.1826 20.0749 18.2438 20.0137 18.3354 19.9219L18.3965 19.8608V19.9525C18.3965 20.3196 18.3965 20.656 18.3965 20.9619C18.3965 21.696 18.3965 22.3995 18.3965 23.103C18.366 23.7453 18.6104 24.1429 19.1299 24.4488C20.1382 24.9688 21.0243 25.4887 21.8799 25.9781C22.3687 26.2534 22.766 26.2534 23.2549 25.9781C23.6215 25.764 24.0187 25.5499 24.3854 25.3358C24.9354 25.0299 25.516 24.7241 26.0354 24.357C26.341 24.1429 26.6465 23.6535 26.6771 23.2559C26.7382 22.5218 26.7382 21.7877 26.7076 20.9925C26.7076 20.656 26.7076 20.3196 26.7076 19.9525V19.8608L26.7687 19.9219C27.5021 20.5031 28.0215 21.176 28.3882 22.0936C29.6715 25.0299 28.6938 28.3333 26.1271 30.0156ZM32.5132 30.2297C31.3521 32.4013 29.4882 34.1142 27.2271 35.0318L27.166 35.0624V35.0012C27.166 34.6953 27.166 34.3895 27.166 34.0836C27.166 33.2884 27.1354 32.5543 27.1965 31.7896C27.2271 31.4837 27.5326 31.1473 27.8076 30.9026C29.7938 29.2509 30.8326 26.6816 30.5882 24.0206C30.3743 21.3901 28.9382 19.0655 26.7687 17.8115C26.3715 17.5973 25.791 17.4444 25.516 17.5973C25.241 17.7503 25.0882 18.3314 25.0576 18.7902C24.9965 20.0443 25.0271 21.3289 25.0576 22.4912C25.0576 22.9194 24.9354 23.1641 24.5076 23.4088H24.4771C22.5826 24.51 22.5826 24.51 20.6576 23.4088C20.2604 23.1641 20.1076 22.9194 20.1076 22.4912C20.1382 21.3289 20.1382 20.1666 20.1076 19.0349V18.6373C20.1076 18.0867 19.9549 17.7197 19.7104 17.5668C19.4354 17.4138 19.0687 17.475 18.5799 17.7197C16.3493 18.9126 14.8521 21.2066 14.5771 23.837C14.3021 26.5593 15.341 29.2203 17.3882 30.9026C17.9076 31.3308 18.091 31.7284 18.0604 32.3708C18.0299 32.9825 18.0299 33.5942 18.0299 34.1754C18.0299 34.4201 18.0299 34.6953 18.0299 34.94V34.9706H17.9993C16.441 34.7565 14.791 33.4413 13.4465 31.3614C12.1326 29.3121 11.3382 26.8345 11.3687 24.7241C11.3993 22.0936 12.3465 19.5243 14.0882 17.5056C15.8604 15.4563 18.2743 14.1105 20.9326 13.7434C24.0799 13.3152 26.9826 14.0187 29.3049 15.7315C31.4438 17.3221 32.9715 19.7384 33.5521 22.4912C34.1021 25.2134 33.766 27.9051 32.5132 30.2297Z" fill="#0C8890"></path><path d="M40.9776 7.32018C41.3137 6.98372 41.4665 6.64727 41.4665 6.37199C41.4665 6.15788 41.3748 6.00495 41.1915 5.85201C40.672 5.39321 40.2442 5.60732 39.7859 6.09671L36.9748 8.97186L36.9442 8.94128C36.822 8.78834 36.6998 8.666 36.5776 8.51306C36.3331 8.23778 36.1192 7.99309 35.9054 7.74839C35.6915 7.56487 35.4776 7.44253 35.2637 7.44253C35.0498 7.44253 34.8665 7.53429 34.6526 7.71781C34.2859 8.11543 34.2859 8.51306 34.7137 8.94128C35.2331 9.49184 35.722 9.98123 36.1803 10.44C36.8526 11.0824 37.1581 11.0824 37.8303 10.44C38.8998 9.43067 39.8776 8.4213 40.9776 7.32018Z" fill="#0C8890"></path></svg>