<svg xmlns="http://www.w3.org/2000/svg" width="54" height="53" viewBox="0 0 54 53" fill="none"><g clip-path="url(#clip0_2362_10080)"><path d="M35.9418 22.8601C37.294 25.3015 38.0792 28.1424 38.0792 31.1164C38.0792 40.438 30.664 47.9841 21.504 47.9841C12.3441 47.9841 4.92892 40.438 4.92892 31.1164C4.92892 21.7948 12.3441 14.2487 21.504 14.2487C25.0372 14.2487 28.2649 15.3585 30.9693 17.2672L34.6769 13.8492C31.0565 10.964 26.4766 9.27722 21.504 9.27722C9.63974 9.27722 0 19.0871 0 31.1608C0 43.2345 9.63974 53.0444 21.504 53.0444C33.3683 53.0444 43.0081 43.2345 43.0081 31.1608C43.0081 26.8551 41.7868 22.8601 39.6931 19.4866L35.9418 22.8601Z" fill="#007B85"></path><path d="M21.5036 24.4135C22.027 24.4135 22.5505 24.5022 23.0739 24.591L27.3921 20.596C25.6474 19.5751 23.6409 18.998 21.5036 18.998C14.9172 18.998 9.5957 24.4135 9.5957 31.1161C9.5957 37.8188 14.9172 43.2342 21.5036 43.2342C28.09 43.2342 33.4115 37.8188 33.4115 31.1161C33.4115 29.3406 33.019 27.6538 32.3647 26.1446L28.0464 30.1396C28.09 30.4503 28.1337 30.761 28.1337 31.1161C28.1337 34.8448 25.1676 37.8632 21.5036 37.8632C17.8396 37.8632 14.8736 34.8448 14.8736 31.1161C14.8736 27.4319 17.8396 24.4135 21.5036 24.4135Z" fill="#007B85"></path><path d="M46.9346 9.09913C46.9346 8.69963 46.8038 8.30014 46.4984 7.94503C46.1931 7.58992 45.7569 7.41236 45.3207 7.41236V5.28171L45.3643 -0.0449219L39.4322 5.76999V9.45424V12.3395L36.248 15.3135L32.5841 18.6427L29.0946 21.8387L25.1252 25.5229L20.3708 29.9174C19.7165 30.5388 19.6729 31.5598 20.2836 32.2256C20.5889 32.5807 21.0251 32.7583 21.4613 32.7583C21.8538 32.7583 22.2464 32.6251 22.5517 32.3144L27.3062 27.9643L31.2755 24.28L34.765 21.0397L38.3853 17.6661L41.5259 14.7365H44.6228H48.2432L53.9572 9.18791L48.9847 9.09913H46.9346Z" fill="#87E1E8"></path></g><defs><clipPath id="clip0_2362_10080"><rect width="54" height="53" fill="white"></rect></clipPath></defs></svg>