<svg xmlns="http://www.w3.org/2000/svg" width="132" height="105" viewBox="0 0 132 105" fill="none"><g clip-path="url(#clip0_2011_8549)"><path d="M1.0459 103.96H129.01" stroke="#00818E" stroke-width="2.5" stroke-linecap="round" stroke-linejoin="round"></path><path d="M97.6253 1.04004H8.59375V87.5694H97.6253V1.04004Z" stroke="#00818E" stroke-width="2.5" stroke-linecap="round" stroke-linejoin="round"></path><path d="M44.8294 53.4153V75.4844H32.5557V14.6227H55.974C62.9995 14.6227 68.5405 16.4115 72.5759 19.9684C76.6114 23.546 78.6396 28.2261 78.6396 34.0502C78.6396 39.8743 76.6323 44.5543 72.5759 48.0904C68.5405 51.6264 62.9995 53.3945 55.974 53.3945H44.8294V53.4153ZM44.8294 44.0135H55.974C59.3822 44.0135 61.975 43.0775 63.7522 41.2263C65.5086 39.3751 66.4077 37.0038 66.4077 34.1334C66.4077 31.2629 65.5295 28.7877 63.7731 26.8741C62.0168 24.9604 59.424 24.0036 55.974 24.0036H44.8294V43.9927V44.0135Z" stroke="#00818E" stroke-width="2.5" stroke-miterlimit="10"></path><path d="M58.4416 65.9787C58.4416 65.9787 52.2107 57.4505 47.6525 61.2986C41.6933 66.3531 52.838 69.1403 52.838 69.1403" stroke="#00818E" stroke-width="2.5" stroke-linecap="round" stroke-linejoin="round"></path><path d="M116.005 65.9787C116.005 65.9787 122.236 57.4505 126.794 61.2986C132.753 66.3531 121.609 69.1403 121.609 69.1403" stroke="#00818E" stroke-width="2.5" stroke-linecap="round" stroke-linejoin="round"></path><path d="M102.79 100.112L108.394 103.96H127.296C127.296 103.96 128.822 97.4911 129.784 91.2926C131.603 79.6236 131.331 73.8203 128.948 71.4699C126.878 69.4107 123.281 69.2651 119.957 68.8491C116.632 68.4331 110.777 57.6585 100.866 56.7433C96.4337 56.3273 78.7236 56.3273 73.8099 56.7433C63.878 57.5753 57.9398 68.4539 54.7198 68.8491C51.4998 69.2443 47.7988 69.3899 45.7288 71.4699C43.3661 73.8203 43.0733 79.6444 44.8924 91.2926C45.8543 97.4911 47.3806 103.96 47.3806 103.96H66.2826L71.8863 100.112H102.79Z" fill="white" stroke="#00818E" stroke-width="2.5" stroke-linecap="round" stroke-linejoin="round"></path><path d="M98.7546 62.2554C104.003 62.6922 111.342 69.7643 111.342 69.7643H63.3135C63.3135 69.7643 70.7153 63.0458 75.9008 62.2554C80.9818 61.4858 93.0882 61.7978 98.7337 62.2554H98.7546Z" stroke="#00818E" stroke-width="2.5" stroke-linecap="round" stroke-linejoin="round"></path><path d="M122.11 76.0251C122.11 76.0251 123.364 80.8508 123.364 82.3484C123.364 83.8669 107.641 84.2829 107.641 84.2829L109.46 80.206L122.11 76.0251Z" stroke="#00818E" stroke-width="2.5" stroke-linecap="round" stroke-linejoin="round"></path><path d="M52.3571 76.0251C52.3571 76.0251 51.1025 80.8508 51.1025 82.3484C51.1025 83.8669 66.8263 84.2829 66.8263 84.2829L65.0072 80.206L52.3571 76.0251V76.0251Z" stroke="#00818E" stroke-width="2.5" stroke-linecap="round" stroke-linejoin="round"></path><path d="M57.584 100.029H117.092" stroke="#00818E" stroke-width="2.5" stroke-linecap="round" stroke-linejoin="round"></path></g><defs><clipPath id="clip0_2011_8549"><rect width="132" height="105" fill="white"></rect></clipPath></defs></svg>