<svg xmlns="http://www.w3.org/2000/svg" width="29" height="28" viewBox="0 0 29 28" fill="none"><g clip-path="url(#clip0_2793_8830)"><path d="M18.1055 7.13051C18.1055 6.23203 18.1055 5.32537 18.1055 4.42689C18.1055 3.92047 18.2582 3.74894 18.7567 3.75711C19.5768 3.76528 20.4049 3.74078 21.225 3.83062C22.3988 3.95315 23.2349 4.92514 23.2751 6.085C23.3234 7.39189 22.6159 8.37205 21.4099 8.60892C20.9275 8.70694 20.421 8.68243 19.9225 8.69877C19.416 8.71511 19.416 8.69877 19.416 9.22969C19.416 9.43389 19.416 9.64626 19.4079 9.85046C19.3919 10.2915 19.1185 10.5692 18.7245 10.5611C18.3306 10.5447 18.1055 10.2834 18.1055 9.84229C18.1135 8.92747 18.1135 8.02899 18.1055 7.13051ZM19.416 6.27287C19.416 6.59142 19.424 6.91814 19.416 7.23669C19.4079 7.44906 19.4723 7.53891 19.6893 7.53074C19.9868 7.52257 20.2762 7.52257 20.5737 7.52257C20.9194 7.52257 21.233 7.43273 21.5064 7.20402C21.8682 6.9018 22.0692 6.39539 21.9646 6.02782C21.8199 5.53774 21.2089 5.04766 20.6782 5.02316C20.3406 5.00682 20.0029 5.03133 19.6733 5.02316C19.4723 5.02316 19.416 5.12117 19.416 5.30904C19.424 5.62759 19.416 5.95431 19.416 6.27287Z" fill="#00828C"></path><path d="M27.794 20.5267C26.2986 19.669 24.6424 19.1871 22.7369 19.0483C22.4716 19.0319 22.1902 18.9421 21.9651 18.8195C20.5018 17.9946 18.7893 17.0798 16.908 16.6305C12.3574 15.5523 8.14445 16.0914 4.37372 18.2314C3.79485 18.5582 3.19989 18.648 2.57278 18.7379C2.36374 18.7705 2.14666 18.8032 1.93763 18.8441C1.61603 18.9094 1.28639 18.9502 0.972835 18.9911C0.852236 19.0074 0.731637 19.0237 0.602999 19.0401C0.201003 19.0973 4.55566e-06 19.326 0.00804448 19.7344C0.0160844 20.2081 0.00804448 20.69 0.00804448 21.1556C0.00804448 21.3516 0.00804448 21.5477 0.00804448 21.7519L0.0160844 21.8335C0.0160844 22.0051 0.0160844 22.1684 0.0160844 22.34C0.0160844 22.781 0.00804448 23.2303 0.0241243 23.6795C0.0402042 24.431 0.402001 24.9946 1.06931 25.3131C1.43915 25.4847 1.82507 25.6399 2.1949 25.7787C2.42806 25.8686 2.66926 25.9584 2.91046 26.0564C3.00694 26.0973 3.13557 26.1871 3.18381 26.2851C3.76269 27.4286 4.65512 28.0086 5.84503 28.0086H5.85307C7.05102 28.0086 7.95953 27.4286 8.56252 26.2851C8.6188 26.1871 8.7796 26.0728 8.88412 26.0728C12.9925 26.0564 17.125 26.0564 21.1611 26.0728C21.2576 26.0728 21.4264 26.1871 21.4827 26.2933C22.0857 27.4286 22.9781 28.0004 24.1359 28.0004C24.1439 28.0004 24.1519 28.0004 24.16 28.0004C25.382 27.9922 26.2906 27.4123 26.8614 26.2688C26.9016 26.1789 27.0785 26.0809 27.2071 26.0728C27.4403 26.0483 27.6815 26.0564 27.9146 26.0564C28.0513 26.0564 28.188 26.0564 28.3327 26.0564C28.8714 26.0483 29.0241 25.8931 29.0241 25.354C29.0241 25.0518 29.0241 24.7414 29.0241 24.4392C29.0161 23.8347 29.0161 23.2139 29.0322 22.6013C29.0322 21.6865 28.6382 21.0086 27.794 20.5267ZM19.9069 18.9992H13.6679V17.284C15.8789 17.4146 17.929 17.9701 19.9069 18.9992ZM24.1519 23.1323C24.6424 23.1323 25.1087 23.3283 25.4544 23.6877C25.8001 24.0389 25.9931 24.5127 25.985 25.0109C25.985 25.5092 25.7921 25.9747 25.4383 26.326C25.0926 26.669 24.6343 26.8651 24.1359 26.8651H24.1278C23.0987 26.8569 22.2947 26.0401 22.3027 24.9946C22.3108 23.9654 23.1389 23.1323 24.1519 23.1323ZM22.5037 22.4952C21.7078 23.0424 21.2576 23.8429 21.1611 24.8884H13.6759V20.2244C13.692 20.2244 13.7 20.2244 13.7161 20.2244C13.7804 20.2244 13.8367 20.2163 13.901 20.2163C14.697 20.2163 15.4929 20.2163 16.2808 20.2163C18.323 20.2163 20.4375 20.2163 22.5198 20.2244C24.1439 20.2326 25.7197 20.6737 27.2071 21.5313C27.4885 21.6947 27.8181 22.0704 27.8503 22.3563C27.9146 22.9689 27.9066 23.5815 27.8905 24.235C27.8825 24.4555 27.8825 24.6924 27.8825 24.9211H27.1428C26.9337 23.0343 25.5991 22.1031 24.3529 22.0051C23.6856 21.9397 23.0665 22.1113 22.5037 22.4952ZM4.51844 23.7122C4.86416 23.3446 5.34655 23.1404 5.83699 23.1404H5.84503C6.85806 23.1404 7.68617 23.9654 7.69421 24.9864C7.70225 25.4847 7.50929 25.9502 7.16358 26.3015C6.81786 26.6527 6.35154 26.8569 5.86111 26.8569C5.85307 26.8569 5.85307 26.8569 5.84503 26.8569C4.84808 26.8569 4.01997 26.0319 3.99585 25.0109C3.98781 24.529 4.17272 24.0634 4.51844 23.7122ZM4.16468 22.5197C3.42501 23.0343 2.9989 23.7939 2.86222 24.8394C2.74162 24.7904 2.61298 24.7414 2.50042 24.6924C2.13862 24.5453 1.80095 24.4146 1.49543 24.2268C1.31855 24.1206 1.14971 23.8429 1.13363 23.6305C1.09343 23.1649 1.10147 22.6912 1.10951 22.1929C1.10951 22.0214 1.11755 21.8417 1.11755 21.662H2.53258V20.5022H1.11755V20.1264L1.45523 20.0774C1.76879 20.0284 2.08234 19.9794 2.3959 19.9386C2.50846 19.9222 2.62102 19.9059 2.73358 19.8896C3.49737 19.7834 4.28528 19.669 4.9928 19.1871C5.62795 18.746 5.62795 18.7542 6.2229 19.3505L6.24702 19.375C6.29526 19.424 6.3435 19.473 6.3837 19.5302C6.48822 19.6527 6.60078 19.7834 6.7455 19.8651C6.9867 20.0121 7.28417 20.1918 7.58165 20.1999C8.659 20.2244 9.74439 20.2163 10.8057 20.2163C11.1755 20.2163 11.5453 20.2163 11.9152 20.2163H12.4699V24.9047H8.83588C8.40172 23.0097 7.46105 22.0541 5.95759 21.9969C5.30635 21.9561 4.7114 22.1358 4.16468 22.5197ZM8.10425 19.0564C7.52537 19.0809 7.26005 18.7869 6.92238 18.4111C6.89022 18.3785 6.85806 18.3376 6.8259 18.305C8.7796 17.5617 10.6368 17.2268 12.486 17.284V19.0319C12.0679 19.0319 11.6499 19.0237 11.2398 19.0237C10.1625 19.0156 9.1414 19.0074 8.10425 19.0564Z" fill="#00828C"></path><path d="M16.9802 20.543H14.9541V21.6293H16.9802V20.543Z" fill="#00828C"></path><path d="M25.9531 2.8099C24.2084 0.678048 21.9331 -0.212267 19.2317 0.0409421C17.7041 0.187967 16.3373 0.784233 15.1554 1.78073C13.2178 3.42251 12.3495 5.53802 12.6309 8.07828C12.8399 9.9651 13.7565 11.5089 15.2037 12.7096C16.281 13.5999 17.5272 14.0981 18.886 14.3268C19.3362 14.4003 19.3362 14.3922 19.3442 14.8659C19.3442 15.356 19.3442 17.9698 19.3442 18.4598H20.6869C20.6869 17.9208 20.6949 15.258 20.6869 14.7189C20.6869 14.4738 20.7593 14.3513 21.0246 14.3187C22.1421 14.1635 23.1954 13.7796 24.1602 13.1751C26.1299 11.9336 27.2877 10.1448 27.4726 7.7924C27.6254 5.93826 27.1269 4.24748 25.9531 2.8099ZM23.726 11.9663C22.4155 12.9383 20.912 13.2731 19.296 13.1016C18.4277 13.0036 17.6076 12.7422 16.8519 12.2848C15.5655 11.5007 14.6891 10.3817 14.2308 8.93592C13.3706 6.21597 14.6087 3.27548 17.1574 1.9686C18.0981 1.48668 19.0066 1.27431 20.1 1.27431C21.6597 1.25798 23.0506 1.75623 24.2084 2.81807C25.334 3.85541 26.0093 5.14596 26.1299 6.71422C26.2907 8.91959 25.4626 10.6757 23.726 11.9663Z" fill="#00828C"></path></g><defs><clipPath id="clip0_2793_8830"><rect width="29" height="28" fill="white"></rect></clipPath></defs></svg>