<svg xmlns="http://www.w3.org/2000/svg" width="38" height="38" viewBox="0 0 38 38" fill="none"><rect width="38" height="38" rx="5" fill="#397abd"></rect><g clip-path="url(#clip0_2011_6054)"><path d="M17.8013 25.0072C16.476 26.3325 14.3183 26.3325 12.993 25.0072C11.6677 23.6818 11.6677 21.5242 12.993 20.1989L15.8223 17.3696C17.0904 16.1015 19.1195 16.0407 20.4555 17.2017C20.577 17.3053 20.6484 17.4554 20.6627 17.6161C20.6734 17.7769 20.6198 17.934 20.5162 18.0519C20.4126 18.1734 20.2626 18.2448 20.1018 18.2555C19.9411 18.2663 19.7839 18.2127 19.666 18.1055C18.7944 17.3482 17.5048 17.3839 16.6725 18.2163L13.8432 21.0455C12.9751 21.9136 12.9751 23.2889 13.8432 24.157C14.7113 25.025 16.0866 25.025 16.9547 24.157L19.7839 21.3277C19.8947 21.2134 20.0483 21.1455 20.209 21.1455C20.3698 21.1455 20.5234 21.2063 20.6377 21.3206C20.752 21.4349 20.8163 21.5885 20.8127 21.7492C20.8092 21.91 20.7449 22.0636 20.6305 22.1743L17.8013 25.0072ZM23.1776 19.6309C21.9094 20.899 19.8804 20.9598 18.5443 19.7988C18.4229 19.6952 18.3514 19.5451 18.3371 19.3844C18.3264 19.2236 18.38 19.0665 18.4836 18.9486C18.5872 18.8271 18.7372 18.7557 18.898 18.745C19.0587 18.7342 19.2159 18.7878 19.3338 18.895C20.2054 19.6523 21.495 19.6166 22.3274 18.7842L25.1566 15.955C26.0247 15.0869 26.0247 13.7116 25.1566 12.8435C24.2886 11.9755 22.9132 11.9755 22.0452 12.8435L19.2159 15.6728C19.1052 15.7871 18.9516 15.855 18.7908 15.855C18.6301 15.855 18.4765 15.7942 18.3621 15.6799C18.2478 15.5656 18.1871 15.412 18.1871 15.2513C18.1871 15.0905 18.255 14.9369 18.3693 14.8262L21.1985 11.9969C22.5239 10.6716 24.6815 10.6716 26.0068 11.9969C27.3321 13.3222 27.3321 15.4799 26.0068 16.8052L23.1776 19.6309Z" fill="white"></path></g><defs><clipPath id="clip0_2011_6054"><rect width="15" height="15" fill="white" transform="translate(12 11)"></rect></clipPath></defs></svg>