<svg xmlns="http://www.w3.org/2000/svg" width="120" height="107" viewBox="0 0 120 107" fill="none"><path d="M54.4592 29.4889H44.743C44.0871 29.4889 43.5527 30.0233 43.5527 30.6791V46.7595C43.5527 47.4153 44.0871 47.9497 44.743 47.9497H54.4592C55.115 47.9497 55.6494 47.4153 55.6494 46.7595V30.6791C55.6494 30.0233 55.115 29.4889 54.4592 29.4889ZM53.269 45.5693H45.9575V31.8694H53.269V45.5693Z" fill="#00828C"></path><path d="M73.3088 29.4889H63.5926C62.9367 29.4889 62.4023 30.0233 62.4023 30.6791V46.7595C62.4023 47.4153 62.9367 47.9497 63.5926 47.9497H73.3088C73.9647 47.9497 74.4991 47.4153 74.4991 46.7595V30.6791C74.4991 30.0233 73.9647 29.4889 73.3088 29.4889ZM72.1186 45.5693H64.8071V31.8694H72.1186V45.5693Z" fill="#00828C"></path><path d="M118.174 0H59.6819H1.21453C0.898751 0 0.582974 0.121453 0.364359 0.340068C0.145743 0.582974 0 0.874461 0 1.19024V105.81C0 106.466 0.534393 107 1.19024 107H118.174C118.83 107 119.364 106.466 119.364 105.81V1.19024C119.364 0.534393 118.83 0 118.174 0ZM45.9821 100.344V76.4667H58.4674V100.344H45.9821ZM60.8722 76.4667H73.3576V100.344H60.8722V76.4667ZM75.7623 101.559V75.2765C75.7623 74.6207 75.2279 74.0863 74.5721 74.0863H44.7918C44.136 74.0863 43.6016 74.6207 43.6016 75.2765V104.644H32.9866V69.884H86.4259V104.644H75.7866V101.559H75.7623ZM2.40477 20.6956H30.5575V24.5821H2.40477V20.6956ZM86.4016 23.5619L60.3378 6.46129C59.9491 6.1941 59.4148 6.1941 59.0261 6.46129L32.9623 23.5376V20.1369L59.6819 2.64767L86.4016 20.1612V23.5619ZM32.9623 62.3296H86.4016V67.4792H32.9623V62.3296ZM32.9623 59.9249V26.4039L59.6819 8.89035L86.4016 26.4039V59.9249H32.9623ZM88.8064 20.6956H116.983V24.5821H88.8064V20.6956ZM116.983 2.40477V18.2908H87.9805L63.6899 2.40477H116.983ZM55.674 2.40477L31.3834 18.2908H2.40477V2.40477H55.674ZM2.40477 26.9625H30.5575V104.62H2.40477V26.9625ZM45.9821 104.62V102.725H73.3576V104.62H45.9821ZM116.959 104.62H88.7821V26.9625H116.959V104.62Z" fill="#00828C"></path><path d="M95.365 90.798H109.696C110.352 90.798 110.887 90.2636 110.887 89.6077V75.2763C110.887 74.6205 110.352 74.0861 109.696 74.0861H95.365C94.7092 74.0861 94.1748 74.6205 94.1748 75.2763V89.6077C94.1748 90.2636 94.7092 90.798 95.365 90.798ZM101.098 88.3932V76.4422H103.988V88.3932H101.098ZM108.506 88.3932H106.369V76.4422H108.506V88.3932ZM96.5553 76.4422H98.6929V88.3932H96.5553V76.4422Z" fill="#00828C"></path><path d="M95.365 54.0706H109.696C110.352 54.0706 110.887 53.5362 110.887 52.8803V38.5489C110.887 37.893 110.352 37.3586 109.696 37.3586H95.365C94.7092 37.3586 94.1748 37.893 94.1748 38.5489V52.8803C94.1748 53.5362 94.7092 54.0706 95.365 54.0706ZM96.5553 39.7391H108.506V51.6901H96.5553V39.7391Z" fill="#00828C"></path><path d="M24.0235 74.0624H9.66778C9.01193 74.0624 8.47754 74.5968 8.47754 75.2526V89.5841C8.47754 90.2399 9.01193 90.7743 9.66778 90.7743H23.9992C24.6551 90.7743 25.1895 90.2399 25.1895 89.5841V75.2526C25.1895 74.5968 24.6551 74.0624 23.9992 74.0624H24.0235ZM18.2909 76.4671V88.4181H15.4004V76.4671H18.2909ZM10.8823 76.4671H13.0199V88.4181H10.8823V76.4671ZM22.8333 88.4181H20.6957V76.4671H22.8333V88.4181Z" fill="#00828C"></path><path d="M24.0235 37.335H9.66778C9.01193 37.335 8.47754 37.8694 8.47754 38.5252V52.8566C8.47754 53.5125 9.01193 54.0469 9.66778 54.0469H23.9992C24.6551 54.0469 25.1895 53.5125 25.1895 52.8566V38.5252C25.1895 37.8694 24.6551 37.335 23.9992 37.335H24.0235ZM22.8333 51.6664H10.8823V39.7154H22.8333V51.6664Z" fill="#00828C"></path></svg>