<svg xmlns="http://www.w3.org/2000/svg" width="108" height="100" viewBox="0 0 108 100" fill="none"><g clip-path="url(#clip0_2011_8516)"><path d="M85.582 99.0162H21.5332V8.8548C21.5332 8.8548 28.2979 0.983887 53.5478 0.983887C78.7976 0.983887 85.5623 8.8548 85.5623 8.8548V99.0162H85.582Z" stroke="#00818E" stroke-width="2.5" stroke-linecap="round" stroke-linejoin="round"></path><path d="M85.5821 33.0185C85.5821 33.0185 78.8174 25.1476 53.5676 25.1476C28.3177 25.1476 21.553 33.0185 21.553 33.0185L9.16406 27.8827V98.2094" stroke="#00818E" stroke-width="2.5" stroke-linecap="round" stroke-linejoin="round"></path><path d="M21.5332 46.3793C21.5332 46.3793 28.2979 39.9252 53.5478 39.9252C78.7976 39.9252 85.5623 46.3793 85.5623 46.3793" stroke="#00818E" stroke-width="2.5" stroke-linecap="round" stroke-linejoin="round"></path><path d="M21.5332 63.3609C21.5332 63.3609 28.2979 57.3987 53.5478 57.3987C78.7976 57.3987 85.5623 63.3609 85.5623 63.3609" stroke="#00818E" stroke-width="2.5" stroke-linecap="round" stroke-linejoin="round"></path><path d="M21.5332 76.1314C21.5332 76.1314 28.2979 71.0547 53.5478 71.0547C78.7976 71.0547 85.5623 76.1314 85.5623 76.1314" stroke="#00818E" stroke-width="2.5" stroke-linecap="round" stroke-linejoin="round"></path><path d="M53.5479 25.1476V71.0547" stroke="#00818E" stroke-width="2.5" stroke-linecap="round" stroke-linejoin="round"></path><path d="M69.2412 26.4463V99.0161" stroke="#00818E" stroke-width="2.5" stroke-linecap="round" stroke-linejoin="round"></path><path d="M37.8555 26.4463V99.0161" stroke="#00818E" stroke-width="2.5" stroke-linecap="round" stroke-linejoin="round"></path><path d="M79.0342 29.083V99.0161" stroke="#00818E" stroke-width="2.5" stroke-linecap="round" stroke-linejoin="round"></path><path d="M28.082 29.083V99.0161" stroke="#00818E" stroke-width="2.5" stroke-linecap="round" stroke-linejoin="round"></path><path d="M45.0127 72.137V99.0161" stroke="#00818E" stroke-width="2.5" stroke-linecap="round" stroke-linejoin="round"></path><path d="M63.0654 72.137V99.0161" stroke="#00818E" stroke-width="2.5" stroke-linecap="round" stroke-linejoin="round"></path><path d="M9.16402 38.3904H0.983398V99.0161H9.16402V38.3904Z" stroke="#00818E" stroke-width="2.5" stroke-linecap="round" stroke-linejoin="round"></path><path d="M85.3262 33.0184L97.7151 27.9023V98.2093" stroke="#00818E" stroke-width="2.5" stroke-linecap="round" stroke-linejoin="round"></path><path d="M105.895 38.3904H97.7148V99.0161H105.895V38.3904Z" stroke="#00818E" stroke-width="2.5" stroke-linecap="round" stroke-linejoin="round"></path><path d="M59.4865 17.631H47.3729L45.5244 9.32715H62.0233L59.4865 17.631Z" stroke="#00818E" stroke-width="2.5" stroke-linecap="round" stroke-linejoin="round"></path><path d="M49.4773 22.9045C50.6503 22.9045 51.6011 21.953 51.6011 20.7793C51.6011 19.6056 50.6503 18.6542 49.4773 18.6542C48.3044 18.6542 47.3535 19.6056 47.3535 20.7793C47.3535 21.953 48.3044 22.9045 49.4773 22.9045Z" fill="#00818E"></path><path d="M57.6971 22.9045C58.87 22.9045 59.8209 21.953 59.8209 20.7793C59.8209 19.6056 58.87 18.6542 57.6971 18.6542C56.5241 18.6542 55.5732 19.6056 55.5732 20.7793C55.5732 21.953 56.5241 22.9045 57.6971 22.9045Z" fill="#00818E"></path><path d="M45.5245 9.32709L44.3839 5.86389H40.9229" stroke="#00818E" stroke-width="2.5" stroke-linecap="round" stroke-linejoin="round"></path><path d="M0.983398 99.0161H107.017" stroke="#00818E" stroke-width="2.5" stroke-linecap="round" stroke-linejoin="round"></path></g><defs><clipPath id="clip0_2011_8516"><rect width="108" height="100" fill="white"></rect></clipPath></defs></svg>