<svg xmlns="http://www.w3.org/2000/svg" width="56" height="55" viewBox="0 0 56 55" fill="none"><path d="M32.2457 54.4864C32.8952 54.4864 33.5447 54.4864 34.1509 54.4864C34.454 54.4864 34.7138 54.4864 35.0169 54.4864C35.4066 54.4864 35.7963 54.4864 36.186 54.4864C38.1346 54.5297 39.5202 53.6637 40.3862 51.845L40.4295 51.8017H40.5161C40.9924 51.8017 41.4254 51.8017 41.9017 51.8017C42.8976 51.8017 43.8069 51.8017 44.7596 51.8017C48.3535 51.7151 51.4712 49.2037 52.2073 45.8262C52.4671 44.7004 52.4671 43.5313 52.5104 42.4055C52.5104 42.0591 52.5104 41.756 52.5537 41.4096C52.5537 40.89 52.6836 40.5003 53.2465 40.1971C54.8486 39.2445 55.7579 37.8589 55.8445 36.3001C56.0177 33.4422 56.0177 30.8009 55.8878 28.2894C55.8012 26.5141 54.8486 25.0419 53.03 23.9161C52.7269 23.7429 52.5537 23.2666 52.4671 22.9202C52.3372 22.2274 52.2073 21.4912 52.0774 20.7984C51.8609 19.4994 51.6444 18.1571 51.2547 16.9447C47.4009 5.08027 35.32 -1.97775 23.0226 0.490394C12.1974 2.69873 4.18679 11.9218 3.49398 22.9635C3.45068 23.3532 3.14757 23.7862 2.84447 24.0027C1.11244 25.1285 0.246427 26.4275 0.159826 27.9863C0.0299234 30.4978 -0.056678 33.2257 0.116525 35.9537C0.289728 38.3785 1.71865 40.0672 4.23009 40.8467C5.61572 41.2364 6.87144 41.0632 7.86735 40.327C8.81997 39.5909 9.33958 38.4218 9.29628 37.1228C9.25298 34.4815 9.25297 31.7968 9.25297 29.1988C9.25297 28.506 9.25297 27.8131 9.25297 27.1203C9.25297 25.778 8.86327 24.7821 7.99725 24.1326C7.60755 23.8295 7.17454 23.613 6.69823 23.3965C6.48173 23.3099 6.26523 23.18 6.04872 23.0934L6.00542 23.0501V22.9635C6.26523 13.0476 15.0986 2.43893 27.9156 2.43893H27.9589C40.7326 2.48223 49.5226 13.1342 49.7391 23.0501V23.1367H49.6525C47.6174 23.6563 46.5782 24.7821 46.5349 26.4275C46.4483 30.1081 46.4916 33.8319 46.5349 37.4259V37.6857C46.5349 39.028 47.271 40.1105 48.3968 40.457C49.869 40.89 50.0422 41.756 49.9123 43.055C49.869 43.2715 49.869 43.488 49.869 43.6612C49.869 43.8777 49.869 44.0942 49.8257 44.3107C49.5226 47.1253 47.271 49.2037 44.4565 49.2903C43.8935 49.2903 43.3306 49.2903 42.811 49.2903C42.2048 49.2903 41.5986 49.2903 40.9924 49.2903C40.4728 49.2903 40.1697 49.1171 39.9532 48.6841C39.2171 47.3418 38.0479 46.6057 36.4891 46.6057H36.4025C34.9736 46.6057 33.5447 46.5624 32.1158 46.6057C30.0373 46.6923 28.3919 48.4243 28.3919 50.546C28.4785 52.7111 30.1672 54.3998 32.2457 54.4864ZM6.48173 25.9945C6.74153 26.211 6.87144 26.5574 6.87144 27.1636C6.87144 27.2069 6.87144 27.2502 6.87144 27.3368V32.1865C6.87144 32.7061 6.87144 33.2257 6.87144 33.702C6.87144 34.8279 6.87144 35.997 6.87144 37.1661C6.87144 37.7723 6.74153 38.162 6.43843 38.4218C6.26523 38.595 6.00542 38.6383 5.65902 38.6383C5.48581 38.6383 5.26931 38.595 5.05281 38.5517C3.53728 38.2486 2.49806 36.9496 2.49806 35.3908C2.45476 33.0525 2.45476 30.9741 2.49806 28.9823C2.54136 27.3368 3.71048 25.9512 5.26931 25.8213C5.87552 25.6914 6.22193 25.778 6.48173 25.9945ZM49.5226 38.2919C49.2628 38.0754 49.0896 37.6857 49.0896 37.0795C49.0896 35.9104 49.0896 34.7413 49.0896 33.5721C49.0896 33.0958 49.0896 32.5762 49.0896 32.0999C49.0896 31.5803 49.0896 31.104 49.0896 30.5844C49.0896 29.4586 49.0896 28.2462 49.0896 27.077C49.0896 26.5141 49.2195 26.1244 49.4793 25.9079C49.7391 25.6914 50.1288 25.6048 50.7351 25.6914C52.2506 25.8646 53.4197 27.2069 53.463 28.8091C53.5063 30.9308 53.5063 33.0958 53.463 35.3042C53.4197 36.9063 52.3805 38.162 50.865 38.4218C50.6485 38.4651 50.4753 38.4651 50.3454 38.4651C49.9556 38.5517 49.6958 38.4651 49.5226 38.2919ZM32.4189 49.1171C33.8478 49.0738 35.2767 49.0738 36.619 49.1171C37.4417 49.1171 38.0913 49.7666 38.0913 50.5893C38.0913 51.412 37.485 51.9749 36.619 52.0182C36.1427 52.0182 35.6231 52.0182 35.1468 52.0182C34.9303 52.0182 34.7138 52.0182 34.4973 52.0182C34.2808 52.0182 34.0643 52.0182 33.8478 52.0182C33.6313 52.0182 33.4581 52.0182 33.2416 52.0182C32.9818 52.0182 32.722 52.0182 32.4622 52.0182C31.5961 51.9749 30.9899 51.3687 30.9899 50.546C30.9466 49.7233 31.5961 49.1171 32.4189 49.1171Z" fill="#00828C"></path><path d="M21.1166 41.2796C22.1992 41.7559 23.2384 41.4961 24.2343 40.5435C24.7106 40.0672 25.1869 39.5909 25.6632 39.1146C26.6158 38.162 27.5685 37.2093 28.5644 36.2567C28.8675 35.9536 29.4304 35.7371 29.8634 35.7371C31.3356 35.6938 32.8511 35.6938 34.2801 35.6938C34.9729 35.6938 35.6224 35.6938 36.3152 35.6938C39.9092 35.6938 42.2041 33.3556 42.2474 29.7616C42.2474 26.5141 42.2474 23.0067 42.2474 18.9364C42.2474 15.2559 39.9525 12.9609 36.2719 12.9609C34.9729 12.9609 33.6739 12.9609 32.3748 12.9609C28.3479 12.9609 24.191 12.9609 19.7743 12.9609C16.0938 12.9609 13.7988 15.2992 13.7988 18.9797C13.7988 22.5737 13.7988 26.1677 13.7988 29.5018C13.7988 33.1391 15.7907 35.3041 19.5145 35.6938H19.6011V35.7804C19.6011 36.0835 19.6011 36.3433 19.6011 36.6464C19.6011 37.2959 19.6011 37.8588 19.6011 38.5084C19.4712 39.894 20.0341 40.76 21.1166 41.2796ZM16.1804 28.8523V25.9078C16.1804 23.6129 16.1804 21.318 16.1804 19.023C16.1804 16.6848 17.3495 15.5157 19.6877 15.5157C25.7065 15.5157 31.1624 15.5157 36.3152 15.5157C38.5235 15.5157 39.736 16.7281 39.7793 18.8931C39.7793 22.6603 39.7793 26.3409 39.7793 29.8915C39.7793 32.0133 38.5235 33.269 36.4018 33.269C35.5791 33.269 34.7997 33.269 33.977 33.269C32.3315 33.269 30.6428 33.269 28.9974 33.3123C28.4778 33.3123 27.8716 33.5721 27.5252 33.9185C26.3993 34.9577 25.3168 36.0402 24.2776 37.0794C23.8446 37.5124 23.4116 37.9454 23.0219 38.3785C22.892 38.5084 22.7621 38.6383 22.5456 38.8115C22.459 38.8981 22.3291 38.9847 22.1992 39.1146L21.9827 39.2445V38.9847C21.9827 38.5084 21.9827 38.032 21.9827 37.5557C21.9827 36.5598 21.9827 35.6505 21.9827 34.7412C21.9827 33.7453 21.5064 33.269 20.5104 33.269C16.9598 33.1824 16.1804 32.3597 16.1804 28.8523Z" fill="#00828C"></path><path d="M27.9596 22.7041C26.9204 22.7041 26.141 23.4835 26.0977 24.5227C26.0977 25.0423 26.2709 25.5186 26.6173 25.8651C26.9637 26.2115 27.44 26.428 27.9163 26.428C27.9163 26.428 27.9163 26.428 27.9596 26.428C28.4792 26.428 28.9122 26.2548 29.2586 25.9084C29.605 25.5619 29.8215 25.0856 29.8215 24.6093C29.8215 24.0897 29.6483 23.6134 29.3019 23.267C28.9555 22.9206 28.4792 22.7041 27.9596 22.7041Z" fill="#00828C"></path><path d="M20.1212 25.908C20.4676 26.2544 20.9439 26.4709 21.4635 26.4709C21.9831 26.4709 22.4594 26.2544 22.8058 25.908C23.1522 25.5616 23.3254 25.0853 23.3254 24.5657C23.3254 23.5698 22.5027 22.7471 21.5068 22.7471C21.5068 22.7471 21.5068 22.7471 21.4635 22.7471C20.9439 22.7471 20.5109 22.9203 20.1645 23.2667C19.8181 23.6131 19.6016 24.0894 19.6016 24.5657C19.6016 25.0853 19.7748 25.5616 20.1212 25.908Z" fill="#00828C"></path><path d="M34.4104 26.428C34.93 26.428 35.4063 26.2548 35.7528 25.9084C36.0992 25.5619 36.3157 25.1289 36.3157 24.6093C36.3157 24.0897 36.1425 23.6134 35.7961 23.267C35.4496 22.9206 34.9733 22.7041 34.497 22.7041C34.497 22.7041 34.497 22.7041 34.4537 22.7041C33.9341 22.7041 33.5011 22.8773 33.1547 23.2237C32.8083 23.5701 32.5918 24.0464 32.5918 24.5227C32.5918 25.5619 33.4145 26.3847 34.4104 26.428Z" fill="#00828C"></path></svg>