<svg xmlns="http://www.w3.org/2000/svg" width="40" height="24" viewBox="0 0 40 24" fill="none"><g clip-path="url(#clip0_2789_8754)"><path d="M30.918 10.7903C28.138 7.78027 27.1705 6.75027 24.0905 4.05027C11.3005 3.82027 5.60051 2.03027 3.77051 1.28027V10.3103C3.77051 10.5803 3.99051 10.7903 4.25051 10.7903H12.2105C12.8905 10.7903 13.5505 10.6003 14.1305 10.2403C15.5305 9.38027 18.0505 8.49027 18.9205 8.74027C20.5105 9.19027 21.7105 11.6503 22.3505 12.9603C22.5805 13.4203 22.9005 13.8303 23.3005 14.1603L25.5 16L30.918 10.7903Z" stroke="#00808D" stroke-linejoin="round"></path><path d="M3.77012 2.69977V2.00977H1.04012C0.670117 2.00977 0.370117 2.30977 0.370117 2.67977L1.14012 8.66977C1.14012 9.03977 1.44012 9.33977 1.81012 9.33977H3.77012V2.55977" stroke="#00808D" stroke-linejoin="round"></path><path d="M24.0305 4.01007C22.4305 2.75007 20.9305 1.74007 19.7905 1.32007C16.4805 0.120065 6.55051 0.370065 4.25051 0.450065C3.98051 0.450065 3.77051 0.670065 3.77051 0.930065V1.21007" stroke="#00808D" stroke-linejoin="round"></path><path d="M30.4683 12.2351L27.4053 15.3379L28.8286 16.7429L31.8916 13.6401L30.4683 12.2351Z" stroke="#00808D" stroke-linejoin="round"></path><path d="M35.9191 18.7091L31.3444 14.187L29.3685 16.1875L33.9533 20.7104" stroke="#00808D" stroke-linejoin="round"></path><path d="M6.85961 9.03037C6.85961 9.03037 6.83961 9.03037 6.82961 9.03037C6.76961 9.02037 6.71961 8.96037 6.71961 8.90037L6.68961 7.29037H5.92961C5.87961 7.29037 5.83961 7.27037 5.80961 7.23037C5.77961 7.19037 5.77961 7.14037 5.80961 7.10037L7.01961 4.52037C7.04961 4.46037 7.10961 4.43037 7.17961 4.44037C7.23961 4.45037 7.28961 4.51037 7.28961 4.58037L7.25961 6.40037H7.96961C7.96961 6.40037 8.05961 6.43037 8.08961 6.47037C8.11961 6.51037 8.11961 6.56037 8.08961 6.60037L6.98961 8.97037C6.96961 9.02037 6.91961 9.05037 6.85961 9.05037V9.03037Z" fill="#00808D"></path></g><defs><clipPath id="clip0_2789_8754"><rect width="39.03" height="23.18" fill="white"></rect></clipPath></defs></svg>