<svg xmlns="http://www.w3.org/2000/svg" width="73" height="71" viewBox="0 0 73 71" fill="none"><path d="M60.3251 67.6247C60.3251 68.1624 60.2759 68.6023 60.3744 69.0422C60.4728 69.5798 60.7189 70.2641 61.0141 70.4107C61.4571 70.6062 62.2445 70.4596 62.6382 70.1664C66.0339 67.5759 69.282 64.9854 72.038 62.7859C72.5301 62.3949 72.7762 62.0039 72.7762 61.6129C72.7762 61.2218 72.5301 60.8308 71.9887 60.4398C69.1836 58.2403 65.9355 55.601 62.589 53.0593C62.2445 52.7661 61.4571 52.6194 61.1126 52.7661C60.7189 53.0105 60.4236 53.6947 60.3251 54.2324C60.2267 54.6723 60.2759 55.1611 60.2759 55.6987C60.2759 55.9431 60.2759 56.1386 60.2759 56.383V56.5296H47.7265L47.8741 56.3341C52.6971 49.5402 54.1735 42.3553 52.451 34.3883L52.4018 34.1928L52.5986 34.2416C53.829 34.486 54.2227 33.7529 54.6164 32.8731C55.5514 30.6736 55.8959 30.527 58.1598 31.3579C59.0948 31.7 59.7838 31.5534 60.4236 30.8691L60.7681 30.4781C61.5063 29.6472 62.2937 28.8163 63.1795 28.132C64.5575 27.0078 64.8528 25.8836 64.0654 24.4173C63.8193 23.9286 63.7701 23.4887 63.9177 23.0977C64.0654 22.6578 64.4591 22.2667 65.0988 22.0224C65.1973 21.9735 65.2957 21.9246 65.3449 21.9246C65.591 21.8268 65.7878 21.7291 66.0339 21.6313C66.969 21.3381 67.4119 20.7027 67.3627 19.5785V19.2364C67.3135 18.0633 67.2643 16.8903 67.4119 15.7172C67.6087 14.0554 66.969 13.1267 65.3941 12.5891C64.6067 12.2958 64.213 12.0514 64.0162 11.6604C63.8193 11.1716 63.9177 10.634 64.213 9.90082C64.213 9.85195 64.2622 9.75419 64.2622 9.70531C64.3114 9.50981 64.4099 9.3143 64.5083 9.16767C64.9512 8.38563 64.8036 7.70135 64.0162 6.91932C63.8685 6.77269 63.6717 6.57718 63.524 6.43055C62.835 5.79514 62.0968 5.11086 61.5063 4.37771C60.1775 2.76476 58.9472 2.4715 57.3723 3.40016C56.9294 3.64455 56.4865 3.7423 56.0928 3.59567C55.6499 3.44904 55.3054 3.05802 55.0593 2.4715C55.0101 2.37374 54.9609 2.32487 54.9609 2.22711C54.9117 2.08048 54.8132 1.93385 54.764 1.73834C54.4195 0.565288 53.7305 0.125393 52.5002 0.223148C51.073 0.320902 49.5474 0.320902 47.9726 0.223148C46.8406 0.174271 46.2501 0.565288 45.8072 1.68946C44.9213 3.84006 44.5768 3.98669 42.3622 3.15578C41.3287 2.76476 40.6397 2.96027 39.9015 3.7423C39.0649 4.62209 38.0806 5.69739 36.9979 6.62605C35.9152 7.55472 35.7184 8.43451 36.2597 9.70531C36.6042 10.5362 36.7027 11.025 36.555 11.4649C36.3582 11.9048 35.9152 12.2469 35.0294 12.6379C33.9467 13.0778 32.9624 13.5177 33.1593 14.8863V15.0329L33.0116 14.984C20.7575 13.029 11.3577 16.8414 5.15679 26.3235C-1.09332 35.8546 -0.748828 45.9233 6.04264 56.3341L6.19028 56.5296H4.91073C4.17252 56.5296 3.53274 56.5296 2.89297 56.5296C2.00712 56.5296 1.41657 56.7251 1.12129 57.0184C0.924432 57.2139 0.875218 57.5072 0.875218 57.8493C0.973645 58.9246 1.61342 59.1201 2.74533 59.1201H2.79454H3.33589C4.76309 59.1201 6.23949 59.1201 7.66669 59.1201C7.91275 59.1201 8.60174 59.169 9.04466 59.5111C10.4226 60.5376 11.7514 61.564 13.1786 62.6393C13.6707 63.0303 14.1629 63.4213 14.655 63.8123L14.9503 64.0078H10.3242C7.76511 64.0078 5.20601 64.0078 2.59769 64.0078C1.9087 64.0078 1.41656 64.1545 1.17049 64.3988C0.973641 64.5944 0.875218 64.8876 0.875218 65.2786C0.875218 66.1584 1.41656 66.5494 2.6469 66.5494C14.3597 66.5494 26.0725 66.5494 37.7854 66.5494C39.0157 66.5494 39.557 66.1584 39.557 65.2298C39.557 64.8387 39.4586 64.5455 39.2618 64.35C38.9173 64.0078 38.3267 63.9589 37.8346 63.9589C36.9487 63.9589 36.0629 63.9589 35.177 63.9589C32.8148 63.9589 30.3541 64.0078 27.9427 63.9101C26.0725 63.8612 23.9564 63.7634 21.9386 63.3236C16.0822 62.0039 11.0624 58.6802 7.76511 53.988C4.46781 49.2958 3.04061 43.4305 3.7296 37.4187C4.46781 30.918 8.1096 25.0039 13.6707 21.1426C19.2319 17.2813 26.0233 16.0105 32.3719 17.5257C32.7656 17.6234 33.3561 18.2588 33.3069 18.601C33.0609 20.3117 33.7498 21.3381 35.5707 21.9246C36.0137 22.0712 36.3582 22.3156 36.555 22.7066C36.7519 23.0977 36.7519 23.5375 36.6042 24.0263L36.555 24.1241H36.4566C36.4074 24.1241 36.3582 24.1241 36.3582 24.1241C36.2597 24.1241 36.2105 24.1241 36.1613 24.0752C35.8168 23.9286 35.5215 23.8308 35.2263 23.6842C31.2892 21.778 26.9584 21.3381 22.4307 22.4622C12.9817 24.7106 6.6332 34.877 8.84781 44.2126C11.0132 53.4015 18.2476 59.0712 27.6966 59.1201C35.8168 59.1201 44.0847 59.1201 52.0573 59.1201H60.8665C62.9827 59.1201 63.0811 59.0224 63.3764 56.8718L63.4256 56.6763L69.6757 61.6129L62.9827 66.6472V66.4028C62.9335 64.9854 62.835 64.1056 61.5063 64.1056H59.5869C56.7326 64.1056 37.7854 64.1056 34.8818 64.1545C34.4388 64.1545 33.7991 64.5455 33.553 64.9365C33.3561 65.2786 33.3069 65.6208 33.5038 65.914C33.7499 66.3539 34.3896 66.6472 35.177 66.6961C36.8503 66.6961 54.4687 66.6961 56.0928 66.6961C56.6833 66.6961 57.2739 66.6961 57.8645 66.6961C58.209 66.6961 58.5042 66.6961 58.8487 66.6961C59.144 66.6961 59.4393 66.6961 59.7838 66.7449C59.9314 66.7449 60.0791 66.7449 60.2759 66.7938H60.3744V66.8916C60.3252 67.136 60.3251 67.3803 60.3251 67.6247ZM35.62 17.8189C35.6692 17.4768 35.6692 17.0858 35.62 16.6947C35.5215 15.6194 35.866 15.0329 36.8995 14.5442C38.8681 13.5666 39.4094 11.6115 38.5236 8.63002V8.53226L38.5728 8.48339C38.7204 8.38563 38.8188 8.28788 38.9665 8.14125C39.2618 7.89686 39.5078 7.70135 39.7539 7.45697C40.7382 6.43055 41.5748 5.50188 43.3957 6.08841C44.9213 6.57718 46.693 5.59963 47.5296 3.88893C47.9233 3.00915 48.4647 2.71588 49.3013 2.81364C49.695 2.86251 50.0887 2.86251 50.4332 2.81364C51.6636 2.61813 52.451 3.05802 53.0415 4.23107C53.8782 5.8929 55.8959 6.62605 57.766 5.94177C58.7503 5.59963 59.3901 5.74627 59.9806 6.5283C60.1775 6.77269 60.3744 7.01707 60.6696 7.21258C61.6539 7.94574 61.9 8.72777 61.4571 9.90082C60.8173 11.6604 61.7031 13.7132 63.524 14.5442C64.5083 14.984 64.8528 15.6194 64.7051 16.597C64.6559 16.9391 64.6559 17.2813 64.7051 17.5745C64.8528 18.7476 64.4591 19.4319 63.3272 19.9206C61.6539 20.7027 60.8173 22.7066 61.3586 24.5151C61.6539 25.4926 61.5063 26.128 60.7189 26.7146C60.4236 26.9101 60.1775 27.2033 60.0299 27.3988C59.3409 28.2298 58.6519 28.6696 57.2739 28.3275C55.3546 27.7899 53.5829 28.6696 52.6478 30.6247C52.2541 31.4556 51.762 31.7 50.9746 31.6023C50.6301 31.5534 50.2364 31.5534 49.8427 31.6023C49.6458 31.6023 49.4982 31.6512 49.3013 31.6512C48.4647 31.6512 47.7757 31.309 47.2344 30.2337C46.4469 28.5719 44.626 27.9365 42.5098 28.523C41.624 28.7674 40.8858 28.7674 40.2952 27.8876C40.0984 27.5944 39.8031 27.3011 39.5078 27.1056C38.5728 26.4702 38.3759 25.6881 38.7696 24.4662C39.3602 22.6578 38.5236 20.7027 36.8011 19.8718C35.866 19.5296 35.4723 18.8942 35.62 17.8189ZM26.86 56.5785C17.9523 56.5785 10.7179 49.3936 10.7179 40.5957C10.7179 31.8467 17.9031 24.6617 26.8107 24.5151C26.9092 24.5151 26.9584 24.5151 27.0568 24.5151C31.1907 24.5151 35.1278 26.128 38.1298 29.0607C41.2795 32.1399 43.1496 36.3434 43.1496 40.5468C43.1496 44.7502 41.4764 48.7582 38.3759 51.8374C35.2263 54.9167 31.1415 56.5785 26.86 56.5785ZM43.6418 56.5785C42.6083 56.6274 41.624 56.6274 40.5905 56.6274C40.0492 56.6274 39.557 56.6274 39.0157 56.6274C38.4743 56.6274 37.8838 56.6274 37.2932 56.6274H36.8995L37.1456 56.4319C45.7579 49.3936 47.8249 41.0844 43.3957 31.0646L43.2481 30.7225L43.5433 30.8691C43.691 30.9669 43.8878 31.0157 44.0355 31.1135C44.4292 31.2601 44.8229 31.4556 45.069 31.7489C45.315 32.0422 45.5119 32.4332 45.7087 32.8242C45.9548 33.3619 46.2009 33.8506 46.5946 34.095C47.0867 34.3883 47.7757 34.3883 48.5139 34.3883C48.8584 34.3883 49.2521 34.3883 49.5966 34.4372H49.695V34.5349C51.6144 42.5019 49.9411 49.7357 44.7245 55.992C44.5276 56.2364 44.0355 56.5296 43.6418 56.5785Z" fill="#00828C"></path><path d="M29.5174 41.9151L32.667 38.787C33.4545 38.005 34.2419 37.2229 35.0293 36.4409C35.4722 36.001 35.6691 35.61 35.6691 35.2678C35.6691 34.9746 35.5214 34.6813 35.2261 34.3881C34.6356 33.8015 33.9466 33.8993 33.2576 34.5836C33.0608 34.7791 32.8639 34.9746 32.667 35.1701C32.5686 35.2678 32.421 35.4145 32.3225 35.5122L24.4484 43.2837L23.3165 42.1595C22.5291 41.3775 21.7416 40.5954 20.9542 39.8623C20.4621 39.3735 20.0684 39.178 19.7239 39.178C19.4286 39.178 19.1825 39.3246 18.9365 39.569C18.6412 39.8623 18.4443 40.1556 18.4443 40.4488C18.4443 40.8398 18.6412 41.2309 19.1333 41.6707C19.7239 42.2573 20.2652 42.7949 20.8558 43.3814C21.6432 44.1635 22.4306 44.9455 23.218 45.7276C24.1531 46.6562 24.6945 46.6562 25.6787 45.7276C26.9583 44.4567 28.2378 43.1859 29.5174 41.9151Z" fill="#00828C"></path><path d="M50.1872 9.26562C50.138 9.26562 50.138 9.26562 50.0888 9.26562C48.0218 9.26562 46.0533 10.0965 44.5277 11.5629C42.9528 13.078 42.1162 15.082 42.1162 17.2326C42.1162 19.3343 42.9528 21.3383 44.4785 22.9024C46.0041 24.4175 48.0218 25.2485 50.0888 25.2485C50.0888 25.2485 50.0888 25.2485 50.138 25.2485C54.518 25.2485 58.1106 21.6804 58.1106 17.3304C58.1106 12.8825 54.6657 9.3145 50.1872 9.26562ZM53.9275 21.0939C52.894 22.1203 51.5652 22.658 50.138 22.658C47.1852 22.658 44.6753 20.2141 44.6753 17.2815C44.6753 14.3488 47.136 11.8561 50.0888 11.8072C51.516 11.8072 52.8448 12.3938 53.8782 13.4202C54.9117 14.4466 55.5023 15.8152 55.5023 17.2326C55.5515 18.6989 54.9609 20.0675 53.9275 21.0939Z" fill="#00828C"></path></svg>