<svg xmlns="http://www.w3.org/2000/svg" width="46" height="48" viewBox="0 0 46 48" fill="none"><path d="M10.884 30.4518C10.2959 28.9594 9.81332 27.7081 9.33077 26.4569C8.74266 24.9493 9.19505 23.5172 10.4467 22.9443C11.653 22.3865 12.965 23.0046 13.3571 24.5875C14.1563 27.7835 15.8301 30.075 18.3635 31.7935C20.535 33.2559 21.4247 35.5925 21.3795 38.4116C21.3493 39.7835 21.3795 40.4016 21.3795 41.7734C22.7065 42.1654 22.7065 42.1654 22.7065 43.7332C22.7065 44.8036 22.7065 45.8589 22.7065 46.9292C22.7065 47.6378 22.4351 47.9996 21.7263 47.9996C17.5945 47.9845 13.4475 47.9845 9.31569 47.9996C8.66726 47.9996 8.38075 47.7131 8.39582 46.9895C8.4109 45.7383 8.39582 44.487 8.39582 43.2358C8.39582 41.9544 8.47122 41.8639 9.72284 41.7282C9.753 39.9041 9.48157 38.894 8.75774 37.2508C8.30535 36.1956 7.77756 35.08 7.03865 34.2659C4.26397 31.2659 2.74092 27.5272 1.64009 23.5021C1.38374 22.5523 1.05199 21.6177 0.765471 20.6679C0.403557 19.4317 0.91627 18.1654 1.91153 17.7131C2.9822 17.2307 4.17349 17.7282 4.65604 18.9644C5.33463 20.7131 5.9529 22.492 6.57117 24.2709C7.41564 26.7131 8.7125 28.7785 10.884 30.4518ZM19.7358 41.7282C19.7358 39.9343 19.766 38.9996 19.7207 37.3111C19.6755 35.6679 18.9818 34.3714 17.8056 33.4217C17.0365 32.7885 16.2373 32.2157 15.4531 31.5976C14.2015 30.6177 13.2666 29.3664 12.7539 27.7383C12.4523 26.8036 12.1507 25.8538 11.7435 24.9644C11.6229 24.693 11.1102 24.4518 10.8387 24.5121C10.6427 24.5574 10.4617 25.1152 10.4165 25.4619C10.3864 25.7031 10.5673 25.9895 10.6729 26.2458C11.5475 28.4468 12.4523 30.6327 13.2817 32.8488C13.4174 33.1956 13.2364 33.693 13.2063 34.1152C12.8293 34.0398 12.3618 34.085 12.0904 33.8438C10.9141 32.8337 9.78316 31.7483 8.65218 30.6629C7.27992 29.3664 6.23942 27.7835 5.53067 25.9443C4.79177 23.9845 4.08301 22.0247 3.35919 20.0498C3.17823 19.5674 3.04251 19.0096 2.43932 19.281C1.83613 19.5523 2.10757 20.0951 2.25837 20.5624C2.6806 21.9192 3.17823 23.2458 3.54014 24.6177C4.38461 27.7684 5.81718 30.4971 7.88311 32.8639C9.39108 34.5976 10.4165 36.678 10.8387 39.075C11.0348 40.1905 11.1403 40.5825 11.2761 41.7131C14.1261 41.7282 16.9008 41.7282 19.7358 41.7282ZM21.1834 43.5976C17.3532 43.5976 13.6134 43.5976 9.9038 43.5976C9.9038 44.5775 9.9038 45.4368 9.9038 46.3413C13.6888 46.3413 17.4135 46.3413 21.1834 46.3413C21.1834 45.3915 21.1834 44.487 21.1834 43.5976Z" fill="#0C8890"></path><path d="M12.6481 7.32642C14.2013 7.94451 15.7093 8.56261 17.2172 9.12039C17.4284 9.19577 17.8204 9.07517 17.9863 8.89426C19.2379 7.58271 20.4594 6.241 21.5451 5.06512C21.2737 4.19075 20.8816 3.45205 20.8665 2.71336C20.8515 2.21587 21.2737 1.59778 21.6808 1.20582C22.6007 0.331449 24.0182 0.436977 24.8928 1.3415C25.8127 2.27617 25.7524 3.51235 24.6515 4.85406C25.9182 6.241 27.185 7.65808 28.4818 9.02994C28.6024 9.16562 28.9945 9.16562 29.2056 9.09024C30.6684 8.54753 32.116 7.95959 33.4883 7.41688C33.443 6.70833 33.2772 6.02994 33.3827 5.39678C33.5637 4.31135 34.5439 3.60281 35.5994 3.60281C36.5796 3.60281 37.59 4.35658 37.8463 5.29125C38.1328 6.31637 37.6955 7.43195 36.7153 7.91436C36.1876 8.18572 35.9614 8.54753 35.7955 9.07517C34.9963 11.6078 34.1518 14.1103 33.3676 16.643C33.2922 16.9144 33.3827 17.3817 33.5788 17.5626C34.6343 18.5576 34.9812 19.5375 34.5589 20.6531C34.1518 21.7686 33.2772 22.3264 31.8144 22.3415C28.0596 22.3566 24.3047 22.3415 20.5348 22.3415C18.5292 22.3415 16.5236 22.3566 14.518 22.3415C12.9949 22.3264 12.1504 21.7837 11.7282 20.5777C11.3361 19.4621 11.6528 18.5576 12.7687 17.5325C12.9346 17.3817 13.0401 16.9897 12.9798 16.7636C12.1354 14.05 11.2607 11.3516 10.371 8.66813C10.2805 8.41185 10.0091 8.18572 9.76784 8.03497C8.48606 7.29627 8.01859 6.09024 8.6067 4.88421C9.13449 3.78371 10.4917 3.28622 11.6377 3.78371C12.8592 4.31135 13.3116 5.56261 12.7989 6.91939C12.7536 7.03999 12.7235 7.11537 12.6481 7.32642ZM12.075 8.83396C12.9497 11.442 13.779 13.8239 14.518 16.236C14.7291 16.9294 15.0156 17.1556 15.7394 17.1405C19.9014 17.1103 24.0634 17.1254 28.2405 17.1254C29.3263 17.1254 30.6684 17.442 31.4224 16.9294C32.1311 16.447 32.2065 15.045 32.5383 14.035C33.0962 12.3616 33.6391 10.6882 34.2423 8.84904C32.5684 9.51235 31.0604 10.0701 29.5826 10.7184C28.6929 11.0953 28.0445 11.035 27.381 10.236C26.054 8.66813 24.6063 7.19075 23.1737 5.63798C21.7412 7.17567 20.3086 8.63798 19.0117 10.1907C18.2879 11.05 17.6395 11.1254 16.6744 10.6882C15.2267 10.0249 13.7338 9.49728 12.075 8.83396ZM23.1737 18.7083C20.2935 18.7083 17.4133 18.7083 14.5481 18.7083C13.8846 18.7083 13.2362 18.8139 13.2513 19.6882C13.2663 20.5475 13.8846 20.6531 14.5632 20.6531C20.2935 20.6531 26.0087 20.6531 31.739 20.6531C31.9803 20.6531 32.3121 20.6832 32.4629 20.5475C32.7343 20.2912 33.051 19.9294 33.0359 19.6129C33.0208 19.3264 32.6589 18.9646 32.3573 18.7988C32.116 18.6631 31.7541 18.7234 31.4374 18.7234C28.6778 18.7083 25.9333 18.7083 23.1737 18.7083ZM24.1992 2.84904C23.6563 2.51738 23.3547 2.17065 23.1285 2.23095C22.8721 2.29125 22.5404 2.68321 22.5102 2.93949C22.4951 3.13547 22.9174 3.52743 23.1587 3.5425C23.4301 3.55758 23.6864 3.22592 24.1992 2.84904ZM10.7782 4.86914C10.4012 5.39678 10.0694 5.65306 10.0694 5.92441C10.0694 6.15055 10.4464 6.58773 10.6274 6.55758C10.8988 6.52743 11.2909 6.22592 11.3512 5.98472C11.3964 5.75858 11.0798 5.442 10.7782 4.86914ZM36.3384 6.1807C36.3384 6.06009 36.3534 5.93949 36.3534 5.81889C36.082 5.62291 35.8106 5.27617 35.5693 5.29125C35.3129 5.3214 34.9812 5.68321 34.9209 5.95457C34.8756 6.12039 35.2677 6.5425 35.509 6.55758C35.7653 6.60281 36.0518 6.33145 36.3384 6.1807Z" fill="#0C8890"></path><path d="M36.7606 41.487C38.0876 41.6528 38.1027 41.6829 38.1178 43.0548C38.1178 44.2156 38.0876 45.3764 38.1329 46.5221C38.163 47.3965 37.8162 47.698 37.0773 47.698C33.0208 47.6829 28.9795 47.6829 24.923 47.698C24.1389 47.698 23.792 47.3513 23.8071 46.4769C23.8222 45.3463 23.8071 44.2307 23.8071 43.1C23.8071 41.8035 23.8976 41.6829 25.1341 41.487C25.1341 40.0397 25.1492 39.3312 25.1341 37.8538C25.0889 35.3965 25.8278 33.4066 27.7429 32.0196C30.3517 30.1201 32.0859 27.4669 33.247 24.286C33.9105 22.4618 35.7201 21.9794 36.8662 23.2608C37.6051 24.09 37.6654 25.085 37.3035 26.1252C36.8209 27.4518 36.2931 28.7483 35.8407 30.1051C37.6051 28.688 39.0376 26.9694 39.8218 24.6628C40.4702 22.7784 41.1337 20.8789 41.8576 19.0247C42.4004 17.6377 43.5616 17.0799 44.6624 17.5774C45.7481 18.0598 46.1553 19.3262 45.6878 20.8035C44.9942 22.9442 44.2703 25.0699 43.6068 27.2257C42.883 29.6076 41.5107 31.492 40.048 33.301C38.3138 35.4417 37.1225 37.1151 36.8511 40.0397C36.7908 40.492 36.7908 40.9593 36.7606 41.487ZM35.2677 41.5925C35.3431 40.7633 35.3884 40.7633 35.4638 40.0247C35.8106 36.9945 37.1074 34.492 38.917 32.2608C40.1988 30.6779 41.4203 29.0498 42.0988 27.0146C42.8227 24.7834 43.5767 22.5674 44.3156 20.3513C44.4814 19.8538 44.6322 19.3262 44.0592 19.0699C43.5013 18.8136 43.2298 19.2809 43.0489 19.7633C42.5211 21.2106 41.933 22.6277 41.4957 24.1051C40.7417 26.6377 39.49 28.7633 37.6805 30.5121C36.6249 31.5372 35.5241 32.502 34.4383 33.5121C34.0463 33.889 33.5939 34.3865 33.1415 33.889C32.9304 33.6478 32.9756 32.9091 33.1264 32.487C34.001 30.1955 34.951 27.9191 35.8558 25.6427C36.0669 25.1302 36.1273 24.5573 35.5392 24.286C34.9661 24.0297 34.6645 24.4216 34.4685 24.9945C33.2621 28.5221 31.3168 31.3714 28.4215 33.4066C27.185 34.2809 26.6119 35.5925 26.6119 37.2056C26.6119 38.7432 26.5969 39.5121 26.5969 41.0498C26.5969 41.2156 26.6572 41.3965 26.7024 41.5774C29.5525 41.5925 32.3573 41.5925 35.2677 41.5925ZM36.5947 43.2508C32.7645 43.2508 29.0549 43.2508 25.3302 43.2508C25.3302 44.2458 25.3302 45.1654 25.3302 46.0548C29.1303 46.0548 32.8399 46.0548 36.5947 46.0548C36.5947 45.09 36.5947 44.2005 36.5947 43.2508Z" fill="#0C8890"></path></svg>