<svg xmlns="http://www.w3.org/2000/svg" width="67" height="61" viewBox="0 0 67 61" fill="none"><path d="M64.5184 12.8543C61.0569 4.06355 51.3648 -0.798386 42.1177 1.26425C38.8045 2.00091 35.887 3.47422 33.2661 5.68419C32.92 5.38953 32.6727 5.19309 32.376 4.99665C27.53 1.21514 21.9916 -0.159951 16.0082 1.11692C8.73905 2.73757 3.64573 7.15751 1.37104 14.2294C-0.903647 21.3013 0.579843 27.7839 5.52482 33.3825C6.06877 33.9718 6.16767 34.4138 5.87097 35.1505C5.07977 37.2622 4.73363 39.4722 4.98088 41.6331C5.22813 43.5975 4.98087 45.169 3.39848 46.5932C2.21168 47.6245 2.40948 49.1469 3.54683 50.1783C7.00831 53.2722 10.5192 56.3662 14.0796 59.411C15.2664 60.4424 16.651 60.3441 17.7389 59.1655C18.4312 58.4288 19.0246 57.6431 19.7169 56.9555C20.0136 56.6609 20.4092 56.5135 20.8048 56.4153C22.7333 56.0224 24.6619 55.6295 26.5904 55.2858C26.9366 55.2366 27.4805 55.2858 27.6783 55.5313C28.7168 56.5135 29.7058 57.5448 30.7442 58.527C32.1782 59.9021 34.1562 59.9021 35.5903 58.527C38.2606 55.8751 40.9803 53.2231 43.6506 50.522C43.6506 50.522 43.6506 50.522 43.7 50.4729C45.8264 48.4103 58.3866 36.0345 60.4141 33.8736C66.1997 27.7839 67.5843 20.6629 64.5184 12.8543ZM20.2114 53.9598C19.4202 53.9598 18.8268 54.1562 18.3323 54.7947C17.5411 55.7278 16.7005 56.6117 15.8104 57.594C12.2994 54.5 8.83796 51.4551 5.27757 48.3121C5.96987 47.5263 6.76107 46.8388 7.30502 46.0039C7.65116 45.5128 7.84896 44.8252 7.75006 44.285C7.05776 39.6195 7.70061 35.3469 10.8159 31.5163C12.7445 29.159 14.4752 26.6052 16.3543 24.1497C17.195 23.0202 18.1345 22.7746 19.0741 23.4131C19.9147 24.0024 20.0631 24.9846 19.3708 26.1141C19.1235 26.507 18.8763 26.949 18.629 27.3419C18.2334 28.0294 18.2334 28.6679 18.8763 29.159C19.5686 29.6501 20.162 29.4537 20.7059 28.8643C22.4366 26.8999 24.2168 24.9355 25.9476 23.0202C27.53 21.2522 29.0629 19.5333 30.6453 17.7654C31.6343 16.6849 32.5244 16.5376 33.365 17.2743C34.1068 17.9618 34.0079 18.944 33.1178 19.9753C30.2992 23.1184 27.4805 26.2615 24.7113 29.4537C24.3652 29.8465 24.1179 30.485 24.2168 30.9761C24.4146 32.0565 25.6509 32.2038 26.4915 31.2707C28.1234 29.5028 29.7058 27.6857 31.3376 25.8686C33.4145 23.5604 35.4419 21.2522 37.5188 18.944C38.4089 17.9127 39.3485 17.8145 40.1891 18.5511C41.0298 19.2878 41.0298 20.2209 40.1397 21.2522C36.5298 25.2793 32.92 29.3554 29.3596 33.3825C29.1124 33.6772 28.7662 33.9718 28.7662 34.2665C28.7662 34.7576 28.964 35.3469 29.3102 35.6416C29.8541 36.1327 30.5464 35.8871 31.0409 35.3469C32.5244 33.6772 34.0573 32.0074 35.5408 30.3376C36.9749 28.717 38.4089 27.1455 39.843 25.5248C40.6836 24.5917 41.6726 24.4935 42.4638 25.181C43.255 25.8686 43.255 26.8508 42.4144 27.7839C39.5463 30.9761 36.6782 34.1683 33.8595 37.4095C33.5134 37.8024 33.2661 38.3426 33.3156 38.8338C33.365 39.1775 33.8595 39.7177 34.2057 39.7669C34.6507 39.816 35.2936 39.5704 35.6397 39.2266C37.2716 37.5078 38.8045 35.7398 40.3375 33.9718C41.0792 33.1369 41.7715 32.3512 42.5133 31.5163C43.255 30.7305 44.244 30.6323 44.9857 31.2707C45.7275 31.9092 45.7769 32.8914 45.0352 33.7263C40.2386 39.1284 35.4914 44.5306 30.5959 49.8836C27.6783 52.7811 24.2168 54.058 20.2114 53.9598ZM58.4361 32.4003C56.4581 34.3647 44.5901 46.1512 42.1177 48.6067C41.7715 48.9505 41.3759 49.3434 41.0298 49.6872C38.7056 51.9954 36.3815 54.3036 34.0573 56.6117C33.6617 57.0046 33.2661 57.3975 32.7222 56.9064C31.6838 55.9242 30.6453 54.8929 29.7058 53.9107C30.6948 52.9776 31.7332 52.1918 32.5738 51.2587C37.321 45.9548 42.0682 40.6508 46.8154 35.3469C48.5461 33.3825 48.2494 30.5341 46.1725 29.0608C45.8264 28.8152 45.4308 28.6188 45.0352 28.3732C46.0242 25.623 45.1341 23.6095 42.6121 22.2835C43.7 19.8771 43.4528 18.0109 41.9199 16.6358C40.3375 15.2116 38.4584 15.1625 36.0353 16.5376C35.9364 16.3903 35.8375 16.2921 35.7386 16.1447C33.9584 13.7383 30.9915 13.591 28.964 15.7518C28.519 16.2429 28.0739 16.7832 27.5794 17.2743C25.7992 19.2878 24.019 21.2522 22.1894 23.2657C22.041 23.1184 21.9916 23.0693 21.9421 22.9711C19.9642 19.7789 16.4532 19.6316 14.228 22.6273C13.1401 24.0515 12.1016 25.5248 11.0137 26.949C9.82695 28.5206 8.68961 30.0921 7.45337 31.7127C3.54683 27.1946 2.06333 22.0871 3.39848 16.4394C4.88197 10.1041 8.88741 5.78241 15.1675 3.91622C21.3487 2.09913 26.986 3.47422 31.8321 7.79594C33.1672 8.9746 33.365 8.9746 34.7002 7.79594C39.299 3.71978 44.6396 2.29557 50.5736 3.818C63.48 7.25573 67.7821 22.922 58.4361 32.4003Z" fill="#00828C"></path></svg>