<svg xmlns="http://www.w3.org/2000/svg" width="55" height="59" viewBox="0 0 55 59" fill="none"><path d="M35.5792 35.983C35.5792 34.3376 35.4926 33.385 34.973 32.8653C34.4967 32.389 33.6307 32.2591 32.1585 32.2591C32.0719 32.2591 31.9853 32.2591 31.8987 32.2591C31.4657 32.2591 31.2492 32.1725 31.076 32.0426C30.9028 31.8694 30.8595 31.6096 30.8595 31.1766C30.9028 27.7992 30.9028 24.3351 30.8595 21.0009C30.8595 19.8751 30.8595 18.706 30.8595 17.5802C30.8595 16.4111 30.8595 15.242 30.8595 14.1161C30.8595 10.782 30.8595 7.36122 30.8595 3.98377C30.8595 2.77135 30.4264 1.86203 29.5604 1.16922C28.4779 0.346508 27.2222 0.216606 26.0098 0.822816C24.754 1.42903 24.1045 2.46824 24.1045 3.94047C24.1045 10.3923 24.1045 16.9307 24.1045 23.2526V30.0508C24.1045 32.2158 24.1045 32.2158 21.9395 32.2591C20.2075 32.3024 19.4281 33.1251 19.3848 34.8572C19.3848 36.1129 19.3848 37.3686 19.3848 38.581V39.8368C19.3848 42.175 20.1209 42.9111 22.5024 42.9111C22.5457 42.9111 22.6323 42.9111 22.6756 42.9111C22.8055 42.9111 22.9354 42.9111 23.0653 42.9111C23.455 42.8678 23.7148 42.9111 23.888 43.041C24.0612 43.2142 24.1478 43.474 24.1478 43.9503C24.1045 46.7216 24.1045 49.5794 24.1478 52.3074C24.1478 53.2167 24.1478 54.1693 24.1478 55.0786V55.1219C24.1478 55.5549 24.1478 55.9879 24.321 56.4209C24.8407 57.8499 26.0964 58.7159 27.5686 58.7159C27.7851 58.7159 28.0016 58.7159 28.2181 58.6726C29.7336 58.4128 30.9028 57.0271 30.9028 55.3817C30.9028 52.8703 30.9028 50.3155 30.9028 47.8041C30.9028 46.8082 30.9028 45.8123 30.9028 44.8596C30.9028 42.8678 30.9028 42.8678 32.8513 42.8245H32.9379C32.9812 42.8245 33.0245 42.8245 33.0678 42.8245C34.8431 42.7379 35.6658 41.9152 35.6658 40.1399C35.6658 39.1439 35.6658 38.148 35.6658 37.1521C35.5792 36.8057 35.5792 36.3727 35.5792 35.983ZM21.4199 35.1603C21.4199 34.8139 21.4632 34.5974 21.5931 34.4242C21.723 34.2943 21.9395 34.251 22.2859 34.251C25.5768 34.2943 28.9542 34.2943 32.6348 34.251C33.0245 34.251 33.241 34.2943 33.3709 34.4675C33.5008 34.5974 33.5441 34.8139 33.5441 35.1603C33.5008 36.849 33.5008 38.4078 33.5441 39.8801C33.5441 40.2698 33.5008 40.4863 33.3709 40.6162C33.241 40.7461 32.9812 40.8327 32.6348 40.7894C31.8987 40.7894 31.1626 40.7461 30.4697 40.7461C29.9501 40.7461 29.4738 40.7461 28.9975 40.7461C28.0016 40.7461 27.049 40.7461 26.0531 40.7461C24.884 40.7461 23.6282 40.7461 22.4158 40.7461C22.0261 40.7461 21.7663 40.7028 21.6364 40.5296C21.5065 40.3997 21.4199 40.1832 21.4632 39.8368C21.4632 38.5377 21.4632 37.0655 21.4199 35.1603ZM26.1397 21.1741C26.1397 20.005 26.1397 18.8792 26.1397 17.7101V15.5451C26.1397 11.9078 26.1397 8.31384 26.1397 4.67658C26.1397 4.58998 26.1397 4.54668 26.1397 4.46008C26.1397 4.20027 26.1397 3.94047 26.183 3.68066C26.2696 2.94455 26.7892 2.46824 27.5253 2.46824C28.2614 2.46824 28.7377 2.94455 28.8243 3.72396C28.8676 3.94047 28.8676 4.11367 28.8243 4.33017V4.46008C28.8243 13.3367 28.8243 22.2134 28.8243 31.09C28.8243 32.2158 28.8243 32.2158 27.6552 32.2591C27.6119 32.2591 27.5253 32.2591 27.482 32.2591C27.3521 32.2591 27.2222 32.2591 27.0923 32.2591C26.7026 32.3024 26.4861 32.2591 26.3129 32.1292C26.1397 31.956 26.0531 31.6962 26.0531 31.2632C26.1397 27.8858 26.1397 24.465 26.1397 21.1741ZM28.8676 51.8311C28.8676 52.6971 28.8676 53.6064 28.8676 54.4724C28.8676 54.559 28.8676 54.6023 28.8676 54.6889C28.8676 54.9054 28.8676 55.1652 28.8676 55.3817C28.8243 56.2044 28.3047 56.724 27.5686 56.724C27.1789 56.724 26.8325 56.5941 26.5727 56.3776C26.3129 56.1178 26.183 55.7714 26.183 55.3817C26.1397 53.9528 26.183 52.5239 26.183 51.1382C26.183 50.5753 26.183 49.9691 26.183 49.4062V49.3629C26.183 48.8433 26.183 48.3237 26.183 47.8474C26.183 46.5484 26.183 45.206 26.183 43.907C26.183 43.5173 26.2263 43.3008 26.3995 43.1276C26.5294 42.9977 26.7459 42.9111 27.0923 42.9111H27.1356C27.2655 42.9111 27.3954 42.9111 27.482 42.9111C28.2614 42.9111 28.6511 42.9111 28.8243 43.0843C28.9542 43.2142 28.9542 43.5173 28.9542 44.0802C28.9542 44.2534 28.9542 44.4699 28.9542 44.6864C28.8676 47.068 28.8676 49.4928 28.8676 51.8311Z" fill="#00828C"></path><path d="M14.1466 16.3246C12.1981 16.2813 12.1981 16.2813 12.1981 14.3328C12.1981 13.3369 12.1981 12.2977 12.1981 11.3017C12.1981 8.8769 12.1981 6.36546 12.1981 3.89732C12.1981 2.9447 11.8517 2.03539 11.2022 1.42918C10.5959 0.822968 9.72993 0.476562 8.77732 0.476562H8.73401C6.78548 0.476562 5.44316 1.86219 5.44316 3.89732C5.44316 4.76333 5.44316 5.67265 5.44316 6.53866C5.44316 7.10157 5.44316 7.66448 5.44316 8.22739C5.44316 8.747 5.52976 9.35321 6.39578 9.39651H6.43907C7.04528 9.39651 7.34839 9.0501 7.43499 8.31399C7.47829 8.05419 7.47829 7.75108 7.47829 7.49128C7.47829 7.40468 7.47829 7.31807 7.47829 7.23147C7.47829 6.84177 7.47829 6.49536 7.47829 6.10565C7.47829 5.32624 7.47829 4.54683 7.52159 3.76742C7.52159 3.11791 7.9113 2.6416 8.51751 2.5117C9.12372 2.38179 9.64333 2.555 9.94643 3.07461C10.2062 3.46431 10.2062 3.89732 10.2062 4.33033V4.37363C10.2062 5.49944 10.2062 6.62526 10.2062 7.75108C10.2062 9.95942 10.2062 12.2544 10.2062 14.506C10.2062 14.7658 10.2062 15.0256 10.2062 15.1988C10.2062 15.7184 10.2062 15.9782 10.0763 16.1081C9.90313 16.2813 9.51343 16.2813 8.64741 16.2813H8.30101C7.9979 16.2813 7.7814 16.238 7.65149 16.1081C7.52159 15.9782 7.47829 15.7617 7.47829 15.4586C7.52159 14.3328 7.47829 13.4235 7.43499 12.5575C7.43499 12.1678 7.30509 11.8647 7.08858 11.6914C6.91538 11.5182 6.65558 11.4749 6.35247 11.4749C5.78956 11.5182 5.44316 11.908 5.48646 12.6008C5.48646 12.9472 5.48646 13.2936 5.48646 13.64C5.48646 14.2462 5.48646 14.8957 5.48646 15.5019C5.48646 15.805 5.44316 16.0215 5.31326 16.1514C5.18336 16.2813 4.96685 16.3246 4.70704 16.3246C4.05753 16.2813 3.53792 16.3246 3.06162 16.3679C1.50279 16.4978 0.809984 17.3205 0.766684 18.8361C0.766684 19.3557 0.766684 19.9186 0.766684 20.4382C0.766684 21.3475 0.766681 22.3434 0.72338 23.2527C0.636779 24.6817 0.72338 25.7209 1.37289 26.3704C1.9358 26.89 2.80181 27.0632 4.40394 26.9766C4.79365 26.9333 5.05345 27.0199 5.22665 27.1498C5.39985 27.323 5.48646 27.5828 5.44316 28.0591C5.39985 31.5232 5.39985 35.0305 5.44316 38.408C5.44316 39.5338 5.44316 40.6163 5.44316 41.7421C5.44316 43.1278 5.44316 44.5567 5.44316 45.9423C5.44316 49.06 5.44316 52.2642 5.44316 55.4252C5.44316 56.3778 5.78957 57.2005 6.39578 57.8067C7.00199 58.4129 7.868 58.7593 8.82061 58.7593H8.86392C10.8557 58.7593 12.1981 57.2438 12.1981 55.0355C12.1981 48.627 12.1981 42.2184 12.1981 35.8099V29.0983C12.1981 26.9766 12.1981 26.9766 14.2765 26.9766C16.0518 26.9766 16.8745 26.1106 16.9178 24.3786C16.9178 22.6465 16.9178 20.8279 16.9178 19.1392C16.8745 17.1906 16.0518 16.3679 14.1466 16.3246ZM10.1629 31.2634C10.1629 31.7397 10.1629 32.216 10.1629 32.7356V41.5256V44.5567C10.1629 47.9341 10.1629 51.2683 10.1629 54.6457V54.6891C10.1629 55.0788 10.1629 55.4685 10.0763 55.8149C9.90313 56.4644 9.42682 56.8108 8.69071 56.7242C8.0412 56.6809 7.65149 56.2912 7.52159 55.6417C7.47829 55.3819 7.47829 55.0788 7.47829 54.7757V54.6457C7.47829 45.8124 7.47829 37.0224 7.47829 28.189C7.47829 26.9766 7.47829 26.9766 8.64741 26.9766C8.73401 26.9766 8.82061 26.9766 8.90721 26.9766C9.08042 26.9766 9.25362 26.9766 9.47012 26.9766C9.72993 26.9766 9.90313 27.0199 10.033 27.1065C10.1629 27.2364 10.2062 27.4096 10.2062 27.7127C10.1629 28.9251 10.1629 30.0942 10.1629 31.2634ZM14.7528 24.2487C14.7528 24.5085 14.7095 24.6817 14.5796 24.8116C14.4497 24.9415 14.2765 24.9848 13.9734 24.9848C12.7177 24.9848 11.4187 24.9848 10.2062 24.9848C9.72993 24.9848 9.21032 24.9848 8.73401 24.9848C8.2144 24.9848 7.7381 24.9848 7.21849 24.9848C6.00607 24.9848 4.79365 24.9848 3.58123 24.9848C3.27813 24.9848 3.06162 24.9415 2.93172 24.8116C2.80182 24.6817 2.75851 24.4652 2.75851 24.1188C2.80181 22.6032 2.80181 21.0011 2.75851 19.2258C2.75851 18.9227 2.80182 18.7495 2.93172 18.6196C3.06162 18.4897 3.23482 18.4464 3.53793 18.4464C6.87208 18.4464 10.3794 18.4464 13.9734 18.4464C14.2765 18.4464 14.4497 18.4897 14.5796 18.6196C14.7095 18.7495 14.7528 18.966 14.7528 19.2258C14.7528 20.7846 14.7528 22.43 14.7528 24.2487Z" fill="#00828C"></path><path d="M53.6369 16.9743C53.0307 16.3681 51.9915 16.2815 50.6492 16.3248C50.2162 16.3248 49.9564 16.2815 49.7832 16.1083C49.61 15.9351 49.5667 15.6753 49.5667 15.2423C49.61 12.7742 49.61 10.306 49.61 7.88119C49.61 6.58217 49.61 5.28315 49.61 3.98413C49.61 3.42122 49.5667 2.6851 49.177 2.03559C48.3976 0.736572 46.8387 0.130362 45.3232 0.520069C43.8943 0.909775 42.8551 2.2521 42.8551 3.81092C42.8551 6.27906 42.8551 8.83381 42.8551 11.2586C42.8551 12.2546 42.8551 13.2505 42.8551 14.2031C42.8551 16.1949 42.8551 16.1949 40.8632 16.2382H40.8199H40.7766C39.0013 16.3248 38.1786 17.1475 38.1786 18.9229C38.1786 19.4858 38.1786 20.0054 38.1786 20.5683C38.1786 21.4776 38.1786 22.3869 38.1786 23.2962C38.092 24.8984 38.3085 25.7644 38.8714 26.3273C39.4343 26.8469 40.3436 27.0634 41.7725 26.9335C42.2056 26.8902 42.4654 26.9335 42.6386 27.1067C42.8118 27.2799 42.8984 27.5397 42.8984 28.0593C42.8551 31.3935 42.8551 34.8142 42.8551 38.1051C42.8551 39.2742 42.8551 40.4433 42.8551 41.5691C42.8551 42.9115 42.8551 44.2971 42.8551 45.6394C42.8551 48.7571 42.8551 51.918 42.8551 55.079C42.8551 57.244 44.2407 58.7162 46.2325 58.7162C48.311 58.7162 49.5667 57.3306 49.5667 55.079C49.5667 51.3984 49.5667 47.6745 49.5667 43.994V41.6557V41.5258C49.5667 41.3093 49.5667 41.0495 49.5234 40.833C49.4368 40.3567 49.177 40.0536 48.7007 40.0103C48.181 39.967 47.8346 40.1835 47.6614 40.6598C47.5315 41.0495 47.5315 41.4392 47.5315 41.8289V41.9588V46.2889C47.5315 49.0169 47.5315 51.7448 47.5315 54.4728V54.646C47.5315 54.9491 47.5315 55.2522 47.4882 55.5553C47.4016 56.2481 46.9686 56.6378 46.2758 56.6811C45.5397 56.7244 45.0634 56.378 44.8902 55.6419C44.8036 55.3388 44.8036 54.9924 44.8036 54.6893C44.8036 54.6027 44.8036 54.5594 44.8036 54.4728V53.9531C44.8036 45.6394 44.8036 37.0659 44.8036 28.6222C44.8036 28.4057 44.8036 28.2325 44.8036 28.0593C44.8036 26.9768 44.8036 26.9768 45.9727 26.9335C46.1459 26.9335 46.3191 26.9335 46.4923 26.9335C46.9253 26.9335 47.1418 26.9768 47.315 27.15C47.4882 27.3232 47.5315 27.5397 47.5315 27.9727C47.4882 30.9172 47.5315 33.9482 47.5315 36.5896C47.5315 37.1525 47.6614 37.4989 47.8779 37.7154C48.0511 37.8886 48.311 37.9752 48.6141 37.9319C49.4368 37.8886 49.5234 37.2391 49.5234 36.5463C49.5234 34.7276 49.5234 32.8657 49.5234 31.0904C49.5234 30.3976 49.5234 29.7047 49.5234 29.0552C49.5234 26.9768 49.5234 26.9768 51.5585 26.9768H51.6884C51.775 26.9768 51.8616 26.9768 51.9482 26.9768C53.4204 26.9335 54.2432 26.1108 54.2432 24.6386C54.2432 24.0324 54.2432 23.4694 54.2432 22.8632C54.2432 21.9106 54.1999 20.9147 54.2865 19.9188C54.3731 18.4466 54.1566 17.5372 53.6369 16.9743ZM40.257 19.2693C40.257 18.9662 40.3003 18.7497 40.4302 18.6198C40.5601 18.4899 40.7333 18.4466 41.0364 18.4466C44.5438 18.4466 48.0512 18.4466 51.4719 18.4466C51.775 18.4466 51.9915 18.4899 52.0781 18.6198C52.208 18.7497 52.2513 18.9229 52.2513 19.226C52.208 20.9147 52.208 22.6034 52.2513 24.2056C52.2513 24.4654 52.208 24.6819 52.0781 24.8118C51.9482 24.9417 51.775 24.985 51.4286 24.985C50.1729 24.985 48.8739 24.985 47.6614 24.985C47.1851 24.985 46.6655 24.985 46.1892 24.985H46.1459C45.6696 24.985 45.1933 24.985 44.717 24.985C43.5479 24.985 42.3788 24.985 41.2096 24.985C40.8199 24.985 40.5601 24.9417 40.4302 24.7685C40.3003 24.6386 40.2137 24.3788 40.257 24.0324C40.257 22.3869 40.257 20.7415 40.257 19.2693ZM46.7521 16.3248H46.7088C45.7562 16.3681 45.3232 16.3681 45.0634 16.1516C44.8469 15.9351 44.8469 15.4588 44.8469 14.5495V9.78642V9.74312C44.8469 9.18021 44.8469 8.6173 44.8469 8.05439C44.8469 6.75537 44.8469 5.36975 44.8469 4.02743C44.8469 3.42122 45.1067 2.90161 45.5397 2.6418C45.8861 2.4253 46.3191 2.382 46.7521 2.5985C47.2717 2.81501 47.5315 3.29131 47.5315 3.94082C47.5315 5.23985 47.5315 6.53887 47.5315 7.83789C47.5315 10.3493 47.5315 12.9474 47.5315 15.5021C47.5748 16.1083 47.3583 16.3248 46.7521 16.3248Z" fill="#00828C"></path></svg>