<svg xmlns="http://www.w3.org/2000/svg" width="42" height="48" viewBox="0 0 42 48" fill="none"><path d="M34.5815 19.99C36.2856 19.3417 37.6578 18.3769 38.7436 17.0503C40.4626 14.9548 41.3373 12.4221 41.5936 8.83419C41.6841 7.65831 41.4278 6.73871 40.8547 6.12062C40.2666 5.48745 39.3769 5.17087 38.1856 5.17087C37.6729 5.17087 37.1602 5.17087 36.6324 5.17087H35.8181V5.06534C35.8181 4.94474 35.803 4.85429 35.803 4.76383C35.7879 4.61308 35.7879 4.49248 35.7879 4.38695C35.7427 1.65831 34.8228 0.723633 32.0934 0.723633H17.3152C16.5612 0.723633 15.8223 0.723633 15.0683 0.723633C13.304 0.723633 11.4945 0.723633 9.69996 0.738708C8.05627 0.753784 6.97052 1.70353 6.74432 3.33167C6.69909 3.69348 6.68401 4.07037 6.66893 4.46233C6.66893 4.65831 6.65385 4.85429 6.65385 5.06534V5.17087H6.54829C6.26177 5.17087 5.99034 5.17087 5.7189 5.17087C5.44747 5.17087 5.17603 5.17087 4.91968 5.17087C4.603 5.17087 4.28633 5.17087 3.96966 5.18594C2.19025 5.23117 1.08942 6.15077 0.953706 7.71861C0.863228 8.74373 0.938623 9.90454 1.19498 11.2764C2.05452 15.8744 4.36173 18.7689 8.20706 20.1407C8.46342 20.2312 8.71978 20.4573 8.84041 20.6684C10.4841 24.0302 12.8818 26.8493 16.2144 29.2613C16.8176 29.6985 17.3454 30.6483 17.4057 31.402C17.5113 32.593 17.4962 32.789 17.4811 33.2864C17.466 33.5578 17.4509 33.9196 17.4509 34.5829V34.6583L17.3755 34.6885C15.6715 35.2312 14.7215 36.4372 14.4953 38.3669L14.4802 38.4573H14.3898C14.3144 38.4573 14.2691 38.4724 14.2088 38.4724C14.1032 38.4875 14.0278 38.4875 13.9524 38.4875C11.6603 38.5478 10.6349 39.588 10.6198 41.8794C10.6198 43.402 10.6047 45.0302 10.6198 46.6583C10.6349 47.7136 10.9063 48 11.9167 48C17.9486 48 24.2368 48 30.6005 48C31.6259 48 31.8974 47.7136 31.9124 46.6734C31.9124 46.1307 31.9124 45.588 31.8973 45.0603C31.8823 44.1407 31.8672 43.191 31.9275 42.2563C32.0029 40.9297 31.6561 39.8895 30.9624 39.2261C30.3291 38.6231 29.4243 38.3669 28.3536 38.4875C28.2933 38.4875 28.233 38.4573 28.1727 38.4272C28.1425 38.4121 28.1123 38.397 28.0822 38.3819L28.0219 38.3518V38.2915C27.856 36.4824 26.8909 35.2764 25.1416 34.6734L25.0662 34.6432V34.5679C25.0662 33.9196 25.0813 33.7086 25.0813 33.5729C25.0964 33.392 25.0964 33.3468 25.0511 32.5025C24.9757 30.8895 25.5639 29.6834 26.921 28.7488C29.6655 26.8493 31.837 24.3166 33.5561 21.0151C33.6918 20.5628 34.1442 20.1558 34.5815 19.99ZM34.8831 17.7287C35.803 14.4875 35.7879 11.2613 35.7578 7.83921C35.7578 7.56785 35.7578 7.28142 35.7578 7.01007V6.88946H35.8784C36.1951 6.88946 36.4816 6.88946 36.7832 6.88946C37.4467 6.88946 38.08 6.87439 38.7134 6.90454C39.4372 6.94976 39.9047 7.43218 39.8745 8.11057C39.7539 10.9447 39.3015 14.1709 36.8284 16.598C36.2856 17.1256 35.6371 17.5327 35.0792 17.8643L34.8379 18L34.8831 17.7287ZM7.54355 17.9849C5.29667 16.7488 3.87917 14.9548 3.23075 12.4824C2.95931 11.4272 2.80852 10.3266 2.68788 9.27137C2.65772 8.96986 2.61248 8.68343 2.58232 8.397C2.522 7.97489 2.61247 7.598 2.82359 7.34172C3.01963 7.08544 3.3363 6.94976 3.72837 6.91961C4.36172 6.87439 4.98 6.88946 5.64351 6.88946C5.9451 6.88946 6.24669 6.90454 6.54829 6.90454H6.65385V7.01007C6.65385 7.40202 6.65385 7.77891 6.65385 8.17087C6.65385 11.4875 6.63877 14.6081 7.70943 17.8643L7.79991 18.1357L7.54355 17.9849ZM28.8211 40.206C29.6203 40.206 30.0878 40.6282 30.1029 41.3669C30.133 42.4674 30.1179 43.5528 30.1179 44.6985C30.1179 45.1658 30.1179 45.6332 30.1179 46.1005V46.2211H12.3238V46.1005C12.3238 45.6332 12.3238 45.1658 12.3238 44.6985C12.3238 43.5528 12.3088 42.4674 12.3389 41.3669C12.354 40.6282 12.8215 40.206 13.6056 40.206C18.6724 40.206 23.7995 40.206 28.8211 40.206ZM26.0313 27.1508C23.9503 28.6432 23.0908 30.3618 23.2416 32.7287C23.3019 33.6181 23.2868 33.7086 23.2868 33.9196C23.2717 34.0704 23.2717 34.2814 23.2717 34.9297C23.2717 36.0151 23.3773 36.1357 24.4329 36.3317C25.4734 36.5277 25.9861 37.1307 26.1369 38.2915L26.152 38.4121H16.2597L16.2747 38.2915C16.4406 37.0402 16.9684 36.4674 18.0994 36.3317C18.8534 36.2412 19.17 35.8794 19.155 35.0955C19.1399 34.0704 19.155 33.7387 19.155 33.3468C19.155 33.0151 19.155 32.6382 19.155 31.7638C19.1399 30.0302 18.4161 28.6432 16.9986 27.6633C13.0326 24.9045 10.3936 21.2111 9.17217 16.6885C8.76502 15.1658 8.52374 13.4774 8.41818 11.5327C8.3277 9.67841 8.34278 7.77891 8.37294 5.93971C8.37294 5.29147 8.38802 4.65831 8.38802 4.01007C8.38802 2.84926 8.7801 2.4573 9.92616 2.4573C17.2851 2.4573 24.8853 2.4573 32.4855 2.4573C33.0736 2.4573 33.4656 2.5779 33.7069 2.81911C33.918 3.03017 34.0085 3.33167 34.0085 3.76886C33.9934 4.71861 33.9934 5.71358 33.9934 6.67841C33.9934 9.2563 33.9934 11.9246 33.6768 14.5176C33.0434 19.6282 30.4045 24 26.0313 27.1508Z" fill="#0C8890"></path><path d="M28.2636 13.327C28.5652 12.9953 28.8366 12.4224 28.7461 12.1963C28.5953 11.8797 28.0675 11.6234 27.6001 11.5179C26.6953 11.2918 25.7754 11.2013 24.9913 11.141C24.1317 11.0656 23.6039 10.6737 23.3023 9.85961C23.0007 9.06062 22.5936 8.23147 22.0658 7.3571C21.8698 7.04052 21.4777 6.67871 21.2062 6.67871C20.9197 6.67871 20.4975 7.02544 20.3316 7.32695C20.03 7.85459 19.7586 8.42745 19.4872 8.97017C19.261 9.4375 19.0197 9.91992 18.7784 10.3873C18.6276 10.6586 18.2506 10.93 17.9339 10.9903C17.4363 11.0807 16.9387 11.1561 16.4561 11.2315C15.8831 11.3069 15.295 11.3973 14.722 11.5179C14.2846 11.6234 13.7418 11.8948 13.6513 12.1661C13.5608 12.4375 13.8172 12.9953 14.1037 13.327C14.722 14.0355 15.4156 14.7139 16.1847 15.3471C16.7125 15.7842 16.8784 16.2817 16.7276 17.0053C16.5768 17.7893 16.441 18.5883 16.3204 19.2968C16.2752 19.5832 16.2299 19.8546 16.1847 20.1259C16.1696 20.6234 16.3053 20.9852 16.5617 21.1661C16.818 21.332 17.1649 21.3169 17.5569 21.1209C18.0093 20.9099 18.4467 20.6687 18.884 20.4275C19.4419 20.1259 20.03 19.8094 20.6332 19.538C20.965 19.3873 21.4777 19.3873 21.8396 19.5531C22.3222 19.7641 22.8047 20.0204 23.2571 20.2616C23.7396 20.5179 24.2524 20.7893 24.7651 21.0154C25.1421 21.1812 25.7151 21.2415 25.9262 21.0757C26.1675 20.8948 26.273 20.337 26.2429 19.93C26.1826 19.3571 26.077 18.7692 25.9714 18.2114C25.881 17.729 25.7905 17.2164 25.7302 16.7189C25.6849 16.3571 25.8206 15.8898 26.0468 15.6486C26.3937 15.2566 26.7858 14.8948 27.1477 14.5481C27.4794 14.141 27.9017 13.7491 28.2636 13.327ZM25.9564 13.3722C23.7849 14.5933 23.2571 16.2666 24.3428 18.4827L24.4182 18.6335L23.9357 18.6486L23.9055 18.6335C23.7095 18.528 23.5135 18.4375 23.3174 18.3471C22.865 18.136 22.4126 17.9099 21.9904 17.6385C21.4174 17.2918 20.9499 17.2918 20.3919 17.6234C19.9999 17.8646 19.5776 18.0757 19.0498 18.332C18.7935 18.4526 18.507 18.6033 18.1903 18.7541L17.9189 18.8898L18.0395 18.6033C19.0498 16.0857 18.522 14.4275 16.3656 13.3571L16.2148 13.2817L16.5918 12.935H16.622C16.7879 12.9048 16.9688 12.8747 17.1347 12.8445C17.5117 12.7692 17.9189 12.7089 18.3109 12.6787C19.3213 12.6184 19.8792 12.2415 20.1657 11.4275C20.3015 11.0355 20.4975 10.6737 20.7237 10.2516C20.8293 10.0556 20.9348 9.84454 21.0555 9.61841L21.161 9.42243L21.2666 9.61841C21.3872 9.84454 21.4928 10.0556 21.6134 10.2666C21.8547 10.7189 22.0809 11.141 22.2618 11.5782C22.5182 12.2415 22.9857 12.5732 23.7849 12.6486C24.2373 12.6938 24.6746 12.7541 25.1119 12.8295C25.3079 12.8596 25.504 12.8898 25.6849 12.9048H25.7151L26.0921 13.2365L25.9564 13.3722Z" fill="#0C8890"></path><path d="M23.3619 42.3619C22.0047 42.3468 20.7984 42.3468 19.6523 42.3619C19.0642 42.3619 18.7324 42.6785 18.7324 43.2212C18.7324 43.9297 19.3205 44.0654 19.6674 44.0805C20.1047 44.0956 20.542 44.0956 20.9642 44.0805C21.1452 44.0805 21.3412 44.0805 21.5222 44.0805H21.5373C21.7182 44.0805 21.9142 44.0805 22.0952 44.0805C22.5174 44.0805 22.9547 44.0956 23.377 44.0654C23.7238 44.0503 24.2969 43.9147 24.2969 43.2061C24.2818 42.4825 23.7087 42.3619 23.3619 42.3619Z" fill="#0C8890"></path></svg>