<svg xmlns="http://www.w3.org/2000/svg" width="30" height="30" viewBox="0 0 30 30" fill="none"><path d="M5.315 12.5C5.10519 13.3168 4.99936 14.1567 5 15C5 15.8625 5.11 16.7 5.315 17.5H8.875C8.70647 15.8376 8.70647 14.1624 8.875 12.5H5.315ZM6.3375 10H9.27C9.6025 8.47875 10.0825 7.11625 10.6713 5.9825C8.85647 6.85677 7.34652 8.25654 6.3375 10V10ZM24.685 12.5H21.125C21.2935 14.1624 21.2935 15.8376 21.125 17.5H24.685C25.1058 15.8599 25.1058 14.1401 24.685 12.5ZM23.6625 10C22.6535 8.25654 21.1435 6.85677 19.3288 5.9825C19.9188 7.11625 20.3975 8.47875 20.73 10H23.6625ZM11.39 12.5C11.2963 13.33 11.2496 14.1647 11.25 15C11.25 15.8563 11.2975 16.6938 11.39 17.5H18.61C18.7983 15.8386 18.7983 14.1614 18.61 12.5H11.39ZM11.8375 10H18.1625C17.935 9.06037 17.6069 8.14801 17.1837 7.27875C16.3987 5.71 15.5587 5 15 5C14.44 5 13.6013 5.71 12.8163 7.27875C12.4225 8.06875 12.0912 8.9875 11.8375 10ZM6.3375 20C7.34652 21.7435 8.85647 23.1432 10.6713 24.0175C10.0813 22.8838 9.6025 21.5213 9.27 20H6.3375V20ZM23.6625 20H20.73C20.3975 21.5213 19.9175 22.8838 19.3288 24.0175C21.1435 23.1432 22.6535 21.7435 23.6625 20ZM11.8375 20C12.0912 21.0125 12.4225 21.9313 12.8163 22.7213C13.6013 24.29 14.4413 25 15 25C15.56 25 16.3987 24.29 17.1837 22.7213C17.5775 21.9313 17.9087 21.0125 18.1625 20H11.8375V20ZM15 27.5C8.09625 27.5 2.5 21.9037 2.5 15C2.5 8.09625 8.09625 2.5 15 2.5C21.9037 2.5 27.5 8.09625 27.5 15C27.5 21.9037 21.9037 27.5 15 27.5Z" fill="white"></path></svg>