<svg xmlns="http://www.w3.org/2000/svg" width="77.878" height="77.877" viewBox="0 0 77.878 77.877"><g id="Group_150" data-name="Group 150" transform="translate(-64.733 -108.3)"><g id="Group_149" data-name="Group 149"><g id="Group_148" data-name="Group 148"><g id="Group_24" data-name="Group 24" transform="translate(46 -5)"><g id="Group_16" data-name="Group 16"><path id="Path_21" data-name="Path 21" d="M94.394,155.131l2.217-2.892-2.217-2.892,1.743-3.2-2.64-2.509,1.217-3.435-3-2.064.662-3.582-3.29-1.565.094-3.642-3.494-1.032-.475-3.611-3.614-.477-1.031-3.495-3.644.093-1.565-3.291-3.582.662-2.064-3-3.433,1.219-2.512-2.641-3.2,1.743L57.672,113.3l-2.893,2.216-3.2-1.743-2.511,2.641-3.434-1.219-2.062,3-3.582-.662-1.566,3.291-3.641-.1-1.032,3.495-3.613.477-.476,3.611-3.5,1.034.093,3.64-3.29,1.567.662,3.582-3,2.064,1.218,3.433-2.64,2.511,1.743,3.2-2.217,2.892,2.217,2.892-1.743,3.2,2.64,2.51-1.218,3.432,3,2.064-.663,3.583,3.29,1.564-.092,3.643,3.494,1.034.476,3.611,3.612.475,1.033,3.494,3.641-.093,1.566,3.292,3.583-.663,2.062,3,3.435-1.219L51.58,190.7l3.2-1.743,2.892,2.218,2.892-2.218,3.2,1.743,2.51-2.641,3.434,1.219,2.063-3,3.581.663,1.565-3.29,3.644.093,1.031-3.495,3.614-.474.475-3.613,3.494-1.033-.092-3.642,3.29-1.566-.663-3.583,3-2.061L93.5,160.841l2.641-2.51ZM57.671,184.863A32.625,32.625,0,1,1,90.3,152.238,32.625,32.625,0,0,1,57.671,184.863Z"></path><path id="Path_22" data-name="Path 22" d="M57.671,122.068a30.17,30.17,0,1,0,30.17,30.171A30.2,30.2,0,0,0,57.671,122.068Zm0,58.236a28.066,28.066,0,1,1,28.066-28.065A28.1,28.1,0,0,1,57.671,180.3Z"></path></g><rect id="Rectangle_3" data-name="Rectangle 3" width="68.143" height="14.566" transform="translate(23.469 146.275)" fill="#70bf4a"></rect><g id="Group_22" data-name="Group 22"><g id="Group_17" data-name="Group 17"><path id="Path_23" data-name="Path 23" d="M56.225,129.975a5.847,5.847,0,0,1,.166,1.007c.212,2.6-1.226,4.833-3.212,5-1.519.123-3.015-1.256-3.683-2.956l-1.906-.008,4.157,8.9h5.859V129.975Z" fill="#70bf4a"></path></g><g id="Group_18" data-name="Group 18"><path id="Path_24" data-name="Path 24" d="M58.988,129.975a6.374,6.374,0,0,0-.167,1.007c-.212,2.6,1.227,4.833,3.213,5,1.519.123,3.015-1.256,3.683-2.956l1.906-.008-4.157,8.9h-5.86V129.975Z" transform="translate(-1)" fill="#70bf4a"></path></g><g id="Group_19" data-name="Group 19"><path id="Path_25" data-name="Path 25" d="M49.542,130.98a1.208,1.208,0,1,1-1.208-1.207A1.207,1.207,0,0,1,49.542,130.98Z" fill="#70bf4a"></path></g><g id="Group_20" data-name="Group 20"><path id="Path_26" data-name="Path 26" d="M65.8,130.98a1.207,1.207,0,1,0,1.207-1.207A1.207,1.207,0,0,0,65.8,130.98Z" fill="#70bf4a"></path></g><g id="Group_21" data-name="Group 21"><path id="Path_27" data-name="Path 27" d="M59.22,127.566a1.548,1.548,0,1,1-1.548-1.547A1.548,1.548,0,0,1,59.22,127.566Z" fill="#70bf4a"></path></g></g><path id="Path_28" data-name="Path 28" d="M38.6,136.939l1.485,1.156,1.559-1.055L41,138.811l1.485,1.157-1.882-.064-.642,1.771-.521-1.809-1.882-.064,1.56-1.055Z"></path><path id="Path_29" data-name="Path 29" d="M76.482,136.939,75,138.1l-1.559-1.055.641,1.77-1.486,1.157,1.883-.064.642,1.771.521-1.809,1.882-.064-1.56-1.055Z"></path><path id="Path_30" data-name="Path 30" d="M38.6,167.514l1.485-1.156,1.559,1.054L41,165.643l1.485-1.157-1.882.063-.642-1.77-.521,1.809-1.882.064,1.56,1.054Z"></path><path id="Path_31" data-name="Path 31" d="M76.482,167.514,75,166.358l-1.559,1.054.641-1.77-1.486-1.157,1.883.063.642-1.77.521,1.809,1.882.064-1.56,1.054Z"></path><path id="Path_32" data-name="Path 32" d="M55.837,177.05l1.815-1.332,1.828,1.314-.706-2.138,1.816-1.331-2.252.01-.706-2.138-.686,2.145-2.253.01,1.829,1.316Z"></path><g id="Group_23" data-name="Group 23"><path id="Path_33" data-name="Path 33" d="M35,158.709v-9.373h4.021v1.42H36.415v2.557h1.906v1.419H36.415v2.557h2.608v1.42Z" fill="#fff8f2"></path><path id="Path_34" data-name="Path 34" d="M45.2,158.709H43.688L42.6,155.727l-1.093,2.982H39.995L41.833,154l-1.838-4.657h1.562l1.046,2.893,1.039-2.893H45.2L43.366,154Z" fill="#fff8f2"></path><path id="Path_35" data-name="Path 35" d="M48.067,158.829a2.233,2.233,0,0,1-2.242-2.235v-5.113a2.242,2.242,0,0,1,3.827-1.585,2.176,2.176,0,0,1,.65,1.585v1.069H48.837v-1.1a.816.816,0,0,0-.814-.814.769.769,0,0,0-.572.239.79.79,0,0,0-.236.575v5.128a.806.806,0,0,0,.808.807.786.786,0,0,0,.575-.236.767.767,0,0,0,.239-.571v-1.293H50.3v1.308a2.233,2.233,0,0,1-2.235,2.235Z" fill="#fff8f2"></path><path id="Path_36" data-name="Path 36" d="M55.31,158.709H51.46v-9.366h1.413V157.3H55.31Z" fill="#fff8f2"></path><path id="Path_37" data-name="Path 37" d="M58.516,158.814a2.221,2.221,0,0,1-2.235-2.228v-7.243h1.383v7.228a.775.775,0,0,0,.239.572.791.791,0,0,0,.576.235.8.8,0,0,0,.807-.807v-7.228h1.472v7.243a2.131,2.131,0,0,1-.657,1.585A2.185,2.185,0,0,1,58.516,158.814Z" fill="#fff8f2"></path><path id="Path_38" data-name="Path 38" d="M66.6,156.377a2.631,2.631,0,0,1-.509,1.674,1.823,1.823,0,0,1-.971.665,2.641,2.641,0,0,1-.785.1,2.219,2.219,0,0,1-1.375-.411,2.313,2.313,0,0,1-.722-.915,3.723,3.723,0,0,1-.31-1.328l1.346-.1a2.044,2.044,0,0,0,.433,1.187.719.719,0,0,0,.583.263.874.874,0,0,0,.74-.456,1.132,1.132,0,0,0,.142-.621,1.723,1.723,0,0,0-.53-1.159q-.42-.4-1.256-1.19a5.349,5.349,0,0,1-.994-1.22,2.805,2.805,0,0,1-.314-1.316,2.285,2.285,0,0,1,.86-1.937,2.129,2.129,0,0,1,1.315-.4,2.394,2.394,0,0,1,1.293.336,1.949,1.949,0,0,1,.676.733,2.707,2.707,0,0,1,.311,1.084l-1.353.246a1.636,1.636,0,0,0-.329-.9.693.693,0,0,0-.561-.231.644.644,0,0,0-.59.343,1.325,1.325,0,0,0-.165.688,2.065,2.065,0,0,0,.553,1.308,4.721,4.721,0,0,0,.628.6q.494.411.651.575a4.84,4.84,0,0,1,.807,1.032,4.22,4.22,0,0,1,.217.441A2.581,2.581,0,0,1,66.6,156.377Z" fill="#fff8f2"></path><path id="Path_39" data-name="Path 39" d="M69.182,158.709H67.769v-9.366h1.413Z" fill="#fff8f2"></path><path id="Path_40" data-name="Path 40" d="M72.037,158.709l-1.674-9.366h1.481l1.175,7.3,1.184-7.3h1.482l-1.7,9.366Z" fill="#fff8f2"></path><path id="Path_41" data-name="Path 41" d="M76.865,158.709v-9.373h4.022v1.42H78.278v2.557h1.906v1.419H78.278v2.557h2.609v1.42Z" fill="#fff8f2"></path></g></g></g></g></g></svg>