<svg xmlns="http://www.w3.org/2000/svg" width="74.852" height="72.067" viewBox="0 0 74.852 72.067"><g id="Group_144" data-name="Group 144" transform="translate(-264.131 -17.716)"><g id="Group_143" data-name="Group 143" transform="translate(0 -1)"><g id="Group_140" data-name="Group 140" transform="translate(-3)"><g id="Group_72" data-name="Group 72"><path id="Path_235" data-name="Path 235" d="M304.557,64.735H267.131V67.38h74.85V64.735Z" fill="#70bf4a"></path><path id="Path_236" data-name="Path 236" d="M304.559,45.8H267.133v2.645h74.85V45.8Z" fill="#70bf4a"></path><path id="Path_237" data-name="Path 237" d="M341.982,48.449h-74.85l4.387,7.985-4.387,8.3h74.85l-4.385-8.3Z" fill="#70bf4a"></path><g id="Group_64" data-name="Group 64"><path id="Path_238" data-name="Path 238" d="M334.225,48.59H273.49c-.111.554-.215,1.113-.3,1.679a30.832,30.832,0,0,0,1.284,14.325h58.757a31.086,31.086,0,0,0,.991-16Z" fill="#70bf4a"></path><path id="Path_239" data-name="Path 239" d="M303.816,22.707h0a32.068,32.068,0,0,1,30.039,20.837h3.453l.252-2.2-3.878-3.256-.745-5.009-4.586-2.146-2.007-4.649-4.987-.887-3.148-3.968-5.043.442-4.07-3.013-4.762,1.724-4.707-1.867-4.151,2.9-5.029-.575-3.256,3.878-5.008.744-2.148,4.586-4.646,2.009-.889,4.985-3.967,3.148.275,3.153h3.045A32.221,32.221,0,0,1,303.816,22.707Z"></path><path id="Path_240" data-name="Path 240" d="M303.891,86.792a32.423,32.423,0,0,1-4.67-.341A32.006,32.006,0,0,1,275.508,69.64h-3.594l2.107,1.77.745,5.008,4.587,2.147,2.008,4.647,4.987.89,3.146,3.967,5.045-.442,4.07,3.013,4.762-1.723,4.707,1.866,4.15-2.9,5.032.576,3.254-3.878,5.009-.745,2.147-4.585,4.646-2.009.889-4.986,3.3-2.616h-4.313A32.194,32.194,0,0,1,303.891,86.792Z"></path><g id="Group_63" data-name="Group 63"><path id="Path_241" data-name="Path 241" d="M332.736,43.544a30.982,30.982,0,0,0-57.775,0h57.775Z" fill="#f5f9ff"></path><path id="Path_242" data-name="Path 242" d="M276.684,69.64a30.981,30.981,0,0,0,54.345,0H276.684Z" fill="#f5f9ff"></path></g></g><g id="Group_69" data-name="Group 69"><g id="Group_66" data-name="Group 66"><g id="Group_65" data-name="Group 65"><path id="Path_243" data-name="Path 243" d="M320.27,72.406l-.635-.947.564-.524,2.727,4.156-.744.693-3.94-3.03.569-.529.895.708Zm1.522,2.207-1.115-1.6-.4.373Z"></path><path id="Path_244" data-name="Path 244" d="M315.565,74.518a1.162,1.162,0,0,1,1.6.4l1.939,3.257-.622.37L316.549,75.3a.4.4,0,0,0-.261-.193.417.417,0,0,0-.322.047.422.422,0,0,0-.147.58l1.936,3.249-.662.395-1.941-3.256a1.119,1.119,0,0,1-.128-.89A1.145,1.145,0,0,1,315.565,74.518Z"></path><path id="Path_245" data-name="Path 245" d="M313.339,80.217l.743-.258.243.7-2.18.757-.244-.7.74-.257-1.364-3.928.7-.242Z"></path><path id="Path_246" data-name="Path 246" d="M308.045,79.426l-.27-2.06.734-.1.634,4.86-.733.1-.269-2.063-.884.115.268,2.063-.732.1-.635-4.86.734-.1.268,2.06Z"></path><path id="Path_247" data-name="Path 247" d="M304.017,77.625l-.36,4.892-2.1-.154.054-.741,1.361.1.1-1.335-.994-.072.054-.742.994.073.1-1.333-1.363-.1.054-.741Z"></path><path id="Path_248" data-name="Path 248" d="M297.83,81.646l-.052-3.438-.891,3.174-.713-.2L297.5,76.46l.764.214.127,3.3.851-3.023.712.2-1.328,4.721Z"></path><path id="Path_249" data-name="Path 249" d="M292.934,78.986l.7.367-.347.657-2.043-1.075.347-.657.692.365,1.935-3.681.654.345Z"></path><path id="Path_250" data-name="Path 250" d="M291.338,73.077l.593.443-2.937,3.924L288.4,77Z"></path><path id="Path_251" data-name="Path 251" d="M289.05,70.932a1.165,1.165,0,0,1-.031,1.656L287.09,74.44a1.172,1.172,0,1,1-1.624-1.69l.4-.387.531.553-.414.4a.407.407,0,0,0-.13.3.414.414,0,0,0,.118.3.4.4,0,0,0,.3.129.412.412,0,0,0,.3-.119l1.936-1.859a.405.405,0,0,0,.13-.295.411.411,0,0,0-.118-.3.417.417,0,0,0-.3-.132.4.4,0,0,0-.3.117l-.488.469-.531-.553.493-.474a1.166,1.166,0,0,1,1.654.034Z"></path></g></g><g id="Group_68" data-name="Group 68"><g id="Group_67" data-name="Group 67"><path id="Path_252" data-name="Path 252" d="M288.563,40l.653.937-.555.533-2.8-4.109.733-.705,3.99,2.962-.56.539-.906-.692Zm-1.558-2.18,1.142,1.582.394-.379Z"></path><path id="Path_253" data-name="Path 253" d="M293.212,37.819a1.161,1.161,0,0,1-1.609-.373l-2-3.22.616-.382,1.994,3.214a.4.4,0,0,0,.263.188.417.417,0,0,0,.321-.054.409.409,0,0,0,.189-.263.4.4,0,0,0-.053-.319L290.942,33.4l.655-.406,2,3.22a1.116,1.116,0,0,1,.145.887A1.141,1.141,0,0,1,293.212,37.819Z"></path><path id="Path_254" data-name="Path 254" d="M295.375,32.065l-.738.271-.256-.7,2.168-.792.255.7-.736.268,1.429,3.906-.694.254Z"></path><path id="Path_255" data-name="Path 255" d="M300.647,32.775l.307,2.055-.732.109-.722-4.848.732-.109.307,2.059.882-.132-.307-2.058.732-.109.721,4.848-.731.108-.307-2.054Z"></path><path id="Path_256" data-name="Path 256" d="M304.7,34.5l.27-4.9,2.1.115-.04.742-1.363-.075-.073,1.337,1,.054-.042.742-.995-.055-.075,1.336,1.364.074-.04.742Z"></path><path id="Path_257" data-name="Path 257" d="M310.807,30.366l.117,3.437.832-3.19.716.188-1.24,4.745-.767-.2-.191-3.3-.795,3.038-.714-.187L310,30.156Z"></path><path id="Path_258" data-name="Path 258" d="M315.78,32.947l-.7-.353.335-.664,2.061,1.039-.334.664-.7-.353-1.871,3.713-.66-.333Z"></path><path id="Path_259" data-name="Path 259" d="M317.452,38.81l-.6-.431,2.863-3.978.6.432Z"></path><path id="Path_260" data-name="Path 260" d="M319.809,40.943a1.166,1.166,0,0,1,0-1.656l1.9-1.886a1.171,1.171,0,0,1,1.659.007,1.117,1.117,0,0,1,.34.83,1.135,1.135,0,0,1-.349.826l-.4.4-.54-.544.408-.406a.4.4,0,0,0,.125-.3.414.414,0,0,0-.123-.3.409.409,0,0,0-.3-.124.418.418,0,0,0-.3.125l-1.9,1.89a.424.424,0,0,0,.3.724.4.4,0,0,0,.3-.121l.479-.477.541.544-.486.482a1.165,1.165,0,0,1-1.653-.006Z"></path></g></g></g><g id="Group_71" data-name="Group 71"><g id="Group_70" data-name="Group 70"><path id="Path_261" data-name="Path 261" d="M276.828,59.983l-.441,2.765H274.5l2.045-12.031h2.5l2.016,12.031h-1.909l-.423-2.765Zm.953-6.51-.674,4.743h1.346Z" fill="#fff8f2"></path><path id="Path_262" data-name="Path 262" d="M285.174,62.882a2.849,2.849,0,0,1-2.871-2.861v-9.3h1.775V60a.991.991,0,0,0,.309.734,1.011,1.011,0,0,0,.738.3A1.034,1.034,0,0,0,286.162,60V50.717h1.893v9.3a2.741,2.741,0,0,1-.846,2.036A2.811,2.811,0,0,1,285.174,62.882Z" fill="#fff8f2"></path><path id="Path_263" data-name="Path 263" d="M291.434,52.542H289.5V50.717h5.664v1.825h-1.92V62.748h-1.814Z" fill="#fff8f2"></path><path id="Path_264" data-name="Path 264" d="M298.441,57.649v5.1h-1.814V50.717h1.814v5.108h2.19V50.717h1.814V62.748h-1.814v-5.1Z" fill="#fff8f2"></path><path id="Path_265" data-name="Path 265" d="M304.068,62.748V50.708h5.166v1.824h-3.351v3.283h2.449V57.64h-2.449v3.284h3.351v1.824Z" fill="#fff8f2"></path><path id="Path_266" data-name="Path 266" d="M312.519,50.708l2.409,8.091V50.708h1.816v12.04H314.8l-2.5-7.71v7.71h-1.815V50.708Z" fill="#fff8f2"></path><path id="Path_267" data-name="Path 267" d="M320.133,52.542H318.2V50.717h5.664v1.825h-1.92V62.748h-1.814Z" fill="#fff8f2"></path><path id="Path_268" data-name="Path 268" d="M327.141,62.748h-1.815V50.717h1.815Z" fill="#fff8f2"></path><path id="Path_269" data-name="Path 269" d="M331.625,62.9a2.87,2.87,0,0,1-2.881-2.871V53.463a2.876,2.876,0,1,1,5.752,0v1.373h-1.883V53.425a1.046,1.046,0,0,0-1.045-1.047.991.991,0,0,0-.734.307,1.015,1.015,0,0,0-.3.74v6.587a1.033,1.033,0,0,0,1.037,1.036,1.015,1.015,0,0,0,.739-.3.99.99,0,0,0,.306-.734V58.351H334.5v1.68a2.748,2.748,0,0,1-.846,2.035A2.776,2.776,0,0,1,331.625,62.9Z" fill="#fff8f2"></path></g></g></g></g></g></g></svg>