<svg xmlns="http://www.w3.org/2000/svg" width="86.115" height="77.707" viewBox="0 0 86.115 77.707"><g id="Group_138" data-name="Group 138" transform="translate(-190.498 -123.47)"><g id="Group_137" data-name="Group 137"><g id="Group_136" data-name="Group 136"><g id="Group_135" data-name="Group 135"><g id="Group_134" data-name="Group 134"><g id="Group_133" data-name="Group 133" transform="translate(1 1)"><g id="Group_132" data-name="Group 132"><g id="Group_131" data-name="Group 131"><g id="Group_130" data-name="Group 130"><g id="Group_129" data-name="Group 129"><g id="Group_128" data-name="Group 128"><g id="Group_127" data-name="Group 127"><g id="Group_126" data-name="Group 126"><g id="Group_125" data-name="Group 125"><g id="Group_124" data-name="Group 124"><g id="Group_123" data-name="Group 123"><g id="Group_122" data-name="Group 122"><g id="Group_121" data-name="Group 121"><g id="Group_120" data-name="Group 120"><g id="Group_119" data-name="Group 119"><g id="Group_118" data-name="Group 118"><g id="Group_117" data-name="Group 117"><g id="Group_116" data-name="Group 116" transform="translate(-7 8)"><g id="Group_36" data-name="Group 36" transform="translate(-65 1)"><path id="Path_134" data-name="Path 134" d="M347.613,154.835a12.806,12.806,0,0,1-12.806,12.806H274.3A12.805,12.805,0,0,1,261.5,154.835h0a12.8,12.8,0,0,1,12.807-12.8h60.5a12.8,12.8,0,0,1,12.806,12.8Z" fill="#70bf4a"></path><g id="Group_35" data-name="Group 35"><path id="Path_135" data-name="Path 135" d="M304.6,180a27.671,27.671,0,0,0,21.525-10.252H283.076A27.671,27.671,0,0,0,304.6,180Z" fill="#f5f9ff"></path><path id="Path_136" data-name="Path 136" d="M332.135,169.746a32.616,32.616,0,0,1-55.157,0H274.3a14.9,14.9,0,0,1-2.83-.278l-.331,2.862,3.391,1.339.154,3.64,3.555.792.719,3.572,3.635.232,1.269,3.416,3.627-.342,1.789,3.174,3.529-.909,2.266,2.853,3.344-1.452,2.681,2.465,3.081-1.952,3.031,2.019,2.734-2.408,3.313,1.518,2.32-2.807,3.51.976,1.849-3.137,3.621.414,1.336-3.388,3.641-.154.8-3.556,3.572-.719.231-3.636,3.416-1.268-.328-3.481a14.85,14.85,0,0,1-2.418.215Z"></path><path id="Path_137" data-name="Path 137" d="M274.369,139.926a32.63,32.63,0,0,1,60.361,0h.077a14.835,14.835,0,0,1,5.039.894l.841-3.033-3.136-1.85.416-3.62-3.391-1.337-.154-3.64-3.555-.794-.717-3.573-3.638-.231-1.266-3.416-3.629.341-1.789-3.173-3.525.909-2.27-2.853L310.691,116l-2.683-2.463-3.078,1.95L301.9,113.47l-2.732,2.408-3.314-1.518-2.321,2.807-3.51-.976-1.849,3.139-3.619-.416-1.338,3.388-3.641.156-.795,3.554-3.572.721-.23,3.634-3.416,1.268.341,3.627-3.173,1.789.908,3.528-.25.2a14.835,14.835,0,0,1,4.92-.851Z"></path></g></g><path id="Path_138" data-name="Path 138" d="M304.6,124.536a27.724,27.724,0,0,0-24.832,15.39h49.666A27.723,27.723,0,0,0,304.6,124.536Zm-12.17,10.32-.641,1.771-.523-1.809-1.883-.064,1.56-1.054-.521-1.809,1.486,1.156,1.557-1.054-.639,1.77,1.484,1.157Zm13.679-4.193-1.552-1.129L303,130.663l.6-1.827-1.555-1.127h1.92l.594-1.826.591,1.826h1.92l-1.554,1.127Zm11.826,4.155-.521,1.809-.641-1.771-1.88.064,1.482-1.157-.641-1.77,1.561,1.054,1.484-1.156-.521,1.809,1.558,1.054Z" transform="translate(-65 1)" fill="#f5f9ff"></path><g id="Group_41" data-name="Group 41" transform="translate(-65 1)"><g id="Group_39" data-name="Group 39"><path id="Path_147" data-name="Path 147" d="M292.373,136.233a1.321,1.321,0,0,1,.211.663.4.4,0,0,0,.341-.064l.426.666a.916.916,0,0,1-.948.131,1.342,1.342,0,0,1-2.294.049l-1.651-2.586a1.343,1.343,0,0,1,1.426-2.035,1.311,1.311,0,0,1,.839.59Zm-2.4-2.129a.473.473,0,0,0-.306-.211.478.478,0,0,0-.368.066.482.482,0,0,0-.147.669l1.655,2.593a.465.465,0,0,0,.3.214.489.489,0,0,0,.581-.371.461.461,0,0,0-.064-.366Z"></path><path id="Path_148" data-name="Path 148" d="M296.05,136.008a1.332,1.332,0,0,1-1.732-.762l-1.569-4.053.774-.3,1.565,4.044a.46.46,0,0,0,.258.268.471.471,0,0,0,.372.007.46.46,0,0,0,.269-.255.465.465,0,0,0,.009-.371l-1.566-4.045.824-.319,1.569,4.053a1.277,1.277,0,0,1-.025,1.03A1.311,1.311,0,0,1,296.05,136.008Z"></path><path id="Path_149" data-name="Path 149" d="M299.867,133.519l.009,1.307-.871.146.016-5.7,1.15-.192,1.856,5.387-.88.147-.407-1.241Zm-.063-3.073.055,2.237.62-.1Z"></path><path id="Path_150" data-name="Path 150" d="M306.2,134.452l-2.307-.073.176-5.617.847.027-.15,4.774,1.462.046Z"></path><path id="Path_151" data-name="Path 151" d="M308.717,134.822l-.836-.146.97-5.535.835.146Z"></path><path id="Path_152" data-name="Path 152" d="M312.885,130.983l-.854-.291.275-.806,2.505.852-.274.807-.85-.289-1.536,4.513-.8-.273Z"></path><path id="Path_153" data-name="Path 153" d="M316.8,135.324l.681-3.393.8.473-.483,2.057,1.562-1.422.806.475-2.639,2.239-1.194,2.03-.731-.43Z"></path></g><g id="Group_40" data-name="Group 40"><path id="Path_154" data-name="Path 154" d="M315.173,171.6a1.222,1.222,0,0,1-.2-.613.372.372,0,0,0-.317.062l-.4-.613a.854.854,0,0,1,.878-.13,1.158,1.158,0,0,1,.4-.429,1.244,1.244,0,0,1,1.724.363l1.552,2.381a1.244,1.244,0,0,1-1.3,1.9,1.211,1.211,0,0,1-.783-.539Zm2.244,1.949a.429.429,0,0,0,.284.194.439.439,0,0,0,.34-.065.447.447,0,0,0,.131-.621l-1.557-2.388a.451.451,0,0,0-.817.154.425.425,0,0,0,.063.339Z"></path><path id="Path_155" data-name="Path 155" d="M311.77,171.841a1.234,1.234,0,0,1,1.612.691l1.489,3.74-.714.285-1.486-3.733a.429.429,0,0,0-.241-.246.442.442,0,0,0-.346,0,.449.449,0,0,0-.25.584l1.485,3.732-.76.3-1.489-3.741a1.182,1.182,0,0,1,.014-.954A1.211,1.211,0,0,1,311.77,171.841Z"></path><path id="Path_156" data-name="Path 156" d="M308.256,174.18l-.021-1.211.806-.142.036,5.28-1.063.189-1.768-4.974.813-.144.389,1.146Zm.086,2.847-.073-2.072-.572.1Z"></path><path id="Path_157" data-name="Path 157" d="M302.377,173.373l2.139.047-.114,5.205-.785-.017.1-4.424-1.355-.03Z"></path><path id="Path_158" data-name="Path 158" d="M300.043,173.052l.775.129-.848,5.136-.774-.128Z"></path><path id="Path_159" data-name="Path 159" d="M296.216,176.647l.794.262-.248.749-2.327-.768.246-.749.789.26,1.384-4.2.746.246Z"></path><path id="Path_160" data-name="Path 160" d="M292.549,172.659l-.6,3.15-.749-.431.43-1.911L290.2,174.8l-.753-.433,2.426-2.1,1.088-1.891.68.392Z"></path></g></g><g id="Group_37" data-name="Group 37" transform="translate(-65 1)"><path id="Path_139" data-name="Path 139" d="M274.375,158.418l-.522,3.272h-2.236l2.42-14.236h2.954l2.386,14.236h-2.258l-.5-3.272Zm1.128-7.7-.795,5.612h1.59Z" fill="#fff8f2"></path><path id="Path_140" data-name="Path 140" d="M284.569,147.454a3.275,3.275,0,0,1,2.5.988,3.433,3.433,0,0,1,.864,2.409v2.068a3.319,3.319,0,0,1-.983,2.409,3.216,3.216,0,0,1-2.381,1h-1.238v5.363h-2.147V147.454Zm1.284,3.431a1.229,1.229,0,0,0-.334-.9,1.2,1.2,0,0,0-.893-.341h-1.3V154.2h1.3a1.171,1.171,0,0,0,.869-.364,1.2,1.2,0,0,0,.358-.875Z" fill="#fff8f2"></path><path id="Path_141" data-name="Path 141" d="M293.033,147.454a3.274,3.274,0,0,1,2.5.988,3.432,3.432,0,0,1,.863,2.409v2.068a3.318,3.318,0,0,1-.982,2.409,3.216,3.216,0,0,1-2.381,1H291.8v5.363h-2.148V147.454Zm1.284,3.431a1.225,1.225,0,0,0-.335-.9,1.191,1.191,0,0,0-.892-.341H291.8V154.2h1.295a1.171,1.171,0,0,0,.869-.364,1.2,1.2,0,0,0,.358-.875Z" fill="#fff8f2"></path><path id="Path_142" data-name="Path 142" d="M301.5,147.454a3.278,3.278,0,0,1,2.636.988,3.6,3.6,0,0,1,.738,2.409v2.068a3.326,3.326,0,0,1-1.147,2.556l1.59,6.215h-2.322l-1.3-5.363h-1.431v5.363h-2.148V147.454Zm1.284,3.431a1.09,1.09,0,0,0-1.227-1.238h-1.295V154.2h1.295a1.172,1.172,0,0,0,.869-.364,1.2,1.2,0,0,0,.358-.875Z" fill="#fff8f2"></path><path id="Path_143" data-name="Path 143" d="M310.188,147.273a3.4,3.4,0,0,1,3.409,3.408v7.771a3.4,3.4,0,1,1-6.806,0v-7.771a3.4,3.4,0,0,1,3.4-3.408Zm1.17,3.362a1.221,1.221,0,0,0-1.226-1.227,1.2,1.2,0,0,0-.875.358,1.171,1.171,0,0,0-.363.869v7.794a1.17,1.17,0,0,0,.363.869,1.2,1.2,0,0,0,.875.358,1.221,1.221,0,0,0,1.226-1.227Z" fill="#fff8f2"></path><path id="Path_144" data-name="Path 144" d="M317.618,161.69l-2.545-14.236h2.251l1.787,11.1,1.8-11.1h2.252l-2.591,14.236Z" fill="#fff8f2"></path><path id="Path_145" data-name="Path 145" d="M324.957,161.69V147.443h6.112V149.6H327.1v3.885H330v2.158h-2.9v3.886h3.965v2.159Z" fill="#fff8f2"></path><path id="Path_146" data-name="Path 146" d="M339.3,158.282a3.3,3.3,0,0,1-.988,2.408,3.234,3.234,0,0,1-2.386,1h-3.375V147.443h3.375a3.229,3.229,0,0,1,2.391,1,3.3,3.3,0,0,1,.983,2.4Zm-4.6,1.283h1.3a1.149,1.149,0,0,0,.864-.369,1.217,1.217,0,0,0,.352-.869v-7.453a1.2,1.2,0,0,0-.357-.875,1.166,1.166,0,0,0-.859-.363h-1.3Z" fill="#fff8f2"></path></g></g></g></g></g></g></g></g></g></g></g></g></g></g></g></g></g></g></g></g></g></g></g></g></svg>