<svg xmlns="http://www.w3.org/2000/svg" width="71.999" height="70.227" viewBox="0 0 71.999 70.227"><g id="Group_147" data-name="Group 147" transform="translate(-139.095 -322.458)"><g id="Group_146" data-name="Group 146"><g id="Group_145" data-name="Group 145"><g id="Group_142" data-name="Group 142"><g id="Group_141" data-name="Group 141"><g id="Group_139" data-name="Group 139" transform="translate(-3 1)"><g id="Group_138" data-name="Group 138" transform="translate(-5 1)"><g id="Group_137" data-name="Group 137"><g id="Group_136" data-name="Group 136"><g id="Group_135" data-name="Group 135"><g id="Group_134" data-name="Group 134"><g id="Group_133" data-name="Group 133"><g id="Group_132" data-name="Group 132"><g id="Group_131" data-name="Group 131"><g id="Group_130" data-name="Group 130"><g id="Group_129" data-name="Group 129"><g id="Group_128" data-name="Group 128"><g id="Group_127" data-name="Group 127"><g id="Group_126" data-name="Group 126"><g id="Group_125" data-name="Group 125"><g id="Group_124" data-name="Group 124"><g id="Group_123" data-name="Group 123"><g id="Group_122" data-name="Group 122"><g id="Group_121" data-name="Group 121"><g id="Group_120" data-name="Group 120"><g id="Group_119" data-name="Group 119"><g id="Group_118" data-name="Group 118"><g id="Group_117" data-name="Group 117"><g id="Group_116" data-name="Group 116"><g id="Group_58" data-name="Group 58" transform="translate(4 2)"><g id="Group_51" data-name="Group 51"><rect id="Rectangle_5" data-name="Rectangle 5" width="71.999" height="22.1" transform="translate(143.095 343.352)" fill="#70bf4a"></rect><g id="Group_50" data-name="Group 50"><path id="Path_192" data-name="Path 192" d="M179.4,322.576a31.04,31.04,0,0,1,28.433,18.67h3.033c.094-1.437.532-3.019-.064-4.152-.839-1.6-3.577-2.006-4.652-3.449s-.685-4.186-1.975-5.448-4.014-.8-5.49-1.851c-1.46-1.036-1.933-3.764-3.56-4.569-1.6-.791-4.054.487-5.795-.054-1.7-.528-2.991-2.975-4.8-3.241s-3.754,1.711-5.529,1.731c-1.823.019-3.808-1.906-5.567-1.606-1.789.3-3.023,2.784-4.72,3.36s-4.2-.633-5.789.2-2.006,3.576-3.45,4.652-4.184.684-5.447,1.975-.805,4.013-1.852,5.49c-1.036,1.459-3.765,1.932-4.569,3.561a6.067,6.067,0,0,0-.041,3.4h3.4A31.04,31.04,0,0,1,179.4,322.576Z"></path><path id="Path_193" data-name="Path 193" d="M179.4,384.566a31.022,31.022,0,0,1-27.648-17.009h-3.99a4.377,4.377,0,0,0,.236,2.492c.838,1.6,3.577,2.006,4.653,3.451s.684,4.184,1.974,5.445,4.015.8,5.49,1.852,1.932,3.766,3.56,4.57c1.6.789,4.054-.486,5.795.055,1.7.527,2.99,2.975,4.8,3.238s3.753-1.709,5.529-1.728c1.823-.02,3.808,1.9,5.567,1.6,1.789-.307,3.023-2.785,4.718-3.361,1.713-.58,4.2.634,5.79-.2s2.007-3.577,3.451-4.653,4.185-.685,5.447-1.974.8-4.014,1.851-5.491c1.036-1.46,3.764-1.933,4.569-3.56a3.4,3.4,0,0,0,.242-1.74h-4.389A31.023,31.023,0,0,1,179.4,384.566Z"></path><path id="Path_194" data-name="Path 194" d="M179.4,324.682a28.927,28.927,0,0,0-26.123,16.564h52.246A28.926,28.926,0,0,0,179.4,324.682Z" fill="#f5f9ff"></path><path id="Path_195" data-name="Path 195" d="M206.414,343.352H152.379a28.785,28.785,0,0,0,.693,22.1H205.72a28.792,28.792,0,0,0,.694-22.1Z" fill="#70bf4a"></path><path id="Path_196" data-name="Path 196" d="M179.4,382.463a28.911,28.911,0,0,0,25.27-14.906h-50.54A28.911,28.911,0,0,0,179.4,382.463Z" fill="#f5f9ff"></path></g></g><g id="Group_53" data-name="Group 53"><g id="Group_52" data-name="Group 52"><path id="Path_197" data-name="Path 197" d="M154.06,347.1a3.358,3.358,0,0,1,3.363,3.363v7.669a3.358,3.358,0,1,1-6.716,0v-7.669a3.358,3.358,0,0,1,3.353-3.363Zm1.155,3.318A1.209,1.209,0,0,0,154,349.206a1.181,1.181,0,0,0-.863.354,1.155,1.155,0,0,0-.36.857v7.691a1.159,1.159,0,0,0,.36.858,1.184,1.184,0,0,0,.863.353,1.207,1.207,0,0,0,1.211-1.211Z" fill="#fff8f2"></path><path id="Path_198" data-name="Path 198" d="M162.637,347.278a3.229,3.229,0,0,1,2.6.975,3.545,3.545,0,0,1,.729,2.377v2.041a3.28,3.28,0,0,1-1.132,2.522l1.569,6.133h-2.292l-1.284-5.292h-1.413v5.292h-2.119V347.278Zm1.266,3.386a1.076,1.076,0,0,0-1.211-1.223h-1.278v4.5h1.278a1.162,1.162,0,0,0,.858-.359,1.188,1.188,0,0,0,.353-.863Z" fill="#fff8f2"></path><path id="Path_199" data-name="Path 199" d="M170.338,361.326h-2.119V347.278h2.119Z" fill="#fff8f2"></path><path id="Path_200" data-name="Path 200" d="M175.574,361.506a3.36,3.36,0,0,1-3.363-3.353v-7.669a3.358,3.358,0,1,1,6.716,0v1.6h-2.2V350.44a1.222,1.222,0,0,0-1.221-1.222,1.161,1.161,0,0,0-.859.358,1.187,1.187,0,0,0-.352.864v7.691a1.205,1.205,0,0,0,1.211,1.211,1.184,1.184,0,0,0,.863-.353,1.155,1.155,0,0,0,.358-.855v-2.761h-1.176v-2.131h3.374v4.911a3.351,3.351,0,0,1-3.353,3.353Z" fill="#fff8f2"></path><path id="Path_201" data-name="Path 201" d="M182.884,361.326h-2.119V347.278h2.119Z" fill="#fff8f2"></path><path id="Path_202" data-name="Path 202" d="M187.157,347.267l2.813,9.449v-9.449h2.119v14.059h-2.277l-2.915-9v9h-2.119V347.267Z" fill="#fff8f2"></path><path id="Path_203" data-name="Path 203" d="M196.581,358.1l-.515,3.228h-2.207l2.389-14.048h2.915l2.354,14.048h-2.228l-.5-3.228Zm1.113-7.6-.785,5.538h1.569Z" fill="#fff8f2"></path><path id="Path_204" data-name="Path 204" d="M209.074,361.326H203.3V347.278h2.119v11.941h3.655Z" fill="#fff8f2"></path></g></g><g id="Group_55" data-name="Group 55"><g id="Group_54" data-name="Group 54"><path id="Path_205" data-name="Path 205" d="M163.133,335.553a1.193,1.193,0,0,1,1.687.144l1.762,2.087a1.2,1.2,0,1,1-1.829,1.542l-1.761-2.088a1.2,1.2,0,0,1,.141-1.685Zm1.076.638a.419.419,0,0,0-.294-.152.415.415,0,0,0-.314.1.423.423,0,0,0-.154.295.416.416,0,0,0,.1.315l1.766,2.094a.417.417,0,0,0,.295.151.423.423,0,0,0,.317-.1.432.432,0,0,0,.051-.608Z"></path><path id="Path_206" data-name="Path 206" d="M167.888,332.447a1.155,1.155,0,0,1,.982-.116,1.268,1.268,0,0,1,.619.634l.332.646a1.165,1.165,0,0,1,.055.983l1.5,1.685-.726.374-1.269-1.465c-.02.01-.04.021-.062.031l-.386.2.863,1.676-.67.346-2.293-4.448Zm.953.866a.382.382,0,0,0-.582-.19l-.406.209.735,1.422.4-.208a.411.411,0,0,0,.213-.253.426.426,0,0,0-.028-.332Z"></path><path id="Path_207" data-name="Path 207" d="M173.971,335.372l-.72.224-1.479-4.781.721-.223Z"></path><path id="Path_208" data-name="Path 208" d="M177.168,334.785a1.2,1.2,0,0,1-1.337-1.037l-.336-2.711a1.15,1.15,0,0,1,.243-.885,1.164,1.164,0,0,1,.8-.451,1.149,1.149,0,0,1,.883.244,1.163,1.163,0,0,1,.449.8l.07.567-.776.1-.072-.583a.437.437,0,0,0-.487-.378.411.411,0,0,0-.286.164.418.418,0,0,0-.088.322l.338,2.717a.428.428,0,0,0,.481.375.43.43,0,0,0,.291-.162.417.417,0,0,0,.088-.318l-.121-.977-.415.053-.1-.753,1.193-.148.216,1.735a1.195,1.195,0,0,1-1.037,1.332Z"></path><path id="Path_209" data-name="Path 209" d="M181.112,334.613l-.754-.04.259-5,.753.039Z"></path><path id="Path_210" data-name="Path 210" d="M185.175,330.154l.19,3.506.783-3.273.734.176-1.166,4.87-.787-.189-.265-3.359L183.918,335l-.734-.176,1.166-4.869Z"></path><path id="Path_211" data-name="Path 211" d="M189.137,335.582l-.683.943-.7-.354,3.016-4.082.926.468-1.508,4.843-.708-.357.362-1.105Zm1.574-2.238-1.139,1.634.5.252Z"></path><path id="Path_212" data-name="Path 212" d="M193.554,339.912l-1.589-1.308,3.181-3.862.582.48-2.7,3.282,1.006.828Z"></path></g></g><g id="Group_57" data-name="Group 57"><g id="Group_56" data-name="Group 56"><path id="Path_213" data-name="Path 213" d="M195.926,374.989a1.146,1.146,0,0,1-.88.266,1.162,1.162,0,0,1-.806-.434l-1.728-2.115a1.2,1.2,0,1,1,1.85-1.514l1.731,2.115a1.194,1.194,0,0,1-.167,1.682Zm-1.067-.653a.432.432,0,0,0,.607.061.427.427,0,0,0,.159-.293.411.411,0,0,0-.1-.317l-1.733-2.121a.417.417,0,0,0-.293-.155.432.432,0,0,0-.379.7Z"></path><path id="Path_214" data-name="Path 214" d="M191.127,378.023a1.149,1.149,0,0,1-.983.1,1.257,1.257,0,0,1-.61-.643l-.323-.65a1.174,1.174,0,0,1-.039-.984L187.7,374.14l.732-.364,1.248,1.485c.019-.009.04-.019.06-.031l.391-.193-.839-1.687.676-.336,2.226,4.48Zm-.94-.877a.383.383,0,0,0,.58.2l.408-.2-.713-1.435-.408.2a.415.415,0,0,0-.217.251.428.428,0,0,0,.024.331Z"></path><path id="Path_215" data-name="Path 215" d="M185.057,375.016l.724-.211,1.4,4.8-.725.212Z"></path><path id="Path_216" data-name="Path 216" d="M181.879,375.547a1.2,1.2,0,0,1,1.32,1.058l.295,2.715a1.2,1.2,0,1,1-2.378.259l-.062-.568.778-.085.063.584a.439.439,0,0,0,.481.386.413.413,0,0,0,.29-.161.421.421,0,0,0,.091-.319l-.295-2.723a.431.431,0,0,0-.475-.383.427.427,0,0,0-.293.159.405.405,0,0,0-.093.316l.1.979.417-.046.081.755-1.194.129-.189-1.739a1.146,1.146,0,0,1,.258-.88A1.165,1.165,0,0,1,181.879,375.547Z"></path><path id="Path_217" data-name="Path 217" d="M177.926,375.658l.753.051-.338,4.991-.753-.051Z"></path><path id="Path_218" data-name="Path 218" d="M173.784,380.049l-.134-3.508-.836,3.26-.731-.188,1.244-4.851.784.2.21,3.364.8-3.106.732.187L174.6,380.26Z"></path><path id="Path_219" data-name="Path 219" d="M169.913,374.563l.7-.934.7.366-3.079,4.035-.919-.482,1.583-4.82.7.368-.377,1.1Zm-1.608,2.212,1.163-1.616-.494-.26Z"></path><path id="Path_220" data-name="Path 220" d="M165.548,370.147l1.565,1.334-3.245,3.809-.575-.49,2.759-3.236-.991-.845Z"></path></g></g></g></g></g></g></g></g></g></g></g></g></g></g></g></g></g></g></g></g></g></g></g></g></g></g></g></g></g></g></g></g></svg>