<svg xmlns="http://www.w3.org/2000/svg" width="72.299" height="72.115" viewBox="0 0 72.299 72.115"><g id="Group_117" data-name="Group 117" transform="translate(-21.523 -18.668)"><g id="Group_97" data-name="Group 97"><g id="Group_95" data-name="Group 95"><path id="Path_379" data-name="Path 379" d="M91.545,57.11l1.646-1.838.631-.706-.636-.7-1.658-1.828,1.351-2.065.52-.794-.735-.6-1.913-1.559,1.026-2.244.394-.862-.817-.482L89.23,42.178l.679-2.372.26-.912-.878-.354L87,37.618l.321-2.447.122-.941-.921-.22-2.4-.573-.047-2.466-.019-.947-.943-.081-2.458-.213L80.246,27.3l-.159-.935-.946.061-2.462.157-.771-2.344-.3-.9-.928.2-2.412.524-1.115-2.2-.428-.844-.887.337-2.3.88-1.432-2.011-.55-.772-.825.466-2.148,1.214L60.87,19.35l-.658-.682-.747.582-1.946,1.516-1.956-1.5-.752-.577-.652.687-1.7,1.792L50.3,19.972l-.83-.458-.543.778-1.409,2.025L45.2,21.462l-.89-.328-.42.85L42.8,24.2l-2.416-.5-.928-.192-.289.9-.75,2.35-2.462-.137-.948-.054-.149.937-.4,2.435-2.457.229-.943.088-.01.948-.029,2.467-2.4.593-.921.228.132.94.341,2.443-2.279.946-.876.364.27.908.7,2.366-2.112,1.279-.81.49.4.858,1.05,2.233-1.9,1.576-.728.6.525.789L23.8,52.341l-1.644,1.838-.633.706.637.7,1.658,1.83-1.352,2.065-.52.793.736.6,1.913,1.557-1.026,2.244-.4.864.817.48,2.126,1.254-.681,2.373-.261.912.88.354,2.287.921-.32,2.448-.123.939.923.221,2.4.574.046,2.465.018.947.945.082,2.457.213.413,2.432.159.935.946-.06,2.463-.158.771,2.345.3.9.927-.2,2.411-.524,1.116,2.2.428.846L45.5,88.1l2.306-.879,1.433,2.01L49.79,90l.825-.464,2.149-1.213L54.476,90.1l.657.682.746-.582,1.948-1.516,1.956,1.5.753.576.651-.687,1.7-1.791,2.159,1.191.831.461.542-.779,1.411-2.026,2.314.856.889.328.419-.85,1.091-2.213,2.416.5.927.192.289-.9.75-2.347,2.464.136.946.053.152-.937.393-2.434,2.455-.228.946-.09.011-.948.026-2.468,2.4-.594.921-.229-.132-.939-.34-2.441,2.278-.948.875-.363-.271-.908-.7-2.365,2.112-1.28.811-.49-.4-.857-1.049-2.233,1.9-1.576.728-.6-.523-.789Zm-1.988,2.274A32.223,32.223,0,1,1,62.332,22.84,32.226,32.226,0,0,1,89.557,59.384Z"></path><g id="Group_94" data-name="Group 94"><path id="Path_380" data-name="Path 380" d="M57.672,21.755A32.85,32.85,0,1,0,90.521,54.6,32.885,32.885,0,0,0,57.672,21.755Zm0,62.8A29.95,29.95,0,1,1,87.623,54.6,29.951,29.951,0,0,1,57.672,84.554Z"></path><path id="Path_381" data-name="Path 381" d="M31.765,64.261H26.245V66.98H88.582V64.261H31.765Z"></path><g id="Group_91" data-name="Group 91"><path id="Path_382" data-name="Path 382" d="M57.533,26.748a27.693,27.693,0,0,1,25.82,17.777h1.071a28.649,28.649,0,0,0-53.786,0h1.073A27.691,27.691,0,0,1,57.533,26.748Z"></path><g id="Group_90" data-name="Group 90"><path id="Path_383" data-name="Path 383" d="M54.945,29.16l1.109,14.613h.925Z"></path><path id="Path_384" data-name="Path 384" d="M45.541,32.169l6.058,11.6h.958Z"></path><path id="Path_385" data-name="Path 385" d="M79.521,42.617,77,43.773h.365Z"></path><path id="Path_386" data-name="Path 386" d="M50.089,30.185l3.885,13.588h.938Z"></path><path id="Path_387" data-name="Path 387" d="M64.772,30.1,60.1,43.773h.936Z"></path><path id="Path_388" data-name="Path 388" d="M69.345,32.031,62.429,43.773h.955Z"></path><path id="Path_389" data-name="Path 389" d="M38.086,38.642l6.289,5.131h.873Z"></path><path id="Path_390" data-name="Path 390" d="M76.873,38.419l-7.295,5.354h.885Z"></path><path id="Path_391" data-name="Path 391" d="M59.906,29.129,58.038,43.773h.928Z"></path><path id="Path_392" data-name="Path 392" d="M73.434,34.845l-8.072,8.928h.964Z"></path><path id="Path_393" data-name="Path 393" d="M41.485,35.027l7.129,8.746h.961Z"></path><path id="Path_394" data-name="Path 394" d="M35.487,42.868l1.733.905h.3Z"></path><path id="Path_395" data-name="Path 395" d="M68.415,44.626l1.163-.854H66.326l-.683.854Z"></path><path id="Path_396" data-name="Path 396" d="M84.557,44.626l-.423-.854H77.37l-1.591.854Z"></path><path id="Path_397" data-name="Path 397" d="M75.142,44.626,77,43.773H70.462l-1.024.854Z"></path><path id="Path_398" data-name="Path 398" d="M57.929,44.626l.108-.854H56.979l.12.854Z"></path><path id="Path_399" data-name="Path 399" d="M56.12,44.626l-.065-.854H54.912l.3.854Z"></path><path id="Path_400" data-name="Path 400" d="M54.219,44.626l-.245-.854H52.556l.517.854Z"></path><path id="Path_401" data-name="Path 401" d="M49.31,44.626l-.7-.854H45.249l1.192.854Z"></path><path id="Path_402" data-name="Path 402" d="M30.928,43.773l-.4.834,8.33.02-1.634-.854Z"></path><path id="Path_403" data-name="Path 403" d="M64.588,44.626l.773-.854H63.384l-.434.854Z"></path><path id="Path_404" data-name="Path 404" d="M45.424,44.626l-1.049-.854H37.519l1.92.854Z"></path><path id="Path_405" data-name="Path 405" d="M61.926,44.626l.5-.854h-1.4l-.235.854Z"></path><path id="Path_406" data-name="Path 406" d="M59.806,44.626l.292-.854H58.965l-.055.854Z"></path><path id="Path_407" data-name="Path 407" d="M52.046,44.626l-.448-.854H49.575l.791.854Z"></path><path id="Path_408" data-name="Path 408" d="M46.441,44.626l-1.192-.854h-.873l1.049.854Z"></path><path id="Path_409" data-name="Path 409" d="M55.216,44.626l-.3-.854h-.937l.245.854Z"></path><path id="Path_410" data-name="Path 410" d="M57.1,44.626l-.12-.854h-.925l.065.854Z"></path><path id="Path_411" data-name="Path 411" d="M58.911,44.626l.055-.854h-.928l-.108.854Z"></path><path id="Path_412" data-name="Path 412" d="M53.073,44.626l-.517-.854H51.6l.448.854Z"></path><path id="Path_413" data-name="Path 413" d="M50.366,44.626l-.791-.854h-.961l.7.854Z"></path><path id="Path_414" data-name="Path 414" d="M75.779,44.626l1.591-.854H77l-1.862.854Z"></path><path id="Path_415" data-name="Path 415" d="M69.438,44.626l1.024-.854h-.885l-1.163.854Z"></path><path id="Path_416" data-name="Path 416" d="M65.643,44.626l.683-.854h-.964l-.773.854Z"></path><path id="Path_417" data-name="Path 417" d="M37.519,43.773h-.3l1.634.854h.585Z"></path><path id="Path_418" data-name="Path 418" d="M60.8,44.626l.235-.854H60.1l-.292.854Z"></path><path id="Path_419" data-name="Path 419" d="M62.951,44.626l.434-.854h-.955l-.5.854Z"></path></g></g><g id="Group_93" data-name="Group 93"><path id="Path_420" data-name="Path 420" d="M57.533,82.927A27.693,27.693,0,0,0,83.353,65.15h1.071a28.649,28.649,0,0,1-53.786,0h1.073A27.691,27.691,0,0,0,57.533,82.927Z"></path><g id="Group_92" data-name="Group 92"><path id="Path_421" data-name="Path 421" d="M54.945,80.517,56.054,65.9h.925Z"></path><path id="Path_422" data-name="Path 422" d="M45.541,77.507,51.6,65.9h.958Z"></path><path id="Path_423" data-name="Path 423" d="M79.521,67.058,77,65.9h.365Z"></path><path id="Path_424" data-name="Path 424" d="M50.089,79.492,53.974,65.9h.938Z"></path><path id="Path_425" data-name="Path 425" d="M64.772,79.576,60.1,65.9h.936Z"></path><path id="Path_426" data-name="Path 426" d="M69.345,77.644,62.429,65.9h.955Z"></path><path id="Path_427" data-name="Path 427" d="M38.086,71.035,44.375,65.9h.873Z"></path><path id="Path_428" data-name="Path 428" d="M76.873,71.257,69.578,65.9h.885Z"></path><path id="Path_429" data-name="Path 429" d="M59.906,80.548,58.038,65.9h.928Z"></path><path id="Path_430" data-name="Path 430" d="M73.434,74.831,65.362,65.9h.964Z"></path><path id="Path_431" data-name="Path 431" d="M41.485,74.65,48.614,65.9h.961Z"></path><path id="Path_432" data-name="Path 432" d="M35.487,66.81,37.22,65.9h.3Z"></path><path id="Path_433" data-name="Path 433" d="M68.415,65.05l1.163.854H66.326l-.683-.854Z"></path><path id="Path_434" data-name="Path 434" d="M84.557,65.05l-.423.854H77.37l-1.591-.854Z"></path><path id="Path_435" data-name="Path 435" d="M75.142,65.05,77,65.9H70.462l-1.024-.854Z"></path><path id="Path_436" data-name="Path 436" d="M57.929,65.05l.108.854H56.979l.12-.854Z"></path><path id="Path_437" data-name="Path 437" d="M56.12,65.05l-.065.854H54.912l.3-.854Z"></path><path id="Path_438" data-name="Path 438" d="M54.219,65.05l-.245.854H52.556l.517-.854Z"></path><path id="Path_439" data-name="Path 439" d="M49.31,65.05l-.7.854H45.249l1.192-.854Z"></path><path id="Path_440" data-name="Path 440" d="M30.928,65.9l-.4-.834,8.33-.02L37.22,65.9Z"></path><path id="Path_441" data-name="Path 441" d="M64.588,65.05l.773.854H63.384l-.434-.854Z"></path><path id="Path_442" data-name="Path 442" d="M45.424,65.05l-1.049.854H37.519l1.92-.854Z"></path><path id="Path_443" data-name="Path 443" d="M61.926,65.05l.5.854h-1.4L60.8,65.05Z"></path><path id="Path_444" data-name="Path 444" d="M59.806,65.05l.292.854H58.965l-.055-.854Z"></path><path id="Path_445" data-name="Path 445" d="M52.046,65.05,51.6,65.9H49.575l.791-.854Z"></path><path id="Path_446" data-name="Path 446" d="M46.441,65.05l-1.192.854h-.873l1.049-.854Z"></path><path id="Path_447" data-name="Path 447" d="M55.216,65.05l-.3.854h-.937l.245-.854Z"></path><path id="Path_448" data-name="Path 448" d="M57.1,65.05l-.12.854h-.925l.065-.854Z"></path><path id="Path_449" data-name="Path 449" d="M58.911,65.05l.055.854h-.928l-.108-.854Z"></path><path id="Path_450" data-name="Path 450" d="M53.073,65.05l-.517.854H51.6l.448-.854Z"></path><path id="Path_451" data-name="Path 451" d="M50.366,65.05l-.791.854h-.961l.7-.854Z"></path><path id="Path_452" data-name="Path 452" d="M75.779,65.05l1.591.854H77l-1.862-.854Z"></path><path id="Path_453" data-name="Path 453" d="M69.438,65.05l1.024.854h-.885l-1.163-.854Z"></path><path id="Path_454" data-name="Path 454" d="M65.643,65.05l.683.854h-.964l-.773-.854Z"></path><path id="Path_455" data-name="Path 455" d="M37.519,65.9h-.3l1.634-.854h.585Z"></path><path id="Path_456" data-name="Path 456" d="M60.8,65.05l.235.854H60.1l-.292-.854Z"></path><path id="Path_457" data-name="Path 457" d="M62.951,65.05l.434.854h-.955l-.5-.854Z"></path></g></g></g></g><g id="Group_96" data-name="Group 96"><path id="Path_458" data-name="Path 458" d="M35.226,59.973a2.68,2.68,0,0,1-2.69-2.681V51.156a2.689,2.689,0,0,1,4.592-1.9,2.611,2.611,0,0,1,.781,1.9v1.283H36.15V51.121a.98.98,0,0,0-.978-.978.927.927,0,0,0-.685.287.947.947,0,0,0-.283.691v6.152a.966.966,0,0,0,.968.969.947.947,0,0,0,.691-.283.927.927,0,0,0,.287-.686V55.721h1.759v1.571a2.68,2.68,0,0,1-2.683,2.681Z" fill="#70bf4a"></path><path id="Path_459" data-name="Path 459" d="M39.3,59.83V48.582h4.825v1.7H40.994v3.067h2.287v1.7H40.994v3.068h3.129v1.7Z" fill="#70bf4a"></path><path id="Path_460" data-name="Path 460" d="M47.962,48.591a2.582,2.582,0,0,1,2.081.781,2.831,2.831,0,0,1,.584,1.9V52.9a2.622,2.622,0,0,1-.907,2.018l1.256,4.907H49.143L48.115,55.6h-1.13V59.83H45.29V48.591ZM48.976,51.3a.86.86,0,0,0-.969-.977H46.985v3.6h1.022a.927.927,0,0,0,.687-.287.95.95,0,0,0,.282-.69Z" fill="#70bf4a"></path><path id="Path_461" data-name="Path 461" d="M53.676,50.295h-1.8v-1.7h5.293v1.7H55.372V59.83h-1.7Z" fill="#70bf4a"></path><path id="Path_462" data-name="Path 462" d="M60.223,59.83H58.528V48.591h1.695Z" fill="#70bf4a"></path><path id="Path_463" data-name="Path 463" d="M63.434,59.83H61.739V48.582h4.825v1.7h-3.13v3.067h2.287v1.7H63.434Z" fill="#70bf4a"></path><path id="Path_464" data-name="Path 464" d="M69.426,59.83H67.731V48.591h1.695Z" fill="#70bf4a"></path><path id="Path_465" data-name="Path 465" d="M70.942,59.83V48.582h4.825v1.7h-3.13v3.067h2.287v1.7H72.637v3.068h3.13v1.7Z" fill="#70bf4a"></path><path id="Path_466" data-name="Path 466" d="M82.261,57.139a2.611,2.611,0,0,1-.78,1.9,2.554,2.554,0,0,1-1.884.789H76.933V48.582H79.6a2.547,2.547,0,0,1,1.888.79,2.6,2.6,0,0,1,.776,1.892Zm-3.633,1.013h1.023a.91.91,0,0,0,.682-.291.963.963,0,0,0,.278-.687V51.291a.953.953,0,0,0-.283-.691.919.919,0,0,0-.677-.287H78.628Z" fill="#70bf4a"></path></g></g></g></svg>