<svg xmlns="http://www.w3.org/2000/svg" width="31" height="19" viewBox="0 0 31 19" fill="none"><path d="M24.6919 4.25147C24.6919 4.25147 26.7356 1.41396 28.2287 2.6976C30.1772 4.37533 26.5344 5.30991 26.5344 5.30991M5.84264 4.25147C5.84264 4.25147 3.79887 1.41396 2.30576 2.6976C0.357299 4.37533 4.00007 5.30991 4.00007 5.30991" stroke="#00808D" stroke-width="1.2" stroke-linecap="round" stroke-linejoin="round"></path><path d="M20.3603 16.0968L22.1923 17.4255H28.3871C28.3871 17.4255 28.8848 15.1847 29.2025 13.0454C29.7955 9.01428 29.7108 7.01001 28.9272 6.19929C28.2495 5.48991 27.0635 5.43361 25.9833 5.29849C24.9244 5.16337 22.9759 1.43632 19.725 1.10978C18.2742 0.963405 12.4712 0.963405 10.8616 1.10978C7.61063 1.40254 5.66217 5.15211 4.60322 5.29849C3.51251 5.44487 2.33708 5.48991 1.65935 6.19929C0.886322 7.01001 0.791016 9.02554 1.38403 13.0454C1.70171 15.1847 2.19941 17.4255 2.19941 17.4255H8.39425L10.2262 16.0968H20.3497H20.3603Z" stroke="#00808D" stroke-width="1.2" stroke-linecap="round" stroke-linejoin="round"></path><path d="M5.55637 16.0617H25.0304M3.85146 7.78565C3.85146 7.78565 3.43848 9.45212 3.43848 9.97008C3.43848 10.488 8.58495 10.6344 8.58495 10.6344L7.99194 9.22692L3.85146 7.78565ZM26.6823 7.78565C26.6823 7.78565 27.0953 9.45212 27.0953 9.97008C27.0953 10.488 21.9488 10.6344 21.9488 10.6344L22.5419 9.22692L26.6823 7.78565ZM19.0367 3.0452C20.7522 3.19158 23.156 5.63499 23.156 5.63499H7.44129C7.44129 5.63499 9.86628 3.31544 11.5606 3.0452C13.2231 2.78622 17.1836 2.88756 19.0367 3.0452Z" stroke="#00808D" stroke-width="1.2" stroke-linecap="round" stroke-linejoin="round"></path></svg>