<svg xmlns="http://www.w3.org/2000/svg" xmlns:xlink="http://www.w3.org/1999/xlink" id="&#x5716;&#x5C64;_1" x="0px" y="0px" viewBox="0 0 34 34" style="enable-background:new 0 0 34 34;" xml:space="preserve"><style type="text/css">	.st0{fill:#FFFFFF;}	.st1{fill:#D3D3D3;}	.st2{clip-path:url(#SVGID_2_);}	.st3{fill:#00828C;}</style><g>	<path class="st0" d="M0.5,17C0.5,7.9,7.9,0.5,17,0.5S33.5,7.9,33.5,17S26.1,33.5,17,33.5S0.5,26.1,0.5,17z"></path>	<path class="st1" d="M17,34C7.6,34,0,26.4,0,17S7.6,0,17,0s17,7.6,17,17S26.4,34,17,34z M17,1C8.2,1,1,8.2,1,17s7.2,16,16,16  s16-7.2,16-16S25.8,1,17,1z"></path></g><g>	<defs>		<rect id="SVGID_1_" x="9.5" y="10" width="15" height="15"></rect>	</defs>	<clipPath id="SVGID_2_">		<use xlink:href="#SVGID_1_" style="overflow:visible;"></use>	</clipPath>	<g class="st2">		<path class="st3" d="M13.9,10h6.2v6.4h4.1L17,23.7l-7.2-7.2h4.1L13.9,10z"></path>		<path class="st3" d="M24.5,24v1h-15v-1H24.5z"></path>	</g></g></svg>