<svg xmlns="http://www.w3.org/2000/svg" width="113" height="107" viewBox="0 0 113 107" fill="none"><path d="M70.1348 2C70.1348 1.17157 69.4632 0.5 68.6348 0.5C67.8063 0.5 67.1348 1.17157 67.1348 2H70.1348ZM70.1348 17.0208V2H67.1348V17.0208H70.1348Z" fill="#397abd"></path><path d="M50.6592 2C50.6592 1.17157 49.9876 0.5 49.1592 0.5C48.3308 0.5 47.6592 1.17157 47.6592 2H50.6592ZM50.6592 17.0208V2H47.6592V17.0208H50.6592Z" fill="#397abd"></path><path d="M56.4624 47.0619C49.6458 47.0619 44.2899 42.3411 44.2899 36.3327V27.7494C44.2899 27.7494 39.4209 24.9598 39.4209 21.3119V17.0203H78.373V21.3119C78.373 24.9598 73.504 27.7494 73.504 27.7494V36.3327C73.504 42.3411 67.9046 47.0619 61.3315 47.0619H56.4624Z" fill="white" stroke="#397abd" stroke-width="3" stroke-miterlimit="10"></path><path d="M57.3975 105.001C57.3975 105.829 58.069 106.501 58.8975 106.501C59.7259 106.501 60.3975 105.829 60.3975 105.001H57.3975ZM60.3975 105.001V47.0632H57.3975V105.001H60.3975Z" fill="#397abd"></path><path d="M45.9922 78.8204C49.6439 71.3099 44.5315 62.0829 39.419 59.5079C25.5423 52.6412 14.587 61.2245 2.17106 58.435C0.710359 68.735 8.74423 79.4641 20.9168 84.6141C29.1941 88.0474 42.3404 86.3308 45.9922 78.8204Z" fill="white" fill-opacity="0.08" stroke="#397abd" stroke-width="3" stroke-miterlimit="10"></path><path d="M58.8973 92.125C48.4289 74.3146 27.7356 70.2375 15.0762 66.375" stroke="#397abd" stroke-width="3" stroke-miterlimit="10" stroke-linecap="round"></path><path d="M71.317 66.5896C69.1259 59.9376 74.2384 52.2126 78.864 50.4959C91.28 45.5605 100.044 53.7147 110.999 52.4272C111.243 61.4396 103.209 70.023 92.2538 73.4563C84.9502 75.6021 73.5081 73.2417 71.317 66.5896Z" fill="white" fill-opacity="0.08" stroke="#397abd" stroke-width="3" stroke-miterlimit="10"></path><path d="M58.8975 77.1048C69.8527 62.5131 87.8681 60.7964 99.0668 58.436" stroke="#397abd" stroke-width="3" stroke-miterlimit="10"></path></svg>