<svg xmlns="http://www.w3.org/2000/svg" width="42" height="26" viewBox="0 0 42 26" fill="none"><line x1="41.5" y1="8" x2="41.5" y2="18" stroke="black"></line><g clip-path="url(#clip0_2327_6317)"><path d="M6.03281 14.0469C6.03281 13.9758 5.91592 13.9198 5.77362 13.9198C5.63133 13.9198 5.4128 13.8385 5.29082 13.742C5.16885 13.6454 5.00115 13.6454 4.92491 13.742C4.8436 13.8385 4.87918 13.9198 4.99606 13.9198C5.11295 13.9198 5.28066 13.9758 5.36197 14.0469C5.44329 14.1181 5.63133 14.174 5.77362 14.174C5.91592 14.174 6.03281 14.113 6.03281 14.0469Z" fill="#397abd"></path><path d="M6.94728 14.2959C6.86089 14.2248 6.76941 14.1231 6.74908 14.0621L6.57121 14.1689L6.39333 14.2756C6.19513 14.362 5.87496 14.5703 5.67676 14.7431H6.03759H6.25103H6.95236C7.03876 14.7431 7.11499 14.672 7.11499 14.5805C7.10991 14.4941 7.03368 14.3671 6.94728 14.2959Z" fill="#397abd"></path><path d="M11.3535 1.65674C11.4399 1.66182 11.4907 1.67198 11.4094 1.65165C11.3891 1.64657 11.3738 1.64657 11.3535 1.65674Z" fill="#397abd"></path><path d="M14.9308 8.49731V8.50747C14.819 8.67518 14.7276 8.89371 14.7276 8.99027C14.7276 9.08683 14.7479 9.22405 14.7682 9.28503C14.7885 9.3511 14.9105 9.31044 15.0325 9.20372C15.1545 9.097 15.2968 8.98011 15.3476 8.9547C15.3984 8.92421 15.4391 8.80223 15.4391 8.68535V8.6142C15.4391 8.54305 15.312 8.36517 15.2764 8.29403C15.2409 8.22288 15.1341 8.08058 15.124 7.97385C15.1138 7.86713 15.1138 7.86713 15.1138 7.86713C15.0426 7.71975 14.9156 7.59778 14.8292 7.59778H14.8089C14.7885 7.59778 14.7733 7.79598 14.7377 7.8468L14.7021 7.9027C14.7631 8.08058 14.8648 8.34485 14.9359 8.49223C14.9258 8.48715 14.9258 8.48714 14.9308 8.49731Z" fill="#397abd"></path><path d="M14.2091 8.91397L14.3006 8.89364C14.387 8.84282 14.4937 8.68527 14.5344 8.54297C14.575 8.40067 14.6004 8.20247 14.5903 8.10083L14.4632 8.17198C14.3362 8.24313 14.2142 8.2787 14.2142 8.38543C14.2091 8.50232 14.1227 8.93429 14.2091 8.91397Z" fill="#397abd"></path><path d="M21.4562 18.4226C21.1919 18.7682 20.9328 19.0884 20.887 19.1341C20.8413 19.1748 20.699 19.3831 20.577 19.5915L20.5414 19.6627L20.5059 19.7338C20.6024 19.871 20.7142 19.9828 20.7447 19.9828C20.7752 19.9828 20.8464 19.993 20.8972 19.9981L20.9328 19.9828C20.9683 19.9625 21.0039 19.9473 21.0395 19.8558C21.0751 19.7643 21.1106 19.7491 21.131 19.6068C21.1513 19.4645 21.4003 19.0477 21.4206 18.9766L21.441 18.9054C21.5324 18.6107 21.6646 18.1838 21.7459 17.9551L21.4562 18.4226Z" fill="#397abd"></path><path d="M13 0C5.83425 0 0 5.83425 0 13C0 20.1658 5.83425 26 13 26C20.1658 26 26 20.1708 26 13C26 5.83425 20.1658 0 13 0ZM17.1927 11.2568C17.2537 11.1755 17.3655 11.1044 17.4418 11.1044C17.518 11.1044 17.7111 11.1501 17.8686 11.2009C18.0262 11.2568 18.1482 11.2009 18.138 11.0841C18.1278 10.9672 18.1787 10.8706 18.2447 10.8706C18.3159 10.8706 18.4836 10.9722 18.6208 11.0942C18.758 11.2162 19.0731 11.3178 19.3221 11.3178C19.5661 11.3178 19.7236 11.4754 19.6626 11.6634L19.5915 11.7955C19.5203 11.9277 19.5203 11.9277 19.5203 11.9277C19.2662 11.9988 18.9105 12.0547 18.7326 12.0547C18.5547 12.0547 18.3362 12.0446 18.2498 12.0344C18.1583 12.0242 18.0008 12.0751 17.889 12.1411C17.7823 12.2123 17.6044 12.2275 17.4977 12.1767C17.3909 12.1259 17.0911 11.9073 16.8319 11.6939L16.7963 11.5872C16.7607 11.4805 16.222 11.4093 16.1153 11.3737C16.0086 11.3382 16.0086 11.3382 16.0086 11.3382C15.6732 11.3585 15.3174 11.4398 15.2209 11.516L14.9007 11.5872C14.5805 11.6583 15.2209 11.1552 15.4038 11.1044C15.5817 11.0536 15.6529 10.7232 15.7647 10.4742C15.8714 10.2252 15.8714 10.2252 15.8714 10.2252C16.1255 10.3624 16.3999 10.4742 16.4812 10.4742C16.5625 10.4742 16.7709 10.5708 16.9488 10.6876L17.0555 10.8655C17.1622 11.0434 16.9844 10.9722 16.9132 11.0993L16.8421 11.2263C16.9691 11.3331 17.1317 11.3432 17.1927 11.2568ZM18.9105 10.0117L19.0172 9.88468L19.1239 9.75762C19.2408 9.82877 19.3831 9.77795 19.439 9.64073C19.4949 9.5086 19.6271 9.55942 19.7338 9.75762L19.7694 9.86435L19.8049 9.97107C20.0235 10.0676 20.1505 10.1998 20.0895 10.2557C20.0285 10.3116 19.8507 10.3624 19.6931 10.3624C19.5356 10.3624 19.3475 10.3624 19.2815 10.3624C19.2103 10.3624 18.819 10.3065 18.7631 10.2353C18.7072 10.1744 18.7733 10.0676 18.9105 10.0117ZM19.4898 12.6646H19.5915H19.7287C19.8507 12.6646 20.0336 12.7764 20.1302 12.9136L20.2013 13.1474C20.2725 13.3812 20.7045 13.7725 20.7756 14.1181C20.8468 14.4636 20.8468 14.4636 20.8468 14.4636C20.8061 14.6161 20.6282 14.5602 20.4504 14.3468L20.3436 14.1689C20.2369 13.991 19.9116 13.6658 19.7694 13.559L19.6271 13.4523C19.6067 13.0203 19.5457 12.6646 19.4898 12.6646ZM19.6677 3.21188C20.0743 3.48632 20.4605 3.79124 20.8264 4.11142C20.6486 4.37568 20.4605 4.52306 20.3741 4.45192C20.2776 4.3706 20.0539 3.9183 19.8761 3.44566L19.7694 3.33894C19.6626 3.23221 19.6626 3.23221 19.6626 3.23221C19.6626 3.22205 19.6677 3.21697 19.6677 3.21188ZM1.16888 13.6759C1.40266 13.7725 1.38741 13.742 1.36708 13.7064L1.40266 13.5641C1.43823 13.4218 1.58053 13.6708 1.43823 13.4218C1.29593 13.1728 1.36708 13.4574 1.29593 13.1728C1.22478 12.8882 1.19429 12.8069 1.15364 12.7052H1.26036H1.36708C1.44332 12.9238 1.58561 13.2948 1.69234 13.5285L1.79906 13.5997C1.90579 13.6708 1.97185 13.7369 2.04808 13.8131L2.08366 13.9554C2.11923 14.0977 1.90579 14.1333 2.08366 14.24C2.26153 14.3468 2.01251 14.1333 2.26153 14.3468C2.51056 14.5602 2.65794 14.5246 2.76466 14.5958C2.87138 14.6669 2.90696 14.3823 3.01368 14.5958C3.12041 14.8092 2.80023 14.5958 3.12041 14.8092L3.44566 15.0227C3.54222 15.0837 3.63878 15.0328 3.65911 14.9159L3.87256 15.1294L4.086 15.3428C4.22322 15.3632 4.35536 15.4292 4.3706 15.4851L4.54848 15.6274C4.72635 15.7697 4.54848 15.5563 4.72635 15.7697C4.90422 15.9832 4.98045 16.034 5.06685 16.0899C5.15833 16.1509 5.25997 16.1966 5.30063 16.1966C5.34128 16.1966 5.39719 16.2373 5.42768 16.2881C5.45817 16.3389 5.54457 16.4609 5.62588 16.5575C5.70719 16.654 5.76818 16.7963 5.76818 16.8624C5.76818 16.9335 5.68686 16.8726 5.5903 16.7353V16.9844C5.5903 17.2334 5.62588 17.0199 5.5903 17.2334C5.55473 17.4468 5.60047 17.5129 5.66145 17.5942C5.72244 17.6755 5.76818 17.7924 5.76818 17.8636V18.1126C5.76818 18.1837 5.86474 18.3514 5.98163 18.4887L6.08835 18.5598C6.19507 18.631 5.91048 18.3819 6.19507 18.631C6.48475 18.88 6.57115 18.9613 6.67787 19.0629C6.7846 19.1595 6.87608 19.2764 6.87608 19.312C6.87608 19.3526 6.98788 19.3018 7.1251 19.2052L7.23182 19.3831L7.33855 19.561C7.41986 19.6575 7.48084 19.7744 7.48084 19.8151C7.48084 19.8557 7.54691 19.7592 7.62314 19.5966L7.69429 19.8862L7.76544 20.1708C7.72479 20.2521 7.79085 20.3944 7.90774 20.491L7.94332 20.5977C7.97889 20.7045 7.87217 20.8112 7.94332 20.923C8.01446 21.0297 8.01446 21.0297 8.01446 21.0297C8.07545 21.2889 8.18726 21.6243 8.26349 21.7819C8.3448 21.9394 8.37529 22.163 8.33464 22.285L8.40579 22.3917L8.47694 22.4984C8.53792 22.6153 8.47185 22.8084 8.33464 22.9304L8.58366 23.1794C8.83268 23.4285 8.69038 23.1794 8.83268 23.4285L8.97498 23.6775C9.03597 23.8147 9.18843 24.0485 9.31548 24.1959C9.33073 24.2162 9.34597 24.2314 9.3663 24.2518C4.82799 22.8288 1.45348 18.6615 1.16888 13.6759ZM13 24.8514C12.0293 24.8514 11.0841 24.7346 10.1744 24.5109C10.1693 24.4957 10.1642 24.4855 10.154 24.4703C10.0575 24.2721 10.0066 24.0129 10.0473 23.896L9.94058 23.7893C9.83385 23.6826 9.80844 23.6419 9.77795 23.5911C9.74746 23.5403 9.72205 23.4437 9.72205 23.3776C9.72205 23.3065 9.78812 23.1693 9.86435 23.0727L9.72205 23.0016C9.57975 22.9304 9.57975 23.1439 9.57975 22.9304C9.57975 22.717 9.66106 22.6509 9.75762 22.5696L9.82877 22.4629C9.89992 22.3561 9.7932 22.6052 9.89992 22.3561C10.0066 22.1071 10.0066 22.1071 10.0066 22.1071C10.0473 21.9292 10.1337 21.7361 10.2048 21.6751C10.276 21.6142 10.3319 21.5176 10.3319 21.4617V21.2279C10.3319 21.1568 10.3167 21.0551 10.2963 20.9941L10.3319 20.8518L10.3675 20.7095C10.3471 20.5927 10.3776 20.4605 10.4386 20.4249L10.6521 20.2826C10.8096 20.1454 10.8604 19.9828 10.7588 19.9218L10.9367 19.8151C11.1145 19.7084 11.2213 19.5966 11.1857 19.4543C11.1501 19.312 11.2213 19.6677 11.1501 19.312C11.079 18.9511 11.0434 18.9918 11.0434 18.7377C11.0434 18.4887 10.9011 18.7021 11.0434 18.4887L11.1857 18.2752C11.3026 18.0465 11.2873 17.7416 11.1501 17.5942L11.0434 17.5586C10.9367 17.5231 10.8299 17.4519 10.647 17.3808C10.4691 17.3096 10.4691 17.3096 10.4691 17.3096C10.1947 17.2131 9.85418 17.0809 9.71697 17.0199L9.61024 16.9844C9.50352 16.9488 9.50352 16.9488 9.50352 16.9488C9.30532 16.6744 9.12744 16.4457 9.10711 16.4457L8.78694 16.3389C8.46677 16.2322 8.39054 16.1966 8.28382 16.0899L8.17709 15.9832C8.01955 15.846 7.87217 15.6884 7.85184 15.6427C7.83151 15.5919 7.76544 15.602 7.70954 15.663L7.38428 15.6274C7.06411 15.5919 7.06411 15.5919 7.06411 15.5919C6.90657 15.4547 6.6982 15.3428 6.59656 15.3428L6.45426 15.414L6.31196 15.4851C6.17475 15.5817 6.00704 15.6783 5.93589 15.6986C5.86474 15.7189 5.70719 15.7291 5.57506 15.7189C5.44801 15.7088 5.27013 15.663 5.17866 15.6122C5.08718 15.5614 4.97537 15.4343 4.92963 15.3276C4.87881 15.2209 4.82291 15.0481 4.80258 14.9515L4.69586 14.8804L4.58913 14.8092C4.43159 14.6923 4.33503 14.4992 4.37568 14.3772C4.41634 14.2604 4.38077 14.0825 4.30453 13.9808L4.16224 14.052L4.01994 14.1231C3.90305 14.2604 3.75567 14.4077 3.69977 14.4433L3.59304 14.4077C3.48632 14.3722 3.30844 14.301 3.12549 14.1231C2.94762 13.9453 2.91204 13.7623 2.91204 13.6556V13.5489C3.02893 13.2948 3.26271 12.9848 3.43041 12.8679C3.59812 12.751 3.81665 12.6544 3.91321 12.6544C4.00977 12.6544 4.18256 12.6138 4.28929 12.5629C4.39601 12.5121 4.57389 12.5884 4.68569 12.7256C4.79242 12.8628 4.95504 13.0661 5.04652 13.1728C5.138 13.2795 5.38702 13.2592 5.60047 13.1169L5.50899 13.0102C5.41751 12.9034 5.41751 12.9034 5.41751 12.9034C5.3362 12.7866 5.35653 12.5579 5.45309 12.4003L5.50899 12.2936C5.56489 12.1869 5.63604 12.1513 5.77834 11.9328C5.92064 11.7193 5.99179 11.6075 6.06294 11.5008L6.13409 11.3941C6.29163 11.1196 6.48475 10.8452 6.56607 10.7842C6.64738 10.7232 6.76427 10.6063 6.83542 10.5149C6.90657 10.4285 7.00313 10.3116 7.04887 10.2658C7.09969 10.215 7.20133 10.1744 7.28264 10.1744C7.36396 10.1744 7.53675 10.1185 7.67905 10.0473C7.81626 9.97615 8.0043 9.92025 8.0907 9.92025C8.18217 9.92025 8.18726 9.83894 8.11102 9.74238C8.02971 9.64582 7.92807 9.51368 7.87725 9.4527C7.82643 9.39171 7.94332 9.27991 8.12627 9.20368C8.31431 9.12236 8.69547 8.92924 8.9699 8.7717L8.93432 8.87842L8.89875 8.98514C8.68022 9.25958 8.56841 9.53401 8.64973 9.595C8.73104 9.65598 8.93941 9.7373 9.11728 9.77287L9.18843 9.66615C9.25958 9.55942 9.25958 9.55942 9.25958 9.55942C9.27991 9.4222 9.26974 9.20876 9.23925 9.0817C9.20876 8.95465 9.18335 8.70563 9.18335 8.51759V8.32447C9.18335 8.1466 9.1122 7.67905 9.00547 7.7502L8.89875 7.82134C8.83776 7.60281 8.79202 7.31314 8.79202 7.17592C8.79202 7.0387 8.70055 7.00313 8.59382 7.10477C8.4871 7.20133 8.26857 7.2674 8.11102 7.24707L8.18217 7.03362C8.27873 6.97263 8.27365 6.85575 8.16185 6.76427C8.05512 6.67279 7.77052 6.47459 7.53167 6.31704L7.46052 6.42377C7.38937 6.53049 7.38937 6.53049 7.38937 6.53049C7.32838 6.68804 7.24199 6.90657 7.19116 7.01329C7.14034 7.12002 7.09969 7.2674 7.09969 7.33855C7.09969 7.40969 7.06919 7.54691 7.02854 7.64347C6.98788 7.74003 6.86083 7.9179 6.74394 8.03988C6.62705 8.15676 6.47967 8.34988 6.42377 8.47185C6.36278 8.58874 6.28147 8.44644 6.2459 8.15168V8.04496V7.93823C5.99179 7.69937 5.75293 7.4097 5.72752 7.29281C5.70211 7.17592 5.73769 6.94722 5.819 6.78968V6.68296C5.819 6.57623 5.99687 6.3577 6.14425 6.2154C6.28655 6.0731 6.64738 5.78342 6.7541 5.71228L6.86083 5.64113C6.99805 5.55981 7.0946 5.63604 7.07428 5.80375C7.05395 5.97146 7.14543 6.09343 7.27248 6.0731C7.39953 6.05278 7.49101 5.96638 7.47068 5.8749C7.45035 5.78851 7.5215 5.66654 7.63331 5.60555C7.74003 5.54457 7.87725 5.36669 7.93823 5.20915C7.99922 5.0516 8.14152 4.69586 8.26349 4.42142L8.37021 4.49257L8.47694 4.56372C8.61415 4.7416 8.63956 5.06177 8.53284 5.2803C8.42611 5.49883 8.26349 5.6767 8.17201 5.6767C8.08053 5.6767 7.98397 5.74785 7.95856 5.83933C7.92807 5.93081 7.98397 6.0172 8.08561 6.03753L8.37021 6.25098C8.50743 6.40852 8.72088 6.46443 8.83776 6.37803C8.95465 6.29163 9.05121 6.15442 9.05121 6.0731C9.05121 5.99179 9.12236 5.93081 9.21384 5.93081C9.30532 5.93081 9.4222 5.82408 9.48319 5.69703C9.54418 5.56998 9.57467 5.3921 9.55434 5.30063C9.53401 5.20915 9.51876 5.09226 9.51876 5.03127L9.55434 4.88898C9.58991 4.74668 9.55942 4.68569 9.51876 4.61454C9.47811 4.54339 9.44761 4.40618 9.44761 4.30962V3.98944C9.44761 3.90813 9.39679 3.75567 9.34089 3.64894C9.27991 3.54222 9.0817 3.45074 8.89367 3.45074C8.70563 3.45074 8.30414 3.32877 7.99922 3.18139C7.69429 3.03401 7.3792 2.91204 7.29789 2.91204C7.2369 2.91204 7.09969 2.87138 6.96755 2.81548C7.67905 2.38858 8.44136 2.03792 9.24433 1.76857C9.26466 1.99218 9.33073 2.24629 9.40696 2.37334C9.49844 2.53088 9.66615 2.67826 9.77287 2.69351L9.91517 2.65794C10.0575 2.62236 10.3471 2.26153 10.4183 2.15481C10.4894 2.04808 10.9926 1.75841 11.1349 1.68726L11.2009 1.65676C11.2924 1.65676 11.3839 1.65168 11.3991 1.6466L11.4195 1.65168L11.5008 1.67201C11.4246 1.66185 11.3077 1.76857 11.2365 1.9007L10.9926 2.08366L10.708 2.29711C10.6267 2.50547 10.6267 2.79515 10.708 2.94253L10.8147 3.12041C10.9214 3.29828 10.9214 3.29828 10.9214 3.29828C10.9418 3.39484 10.957 3.51173 10.957 3.55238V3.65911C10.957 3.76583 10.9214 4.09109 10.9214 4.19781C10.9214 4.30453 10.708 4.87881 10.708 4.98554C10.708 5.09226 10.647 5.38194 10.5657 5.73769L10.3471 5.87998C10.1286 6.02228 10.3116 6.12901 10.3471 6.31196C10.3827 6.48984 10.0981 6.45426 10.3471 6.67279C10.5962 6.88624 10.4894 6.67279 10.5962 6.88624C10.7029 7.09969 10.6317 6.95739 10.8452 6.88624L11.0485 6.82017C11.3737 6.41869 11.6329 6.09343 11.6228 6.1036C11.6278 6.09851 11.6329 6.09851 11.638 6.08835L11.6431 6.08327C11.638 6.08835 11.6278 6.09343 11.6228 6.09851C11.6278 6.09343 11.6532 6.0731 11.6634 6.06802L11.6685 6.06294L11.7244 6.0172C11.7041 6.03245 11.6888 6.04261 11.6787 6.05278C11.699 6.03753 11.7091 6.02737 11.6685 6.05786C11.6634 6.06294 11.6532 6.0731 11.6431 6.07819C11.6482 6.0731 11.6482 6.0731 11.6532 6.06802C11.6482 6.0731 11.6431 6.0731 11.6431 6.07819C11.6482 6.0731 11.6787 6.05278 11.7244 6.0172L11.8108 5.95113C12.2783 5.5903 11.9887 5.77326 12.2783 5.5903C12.5629 5.41243 12.2072 5.51916 12.5629 5.41243L12.9238 5.30571C13.1626 5.18882 13.4828 4.89914 13.6403 4.66028L13.6759 4.55356C13.7115 4.44683 13.7826 4.44683 13.6759 4.30453C13.5692 4.16224 13.4269 4.51798 13.5692 4.16224C13.7115 3.80141 13.6454 3.80141 13.7318 3.65911C13.8182 3.51681 13.5743 3.73026 13.7318 3.33385C13.8894 2.93745 13.8894 2.93745 13.8894 2.93745C13.9504 2.84089 13.8995 2.69351 13.7826 2.61728L13.9961 2.47498C14.2095 2.33268 14.2654 2.25137 14.3366 2.15481C14.4077 2.05825 14.3823 1.89562 14.2807 1.79398L14.4586 1.68726C14.6364 1.58053 14.6009 1.76349 14.7076 1.47381C14.794 1.24003 14.7432 1.35692 14.7737 1.28069C16.4914 1.53987 18.0872 2.17005 19.4848 3.08483C19.2815 3.22713 19.5508 3.51173 19.4898 3.65911L19.4238 3.80141C19.4593 3.9183 19.7134 4.19273 19.9828 4.41126L20.1454 4.48241C20.2217 4.51798 20.2217 4.51798 20.2217 4.51798C20.3385 4.66028 20.43 4.78225 20.4249 4.79242C20.4199 4.80258 20.3995 4.82291 20.3843 4.84324L20.1505 4.94996L19.9167 5.05668C19.683 5.17357 19.2967 5.3362 19.0579 5.41751L19.0223 5.27522L18.9867 5.13292C18.8088 5.09226 18.6005 4.9957 18.5192 4.91947L18.3413 4.84832L18.1634 4.77717C18.0465 4.68061 17.8026 4.54848 17.6247 4.49257L17.4824 4.63487C17.3401 4.77717 16.9081 4.88389 16.837 5.138C16.7658 5.38702 16.6591 5.64113 16.6235 5.78342C16.588 5.92572 16.156 6.46443 16.0137 6.60672C15.8714 6.74902 15.6935 7.0387 15.8002 7.181C15.907 7.3233 16.1966 7.68413 16.3034 7.61298C16.4101 7.54183 16.5219 7.62314 16.6642 7.7197C16.8014 7.81626 17.1013 7.50117 17.3299 7.01329L17.3045 7.00821C17.2791 7.00313 17.1419 6.5 17.3198 6.39328C17.4926 6.28655 17.6044 5.74785 17.7111 5.85457L17.8178 5.9613C17.6806 6.39328 17.706 6.81001 17.8737 6.88116C18.0414 6.95231 18.3718 6.91673 18.6106 6.79984L18.4328 7.00821C18.2549 7.21658 17.9296 7.43511 17.8941 7.54183L17.8585 7.64855C17.5586 7.98397 17.208 8.2584 17.0809 8.2584C16.9539 8.2584 16.6744 8.19234 16.4558 8.11611L16.2068 8.2584L15.9578 8.4007C15.6833 8.67514 15.4547 9.01564 15.4547 9.15285C15.4547 9.29007 15.292 9.30532 15.0938 9.18843L15.0227 9.40188L14.9515 9.61532C14.9922 9.7627 15.0582 9.95074 15.0938 10.0371C15.1345 10.1185 15.1345 10.2506 15.0938 10.3268L14.8245 10.3675C14.5551 10.4081 14.484 10.154 14.4128 10.3675L14.3417 10.586C14.3823 10.7639 14.4077 11.0027 14.3976 11.1145C14.3874 11.2263 14.4586 11.0688 14.5551 10.7639L14.5195 11.3229C14.484 11.8819 14.7686 11.4144 14.484 11.8819C14.1994 12.3495 14.484 11.9887 14.1994 12.3495C13.9148 12.7103 13.9148 12.8526 13.6962 13.1575C13.4828 13.4625 13.4116 13.7826 13.2846 13.8741C13.1575 13.9656 13.3049 14.0367 13.2846 14.179L13.2643 14.3213C13.2744 14.5602 13.4066 14.9922 13.5539 15.292L13.6251 15.3987C13.6962 15.5055 13.7318 15.6122 13.8741 15.7952C14.0164 15.973 14.1638 15.9273 14.3417 15.8663L14.4484 15.973C14.5551 16.0798 14.733 16.0798 14.9515 16.0798H15.0582C15.165 16.0798 15.2361 16.1509 15.3428 16.0798L15.4496 16.0086C15.6071 15.9476 15.8358 15.9476 15.9527 16.0086C16.0696 16.0645 16.2475 16.1458 16.3491 16.1865C16.4457 16.2271 16.4965 16.5524 16.4558 16.903L16.5625 17.0453C16.6693 17.1876 16.9234 17.5485 17.0301 17.5485H17.1368C17.2283 17.6298 17.3096 17.8432 17.3096 18.0313C17.3096 18.2193 17.269 18.4633 17.2232 18.57C17.1775 18.6767 17.1317 18.8139 17.1216 18.8749C17.1114 18.9359 17.0708 19.1443 17.0301 19.3425L17.1013 19.5559C17.1724 19.7694 17.2131 20.2725 17.335 20.3792L17.457 20.4859C17.4977 20.6841 17.5942 20.984 17.6704 21.1517C17.7518 21.3194 18.1024 21.36 18.4582 21.2432L18.6716 21.172C18.8851 21.1009 19.068 20.923 19.2103 20.5622C19.3526 20.2013 19.3679 19.81 19.5051 19.7033C19.6423 19.5966 19.8202 19.4187 19.9625 19.2357C20.1048 19.0579 20.43 18.6259 20.4656 18.4836L20.5012 18.3413C20.4402 17.8483 20.3589 17.3299 20.3233 17.1927L20.4656 17.0504C20.6079 16.9081 21.0755 16.405 21.1466 16.2627C21.2177 16.1204 21.6853 15.5461 21.7209 15.4394C21.7565 15.3327 21.8276 14.8296 21.7209 14.9007L21.6142 14.9719C21.3753 15.0887 21.0399 14.9769 20.862 14.7228L21.0043 14.7584C21.1466 14.794 21.7209 14.6771 22.0461 14.4484L22.3663 14.2197C22.6052 13.9453 22.7983 13.5946 22.7983 13.4371C22.7983 13.2846 22.717 13.1016 22.6204 13.0305L22.5137 12.9949C22.407 12.9593 22.407 12.9593 22.407 12.9593C22.2291 12.939 22.0207 12.8679 21.9394 12.7967C21.8581 12.7256 21.4719 12.4613 21.0805 12.2021L21.3296 12.2377L21.5786 12.2733C22.1122 12.4918 22.8237 12.6849 23.1591 12.7052L23.2658 12.6697C23.3726 12.6341 23.9824 13.0661 24.0891 13.1575C24.1959 13.2439 24.4855 13.6759 24.6278 13.8741L24.7701 14.0723C24.7854 14.0876 24.7955 14.1079 24.8108 14.1231C24.2314 20.1302 19.1595 24.8514 13 24.8514Z" fill="#397abd"></path></g><defs><clipPath id="clip0_2327_6317"><rect width="26" height="26" fill="white"></rect></clipPath></defs></svg>