<svg xmlns="http://www.w3.org/2000/svg" xmlns:xlink="http://www.w3.org/1999/xlink" id="&#x5716;&#x5C64;_1" x="0px" y="0px" viewBox="0 0 29 28" style="enable-background:new 0 0 29 28;" xml:space="preserve"><style type="text/css">	.st0{fill:#00828C;}</style><path class="st0" d="M14.5,28c-7.7,0-14-6.3-14-14s6.3-14,14-14s14,6.3,14,14S22.2,28,14.5,28z M14.5,1.2C7.4,1.2,1.7,7,1.7,14 s5.7,12.8,12.8,12.8S27.2,21,27.2,14S21.5,1.2,14.5,1.2z"></path><path class="st0" d="M6.1,18V9.6h3.8c0.9,0,1.7,0.2,2.4,0.5c0.7,0.3,1.2,0.8,1.6,1.5s0.6,1.4,0.6,2.2c0,0.8-0.2,1.6-0.6,2.2 c-0.4,0.6-0.9,1.1-1.6,1.5c-0.7,0.3-1.5,0.5-2.4,0.5H6.1z M8,16.4h1.8c0.6,0,1-0.1,1.5-0.3c0.4-0.2,0.7-0.5,1-0.9 c0.2-0.4,0.3-0.9,0.3-1.4c0-0.5-0.1-1-0.3-1.4c-0.2-0.4-0.5-0.7-1-0.9c-0.4-0.2-0.9-0.3-1.5-0.3H8V16.4z M20,18.2 c-0.6,0-1.3-0.1-1.8-0.3c-0.6-0.2-1-0.5-1.4-0.9c-0.4-0.4-0.7-0.9-1-1.4c-0.2-0.5-0.3-1.1-0.3-1.7s0.1-1.2,0.3-1.7 c0.2-0.5,0.6-1,1-1.4c0.4-0.4,0.9-0.7,1.5-0.9c0.6-0.2,1.2-0.3,1.8-0.3c0.7,0,1.4,0.1,2,0.4c0.6,0.2,1.1,0.6,1.5,1.1l-1.2,1.2 c-0.3-0.3-0.6-0.6-1-0.7c-0.4-0.2-0.7-0.3-1.2-0.3c-0.4,0-0.8,0.1-1.1,0.2c-0.3,0.1-0.6,0.3-0.9,0.6s-0.4,0.5-0.6,0.9 c-0.1,0.3-0.2,0.7-0.2,1.1c0,0.4,0.1,0.8,0.2,1.1c0.1,0.3,0.3,0.6,0.6,0.9s0.5,0.4,0.9,0.6c0.3,0.1,0.7,0.2,1.1,0.2 c0.4,0,0.8-0.1,1.2-0.2c0.4-0.2,0.7-0.4,1-0.8l1.2,1.2c-0.4,0.5-0.9,0.9-1.5,1.1C21.4,18.1,20.8,18.2,20,18.2z"></path></svg>