<svg xmlns="http://www.w3.org/2000/svg" xmlns:xlink="http://www.w3.org/1999/xlink" id="&#x5716;&#x5C64;_1" x="0px" y="0px" viewBox="0 0 29 29" style="enable-background:new 0 0 29 29;" xml:space="preserve"><style type="text/css">	.st0{fill:#00828C;}</style><path class="st0" d="M14.5,28.5c-7.7,0-14-6.3-14-14s6.3-14,14-14s14,6.3,14,14S22.2,28.5,14.5,28.5z M14.5,1.8 c-7,0-12.8,5.7-12.8,12.8s5.7,12.8,12.8,12.8s12.8-5.7,12.8-12.8S21.5,1.8,14.5,1.8z"></path><g>	<path class="st0" d="M8.7,10.1l-3.7,8.4h2l0.7-1.8h3.9l0.7,1.8h2l-3.8-8.4H8.7z M8.3,15.3L9.6,12l1.3,3.2H8.3z"></path>	<path class="st0" d="M20.4,16.8C20,16.9,19.6,17,19.2,17c-0.4,0-0.8-0.1-1.1-0.2c-0.3-0.1-0.6-0.3-0.9-0.6  c-0.2-0.2-0.4-0.5-0.6-0.9c-0.1-0.3-0.2-0.7-0.2-1.1s0.1-0.8,0.2-1.1c0.1-0.3,0.3-0.6,0.6-0.9c0.2-0.2,0.5-0.4,0.9-0.6  c0.3-0.1,0.7-0.2,1.1-0.2c0.4,0,0.8,0.1,1.2,0.3c0.4,0.2,0.7,0.4,1,0.7l1.2-1.2c-0.4-0.5-0.9-0.9-1.5-1.1c-0.6-0.3-1.2-0.4-2-0.4  c-0.7,0-1.3,0.1-1.8,0.3c-0.6,0.2-1,0.5-1.5,0.9c-0.4,0.4-0.7,0.9-1,1.4c-0.2,0.5-0.3,1.1-0.3,1.7s0.1,1.2,0.3,1.7  c0.2,0.5,0.6,1,1,1.4c0.4,0.4,0.9,0.7,1.4,0.9c0.6,0.2,1.2,0.3,1.8,0.3c0.7,0,1.4-0.1,2-0.4c0.6-0.3,1.1-0.6,1.5-1.1L21.3,16  C21,16.4,20.7,16.6,20.4,16.8z"></path></g></svg>