<svg xmlns="http://www.w3.org/2000/svg" width="55" height="43" viewBox="0 0 55 43" fill="none"><g clip-path="url(#clip0_2362_10066)"><path d="M39.1412 35.4133C39.4947 35.7502 39.9745 35.9373 40.467 35.9373C40.9594 35.9373 41.4392 35.7502 41.7927 35.4133C42.1462 35.0639 42.3483 34.5772 42.3483 34.0906C42.3483 33.5914 42.1462 33.1173 41.7927 32.7679L30.8457 21.9992L27.1841 25.6178C26.6286 26.1419 25.8962 26.4289 25.1387 26.4289C24.3811 26.4289 23.6361 26.1419 23.0932 25.6178C21.7801 24.3076 21.0351 22.5357 21.0351 20.6889C21.0351 18.8422 21.7801 17.0703 23.0932 15.76L25.8457 13.0398L23.0932 10.3445L8.88867 24.3201L11.717 27.1152L14.0781 24.6945C14.5705 24.2203 15.2271 23.9707 15.8962 23.9707C16.5781 23.9707 17.2346 24.2328 17.7144 24.6945C18.2069 25.1561 18.4846 25.805 18.4846 26.4788C18.4846 26.6286 18.472 26.7783 18.4468 26.9281V27.0404V27.1527H18.6614C18.8129 27.1277 18.9644 27.1152 19.1159 27.1152C19.7851 27.1028 20.4291 27.3523 20.9089 27.8265C21.4013 28.3007 21.6664 28.9495 21.6664 29.6234C21.6664 29.7606 21.6538 29.9104 21.6286 30.0476V30.2473H21.8432C21.9695 30.2223 22.0957 30.2098 22.222 30.2098H22.2978C22.4367 30.2098 22.5755 30.2223 22.7144 30.2473H22.8786C22.9796 30.2722 23.068 30.2972 23.169 30.3346L23.3584 30.4095C23.4594 30.4594 23.5604 30.5093 23.6614 30.5592L23.7877 30.6466C23.9139 30.7339 24.0276 30.8213 24.1286 30.9211C24.6084 31.4077 24.8735 32.0566 24.8735 32.7304C24.8735 33.4043 24.6084 34.0531 24.1286 34.5398L23.169 35.5006C23.8634 35.4757 24.5452 35.7377 25.0503 36.2243C25.5553 36.711 25.8331 37.3723 25.8331 38.0586C25.8331 38.2333 25.8205 38.3956 25.7826 38.5578C25.7069 38.8697 25.5806 39.1692 25.3912 39.4437C25.3912 39.4437 25.3407 39.5061 25.3154 39.5436C25.2397 39.6434 25.1513 39.7432 25.0629 39.843L24.8356 40.0676L27.2725 42.5009C27.6387 42.8378 28.1185 43.025 28.6109 43.025C29.1033 43.025 29.5831 42.8378 29.9493 42.5009C30.3028 42.1515 30.4922 41.6773 30.4922 41.1907C30.4922 40.704 30.2902 40.2299 29.9493 39.8805L27.5755 37.5096L28.068 37.023L30.4417 39.3689L32.8028 41.7148C33.1563 42.0517 33.6361 42.2389 34.1286 42.2389C34.621 42.2389 35.1008 42.0517 35.4543 41.7148C35.8079 41.3654 36.0099 40.8912 36.0099 40.3921C36.0099 39.8929 35.8079 39.4188 35.4543 39.0694L30.7069 34.3776L31.1993 33.8909L35.972 38.5703C36.3382 38.9072 36.818 39.0943 37.3104 39.0943C37.8028 39.0943 38.2826 38.9072 38.6488 38.5703C39.0023 38.2209 39.1917 37.7467 39.1917 37.26C39.1917 36.7734 38.9897 36.2992 38.6488 35.9498L33.9139 31.258L34.4063 30.7714L39.1538 35.4632L39.1412 35.4133Z" fill="#007B85"></path><path d="M21.4013 42.4759L24.5453 39.3563C24.8988 39.0069 25.1008 38.5328 25.1008 38.0336C25.1008 37.547 24.8988 37.0728 24.5453 36.7234C24.1917 36.374 23.7119 36.1744 23.2195 36.1744C22.7271 36.1744 22.2473 36.374 21.8938 36.7109L18.7246 39.818C18.371 40.1674 18.1816 40.6416 18.1816 41.1407C18.1816 41.6274 18.3837 42.1015 18.7246 42.4634C19.0907 42.8003 19.5579 43 20.063 43C20.5428 42.9875 21.0352 42.8003 21.4013 42.4759Z" fill="#007B85"></path><path d="M18.2188 39.3314L23.5723 34.0905C23.9259 33.7411 24.1279 33.267 24.1153 32.7678C24.1153 32.2687 23.9132 31.7945 23.5597 31.4451C23.2062 31.0957 22.7264 30.9086 22.2213 30.9086C21.7289 30.9086 21.2491 31.1082 20.8956 31.4576L15.5673 36.7234C15.2137 37.0728 15.0117 37.547 15.0117 38.0461C15.0117 38.5452 15.2137 39.0194 15.5673 39.3688C15.9334 39.6932 16.4132 39.8679 16.9057 39.8679C17.3855 39.8555 17.8526 39.6558 18.2188 39.3314Z" fill="#007B85"></path><path d="M15.0636 36.1869L20.4171 30.9335C20.7707 30.5841 20.9727 30.11 20.9727 29.6108C20.9727 29.1117 20.7707 28.6375 20.4171 28.2882C20.0636 27.9388 19.5838 27.7391 19.0914 27.7516C18.5989 27.7391 18.1065 27.9388 17.7656 28.2882L12.4247 33.5664C12.0712 33.9158 11.8691 34.39 11.8691 34.8891C11.8691 35.3758 12.0585 35.8375 12.3868 36.1869C12.7404 36.5238 13.2202 36.711 13.7252 36.711C14.2303 36.711 14.7101 36.5238 15.0636 36.1869Z" fill="#007B85"></path><path d="M17.2217 27.8015C17.4868 27.5395 17.6636 27.2026 17.7393 26.8407C17.752 26.7159 17.752 26.5911 17.7393 26.4663C17.7393 25.9797 17.5373 25.518 17.1838 25.1686C16.8303 24.8067 16.3505 24.6196 15.858 24.6196C15.3656 24.6196 14.8858 24.8192 14.5323 25.1686L9.20399 30.4344C8.85046 30.7838 8.64844 31.2705 8.64844 31.7571C8.64844 32.2438 8.85046 32.7055 9.20399 33.0549C9.55753 33.3918 10.0373 33.5789 10.5424 33.5789C11.0348 33.5789 11.5146 33.3918 11.8808 33.0549L17.2217 27.8015Z" fill="#007B85"></path><path d="M34.4946 12.8776C33.3835 11.7795 32.4112 10.9809 31.3885 10.7064C30.2016 10.3944 29.0653 10.8311 27.8153 12.0665L23.5729 16.2592C22.386 17.4321 21.7168 19.0293 21.7168 20.7014C21.7168 22.3735 22.386 23.9582 23.5729 25.1437C23.9895 25.5305 24.5451 25.7551 25.1259 25.7551C25.7067 25.7551 26.2623 25.543 26.6789 25.1437L30.5804 21.2879C30.6436 21.2255 30.7319 21.1756 30.833 21.1881C30.9213 21.1881 31.0097 21.2255 31.0729 21.2879L31.9062 22.0615L40.29 30.3346L45.7698 24.6945L34.4946 12.8776Z" fill="#007B85"></path><path d="M54.5445 16.5711L38.2819 0.499143C37.6758 -0.0998121 36.691 -0.0998121 36.0849 0.499143L32.4233 4.04296C31.8172 4.64192 31.8172 5.61522 32.4233 6.21418L48.6859 22.2861C49.3046 22.8726 50.2642 22.8726 50.8829 22.2861L54.5445 18.7174C55.1506 18.1184 55.1506 17.1451 54.5445 16.5462V16.5711Z" fill="#87E1E8"></path><path d="M6.27525 22.3236L22.5379 6.2516C22.8409 5.9646 23.0177 5.56529 23.0177 5.14103C23.0177 4.72925 22.8409 4.31747 22.5379 4.03047L18.9015 0.449216C18.2955 -0.149739 17.3106 -0.149739 16.7045 0.449216L0.454545 16.5212C-0.151515 17.1201 -0.151515 18.0934 0.454545 18.6924L4.09091 22.2861C4.68434 22.8726 5.65657 22.8851 6.27525 22.3236Z" fill="#87E1E8"></path></g><defs><clipPath id="clip0_2362_10066"><rect width="55" height="43" fill="white"></rect></clipPath></defs></svg>