<svg xmlns="http://www.w3.org/2000/svg" width="39" height="39" viewBox="0 0 39 39" fill="none"><path d="M0 38.962H39V9.44836H31.8211V0H7.14555V9.48176H0V38.962ZM31.8544 10.4166H38.0651V38.0605H31.8544V10.4166ZM8.14726 0.901438H30.8861V38.0272H23.5402V28.4786H15.4932V38.0272H8.14726V0.901438ZM0.934932 10.3832H7.14555V38.0272H0.934932V10.3832Z" fill="#0C8891"></path><path d="M12.125 9.0138C12.125 8.0456 12.125 7.11079 12.125 6.14258C13.0933 6.14258 14.0283 6.14258 15.03 6.14258C15.03 7.11079 15.03 8.0456 15.03 9.0138C14.0616 9.0138 13.1267 9.0138 12.125 9.0138Z" fill="#0C8891"></path><path d="M20.9028 9.014C19.9345 9.014 18.9996 9.014 18.0312 9.014C18.0312 8.04579 18.0312 7.11097 18.0312 6.10938C18.9662 6.10938 19.9345 6.10938 20.9028 6.10938C20.9028 7.07758 20.9028 8.01241 20.9028 9.014Z" fill="#0C8891"></path><path d="M23.9766 9.014C23.9766 8.01241 23.9766 7.07758 23.9766 6.10938C24.8447 6.10938 25.7129 6.10938 26.5476 6.10938C26.6812 6.10938 26.8815 6.3097 26.8815 6.40986C26.9149 7.24452 26.8815 8.11257 26.8815 8.98062C25.8798 9.01401 24.9449 9.014 23.9766 9.014Z" fill="#0C8891"></path><path d="M15.03 14.9573C14.0283 14.9573 13.0933 14.9573 12.125 14.9573C12.125 13.9891 12.125 13.0209 12.125 12.0527C13.0933 12.0527 14.0283 12.0527 15.03 12.0527C15.03 13.0209 15.03 13.9891 15.03 14.9573Z" fill="#0C8891"></path><path d="M18.0312 12.0527C18.9996 12.0527 19.9345 12.0527 20.9028 12.0527C20.9028 13.0209 20.9028 13.9557 20.9028 14.9573C19.9679 14.9573 19.033 14.9573 18.0312 14.9573C18.0312 14.0225 18.0312 13.0543 18.0312 12.0527Z" fill="#0C8891"></path><path d="M23.9766 14.9906C23.9766 13.989 23.9766 13.0875 23.9766 12.0859C24.9115 12.0859 25.8798 12.0859 26.8481 12.0859C26.8481 13.0208 26.8481 13.989 26.8481 14.9906C25.8798 14.9906 24.9449 14.9906 23.9766 14.9906Z" fill="#0C8891"></path><path d="M15.03 17.9961C15.03 18.9643 15.03 19.8991 15.03 20.8673C14.0616 20.8673 13.1267 20.8673 12.125 20.8673C12.125 19.9325 12.125 18.9643 12.125 17.9961C13.0599 17.9961 14.0283 17.9961 15.03 17.9961Z" fill="#0C8891"></path><path d="M18.0312 20.8675C18.0312 19.8659 18.0312 18.9311 18.0312 17.9629C18.9996 17.9629 19.9679 17.9629 20.9362 17.9629C20.9362 18.9311 20.9362 19.8659 20.9362 20.8675C19.9345 20.8675 18.9996 20.8675 18.0312 20.8675Z" fill="#0C8891"></path><path d="M23.9766 20.8657C23.9766 19.8975 23.9766 18.9627 23.9766 17.9277C24.8781 17.9277 25.7463 17.9277 26.6144 17.9277C26.7146 17.9277 26.8815 18.1281 26.9149 18.2282C26.9483 19.0963 26.9149 19.9643 26.9149 20.8657C25.8798 20.8657 24.9449 20.8657 23.9766 20.8657Z" fill="#0C8891"></path></svg>