<svg xmlns="http://www.w3.org/2000/svg" width="27" height="26" viewBox="0 0 27 26" fill="none"><path d="M25.5363 22.5876C25.3772 22.5876 25.3374 22.5497 25.2977 22.3604C25.1385 21.5654 24.6612 21.0354 23.9053 20.7326C23.7064 20.6569 23.5473 20.5433 23.3882 20.3162C22.9108 19.7104 22.1948 19.3697 21.439 19.3697C20.6831 19.3697 19.9671 19.7104 19.4897 20.3162C19.3306 20.5054 19.1715 20.6569 18.9328 20.7326C18.2167 21.0354 17.7394 21.5654 17.5802 22.2847C17.5405 22.5497 17.4609 22.5876 17.2222 22.5876C15.8697 22.5876 14.5569 22.5497 13.2044 22.5876C13.0055 22.5876 12.8861 22.5497 12.8464 22.5118C12.8066 22.474 12.7668 22.3604 12.7668 22.1711C12.7668 19.9376 12.7668 17.704 12.7668 15.5083V13.7291C12.7668 13.0855 12.6077 12.9341 11.9314 12.9341C10.1811 12.9341 8.39094 12.9341 6.6406 12.9341C5.88477 12.9341 5.76543 13.0477 5.76543 13.7669V15.3948C5.76543 17.6662 5.76543 19.8997 5.76543 22.1711C5.76543 22.3604 5.72565 22.4361 5.68586 22.5118C5.64608 22.5497 5.52674 22.5497 5.4074 22.5497C5.16872 22.5118 4.93003 22.5118 4.69135 22.5497C4.57201 22.5497 4.45267 22.5497 4.41289 22.5118C4.37311 22.474 4.33333 22.3604 4.33333 22.209C4.33333 19.2183 4.33333 15.9626 4.33333 11.9877C4.33333 11.7605 4.41289 11.6091 4.57201 11.4955C6.91906 9.67841 10.0219 7.25558 13.1248 4.79489C13.4033 4.56775 13.5226 4.56775 13.8011 4.79489C16.3868 6.83916 19.1715 8.99699 22.3141 11.4577C22.513 11.6091 22.5926 11.7984 22.5926 12.0634C22.5926 13.8048 22.5926 15.5462 22.5926 17.3255V18.4233C22.5926 18.5747 22.5926 18.6883 22.6324 18.8397C22.6721 19.0669 22.871 19.2183 23.1097 19.2183C23.3882 19.2183 23.5871 19.1047 23.6667 18.8397C23.7064 18.6883 23.7064 18.5747 23.7064 18.4233V18.3855V16.3791C23.7064 15.2055 23.7064 14.0698 23.7064 12.8962C23.7064 12.8584 23.7064 12.8205 23.7064 12.7827C23.7064 12.707 23.7064 12.6691 23.7064 12.5934C24.3827 12.9341 24.4623 12.8962 24.9794 12.2905L25.2977 11.9498C25.5363 11.6848 25.7352 11.4577 25.9739 11.1927C26.3717 10.7384 26.332 10.4734 25.8546 10.0948L25.8148 10.057C25.2181 9.56484 24.6214 9.07271 23.9849 8.61843C23.7462 8.467 23.6667 8.27771 23.6667 7.97486C23.6667 6.04417 23.6667 4.15133 23.6667 1.91778C23.6667 1.19851 23.3086 0.857797 22.5528 0.857797C21.7174 0.857797 20.9218 0.857797 20.0864 0.857797H19.609C18.6145 0.857797 18.3361 1.12279 18.3361 2.06921V4.18919C18.2963 4.15133 18.2565 4.15133 18.2565 4.11348L16.7051 2.90206C16.0288 2.37206 15.3923 1.87993 14.716 1.34993C13.8409 0.668512 13.0453 0.668512 12.1701 1.34993C9.78326 3.20491 7.35665 5.09775 4.96982 6.95273C3.65706 7.97486 2.38408 8.99699 1.07132 10.0191C0.713299 10.322 0.514397 10.587 0.872421 11.0034C1.31001 11.5334 1.82715 12.0634 2.22496 12.5555C2.46364 12.7827 2.74211 12.8205 3.02057 12.6312C3.06035 12.6312 3.06035 12.5934 3.10013 12.5934C3.13991 12.5555 3.17969 12.5555 3.21947 12.5177V16.0383C3.21947 18.1205 3.21947 20.2404 3.21947 22.3226C3.21947 22.3983 3.21947 22.474 3.17969 22.474C3.13991 22.5118 3.10013 22.5118 2.94101 22.5118C2.66254 22.5118 2.3443 22.5118 2.06584 22.5118C1.82715 22.5118 1.58847 22.5118 1.34979 22.5118C1.15088 22.5118 0.991763 22.5497 0.872421 22.6633C0.75308 22.7768 0.713299 22.9283 0.713299 23.1554C0.713299 23.4204 0.713299 23.6854 0.713299 23.9504C0.713299 24.1775 0.713299 24.3668 0.713299 24.594C0.713299 24.9725 0.912202 25.1618 1.31001 25.1618C1.42935 25.1618 1.54869 25.1618 1.66803 25.1618H25.3374H25.6159C25.8148 25.1618 25.9739 25.124 26.0933 25.0104C26.2126 24.8968 26.2524 24.7454 26.2524 24.5561C26.2524 24.1018 26.2524 23.6097 26.2524 23.1554C26.2524 22.9283 26.2126 22.7768 26.0933 22.6633C25.8944 22.6254 25.7352 22.5876 25.5363 22.5876ZM18.6543 22.3226C18.8134 21.944 19.0919 21.7547 19.4499 21.679C19.8477 21.6033 20.0864 21.4519 20.2058 21.1111C20.4842 20.5433 20.9616 20.4297 21.3594 20.4297C21.7572 20.4297 22.2346 20.5433 22.513 21.1111C22.6721 21.4519 22.9108 21.6033 23.2689 21.679C23.6269 21.7169 23.8656 21.944 24.0645 22.3226C24.144 22.474 24.1042 22.5118 24.1042 22.5497C24.1042 22.5497 24.0645 22.5876 23.8656 22.5876C23.2689 22.5876 22.6721 22.5876 22.0754 22.5876C21.5981 22.5876 21.0809 22.5876 20.6036 22.5876C20.0069 22.5876 19.4101 22.5876 18.8134 22.5876C18.6543 22.5876 18.6145 22.5497 18.5748 22.5497C18.6145 22.5118 18.6145 22.474 18.6543 22.3226ZM6.75994 14.2969C6.75994 14.1834 6.75994 14.0698 6.8395 14.0319C6.87928 13.9941 6.95884 13.9562 7.07818 13.9941C8.58984 13.9941 9.94238 13.9941 11.2551 13.9941C11.4143 13.9941 11.4938 13.9941 11.5336 14.0698C11.5734 14.1076 11.6132 14.1834 11.6132 14.3348C11.6132 15.3191 11.6132 16.3033 11.6132 17.2876V18.3476V19.4076C11.6132 20.354 11.6132 21.3383 11.6132 22.2847C11.6132 22.4361 11.6132 22.5118 11.5336 22.5497C11.4938 22.5876 11.4143 22.6254 11.2551 22.6254C10.5789 22.6254 9.9026 22.6254 9.18655 22.6254C8.51028 22.6254 7.79423 22.6254 7.07818 22.6254C6.95884 22.6254 6.87928 22.6254 6.8395 22.5876C6.79972 22.5497 6.75994 22.474 6.75994 22.3226C6.75994 19.6347 6.75994 16.9469 6.75994 14.2969ZM19.4101 3.9999C19.4499 3.54562 19.4499 3.05349 19.4499 2.59921C19.4499 2.48564 19.4499 2.33421 19.4499 2.22064C19.4499 2.10707 19.4499 2.03136 19.4897 1.9935C19.5295 1.95564 19.609 1.95564 19.6886 1.95564C20.5638 1.95564 21.439 1.95564 22.2743 1.95564C22.3937 1.95564 22.4335 1.95564 22.4732 1.9935C22.513 2.03136 22.513 2.06921 22.513 2.18278C22.513 3.54562 22.513 4.90847 22.513 6.34702V7.55844C22.3141 7.40701 22.1152 7.25558 21.9163 7.0663C21.3594 6.61202 20.8422 6.1956 20.2853 5.81703C19.5693 5.36275 19.2908 4.7949 19.4101 3.9999ZM3.10013 11.1548C3.06035 11.1927 2.98079 11.2305 2.94101 11.2684C2.82167 11.382 2.74211 11.4198 2.66254 11.4198C2.58298 11.4198 2.46364 11.3441 2.38408 11.1927L2.3443 11.1548C1.98628 10.7005 1.98628 10.7005 2.50342 10.2841C4.85047 8.42914 7.2373 6.57416 9.58436 4.71918L12.8066 2.25849C13.0055 2.10707 13.1646 1.9935 13.3635 2.03136C13.6022 1.9935 13.7613 2.14492 13.9204 2.25849L20.3649 7.25558L23.07 9.37556C23.5473 9.75413 24.0645 10.1706 24.5816 10.5491C24.701 10.6248 24.7407 10.7005 24.7407 10.7384C24.7407 10.7763 24.701 10.852 24.6214 10.9277C24.5021 11.0413 24.4225 11.1548 24.3429 11.2305C24.2236 11.3441 24.144 11.4577 24.1042 11.4577C24.0645 11.4577 23.9053 11.3441 23.7064 11.1927C23.6269 11.1548 23.5871 11.0791 23.5075 11.0034L22.3937 10.1327C19.609 7.93701 16.8244 5.77917 14 3.58348C13.7613 3.3942 13.6022 3.31848 13.4033 3.31848C13.2442 3.31848 13.0453 3.3942 12.8464 3.58348C10.4197 5.47632 7.99313 7.40701 5.56652 9.29985L3.21947 11.117L3.10013 11.1548ZM24.7407 24.1775C17.2222 24.1775 9.54457 24.1775 2.02606 24.1775C1.74759 24.1775 1.70781 24.1397 1.70781 23.8747C1.70781 23.7611 1.70781 23.6854 1.74759 23.6475C1.78737 23.6097 1.90671 23.6097 2.02606 23.6097C5.12894 23.6097 8.19204 23.6097 11.2949 23.6097H16.3868C19.1317 23.6097 21.9163 23.6097 24.701 23.6097C24.8601 23.6097 24.9794 23.6097 25.0192 23.6475C25.059 23.6854 25.059 23.7611 25.059 23.8747C25.059 24.1397 24.9794 24.1775 24.7407 24.1775Z" fill="#00828C"></path><path d="M14.7954 12.9346C14.2783 12.9346 14.1191 13.086 14.1191 13.616C14.1191 15.1303 14.1191 16.6067 14.1191 18.1209C14.1191 18.6509 14.2783 18.8024 14.8352 18.8024C15.4717 18.8024 16.1082 18.8024 16.7844 18.8024H17.58H18.4154C18.6939 18.8024 18.9724 18.8024 19.2508 18.8024C19.6486 18.8024 20.0067 18.8024 20.4045 18.8024C20.9614 18.8024 21.1205 18.6509 21.1205 18.1588C21.1205 16.6445 21.1205 15.1303 21.1205 13.616C21.1205 13.1239 20.9614 12.9346 20.4045 12.9346C18.5348 12.9346 16.6651 12.9346 14.7954 12.9346ZM18.6939 16.4174C18.8132 16.4174 18.8928 16.4174 19.0121 16.4174C19.2508 16.4174 19.4895 16.4174 19.7282 16.4174C19.8475 16.4174 19.9271 16.4174 19.9669 16.4552C20.0067 16.4931 20.0067 16.5688 20.0067 16.6445C20.0067 16.9474 20.0067 17.2124 20.0067 17.4774C20.0067 17.5909 20.0067 17.6667 19.9669 17.7045C19.9271 17.7424 19.8475 17.7424 19.7282 17.7424C19.6486 17.7424 19.5691 17.7424 19.4497 17.7424C19.3702 17.7424 19.2906 17.7424 19.2508 17.7424C19.1713 17.7424 19.1315 17.7424 19.0519 17.7424C18.6143 17.7424 18.3359 17.7424 18.2563 17.6667C18.1768 17.5909 18.1768 17.3638 18.1768 16.9095C18.137 16.4174 18.137 16.4174 18.6939 16.4174ZM19.5293 15.3574C19.41 15.3574 19.2906 15.3574 19.1315 15.3574C18.853 15.3574 18.6143 15.3574 18.3359 15.3574C18.2563 15.3574 18.1768 15.3574 18.1768 15.3195C18.137 15.2817 18.137 15.2438 18.137 15.1303V15.0924C18.137 14.8274 18.137 14.5624 18.137 14.2974C18.137 14.146 18.137 14.0703 18.1768 13.9946C18.2165 13.9567 18.2961 13.9567 18.3757 13.9567C18.4154 13.9567 18.4154 13.9567 18.4552 13.9567C18.5746 13.9567 18.7337 13.9567 18.853 13.9567C18.8928 13.9567 18.9724 13.9567 19.0121 13.9567C19.4895 13.9567 19.768 13.9567 19.8475 14.0703C19.9669 14.1838 19.9669 14.411 19.9669 14.9031C20.0067 15.3574 20.0067 15.3574 19.5293 15.3574ZM17.0231 16.8338C17.0231 17.2881 17.0231 17.5531 16.9038 17.6667C16.7844 17.7802 16.5458 17.7802 16.0684 17.7802C15.6308 17.7802 15.3523 17.7802 15.2728 17.7045C15.1932 17.6288 15.1932 17.3638 15.1932 16.9474C15.1932 16.4552 15.1932 16.4552 15.7104 16.4552C15.8297 16.4552 15.949 16.4552 16.0286 16.4552C16.2673 16.4552 16.5458 16.4552 16.7844 16.4552C16.9038 16.4552 16.9436 16.4552 16.9833 16.4931C17.0231 16.531 17.0231 16.5688 17.0231 16.6824C17.0231 16.7202 17.0231 16.796 17.0231 16.8338ZM16.9833 15.3195C16.9436 15.3574 16.864 15.3574 16.7844 15.3574C16.7049 15.3574 16.6253 15.3574 16.506 15.3574C16.4264 15.3574 16.3866 15.3574 16.3071 15.3574C16.2275 15.3574 16.1877 15.3574 16.1082 15.3574C15.6308 15.3574 15.3921 15.3574 15.2728 15.2817C15.1932 15.206 15.1932 14.941 15.1932 14.5246C15.1932 14.0324 15.1932 14.0324 15.7104 14.0324H16.0684C16.3071 14.0324 16.5458 14.0324 16.8242 14.0324C16.9038 14.0324 16.9833 14.0324 17.0231 14.0703C17.0629 14.1081 17.0629 14.146 17.0629 14.2217C17.0629 14.5624 17.0629 14.8653 17.0629 15.1303C17.0629 15.206 17.0231 15.2817 16.9833 15.3195Z" fill="#00828C"></path></svg>