<svg xmlns="http://www.w3.org/2000/svg" width="107" height="103" viewBox="0 0 107 103" fill="none"><g clip-path="url(#clip0_2011_8413)"><path d="M82.6616 71.1815H66.834V102.035H82.6616V71.1815Z" stroke="#00818E" stroke-width="2.5" stroke-linecap="round" stroke-linejoin="round"></path><path d="M58.6311 9.5127H33.3301V19.7201H58.6311V9.5127Z" stroke="#00818E" stroke-width="2.5" stroke-linecap="round" stroke-linejoin="round"></path><path d="M82.6807 102.035V53.8733H104.458V102.035" stroke="#00818E" stroke-width="2.5" stroke-linecap="round" stroke-linejoin="round"></path><path d="M41.7256 9.51268V0.964722H50.2555V9.51268" stroke="#00818E" stroke-width="2.5" stroke-linecap="round" stroke-linejoin="round"></path><path d="M35.4678 30.5449V26.4349" stroke="#00818E" stroke-width="2.5" stroke-linecap="round" stroke-linejoin="round"></path><path d="M46 30.5449V26.4349" stroke="#00818E" stroke-width="2.5" stroke-linecap="round" stroke-linejoin="round"></path><path d="M56.5137 30.5449V26.4349" stroke="#00818E" stroke-width="2.5" stroke-linecap="round" stroke-linejoin="round"></path><path d="M35.4678 42.0837V37.9738" stroke="#00818E" stroke-width="2.5" stroke-linecap="round" stroke-linejoin="round"></path><path d="M46 42.0837V37.9738" stroke="#00818E" stroke-width="2.5" stroke-linecap="round" stroke-linejoin="round"></path><path d="M56.5137 42.0837V37.9738" stroke="#00818E" stroke-width="2.5" stroke-linecap="round" stroke-linejoin="round"></path><path d="M35.4678 53.6224V49.5317" stroke="#00818E" stroke-width="2.5" stroke-linecap="round" stroke-linejoin="round"></path><path d="M46 53.6224V49.5317" stroke="#00818E" stroke-width="2.5" stroke-linecap="round" stroke-linejoin="round"></path><path d="M56.5137 53.6224V49.5317" stroke="#00818E" stroke-width="2.5" stroke-linecap="round" stroke-linejoin="round"></path><path d="M35.4678 65.1612V61.0706" stroke="#00818E" stroke-width="2.5" stroke-linecap="round" stroke-linejoin="round"></path><path d="M46 65.1612V61.0706" stroke="#00818E" stroke-width="2.5" stroke-linecap="round" stroke-linejoin="round"></path><path d="M56.5137 65.1612V61.0706" stroke="#00818E" stroke-width="2.5" stroke-linecap="round" stroke-linejoin="round"></path><path d="M35.4678 76.7V72.6094" stroke="#00818E" stroke-width="2.5" stroke-linecap="round" stroke-linejoin="round"></path><path d="M46 76.7V72.6094" stroke="#00818E" stroke-width="2.5" stroke-linecap="round" stroke-linejoin="round"></path><path d="M56.5137 76.7V72.6094" stroke="#00818E" stroke-width="2.5" stroke-linecap="round" stroke-linejoin="round"></path><path d="M35.4678 88.258V84.1481" stroke="#00818E" stroke-width="2.5" stroke-linecap="round" stroke-linejoin="round"></path><path d="M46 88.258V84.1481" stroke="#00818E" stroke-width="2.5" stroke-linecap="round" stroke-linejoin="round"></path><path d="M56.5137 88.258V84.1481" stroke="#00818E" stroke-width="2.5" stroke-linecap="round" stroke-linejoin="round"></path><path d="M25.1475 102.035V19.7008H66.8345V102.035" stroke="#00818E" stroke-width="2.5" stroke-linecap="round" stroke-linejoin="round"></path><path d="M25.1475 102.035H106.038" stroke="#00818E" stroke-width="2.5" stroke-linecap="round" stroke-linejoin="round"></path><path d="M89.8828 59.5463V89.9369" stroke="#00818E" stroke-width="2.5" stroke-linecap="round" stroke-linejoin="round"></path><path d="M97.2578 59.5463V89.9369" stroke="#00818E" stroke-width="2.5" stroke-linecap="round" stroke-linejoin="round"></path><path d="M54.1835 94.9923H38.4521V102.035H54.1835V94.9923Z" stroke="#00818E" stroke-width="2.5" stroke-linecap="round" stroke-linejoin="round"></path><path d="M97.5071 94.9923H89.6318V102.035H97.5071V94.9923Z" stroke="#00818E" stroke-width="2.5" stroke-linecap="round" stroke-linejoin="round"></path><path d="M66.834 33.1498H78.4448H91.904V52.8506" stroke="#00818E" stroke-width="2.5" stroke-linecap="round" stroke-linejoin="round"></path><path d="M83.7788 33.1499V21.3217H79.6198H76.3271V33.1499" stroke="#00818E" stroke-width="2.5" stroke-linecap="round" stroke-linejoin="round"></path><path d="M80.0625 10.6318V21.3216" stroke="#00818E" stroke-width="2.5" stroke-linecap="round" stroke-linejoin="round"></path><path d="M70.9355 77.1631H79.2922" stroke="#00818E" stroke-width="2.5" stroke-linecap="round" stroke-linejoin="round"></path><path d="M70.9355 82.4886H79.2922" stroke="#00818E" stroke-width="2.5" stroke-linecap="round" stroke-linejoin="round"></path><path d="M70.9355 89.1071H79.2922" stroke="#00818E" stroke-width="2.5" stroke-linecap="round" stroke-linejoin="round"></path><path d="M13.2666 96.6708V93.8729" stroke="#00818E" stroke-width="2.5" stroke-linecap="round" stroke-linejoin="round"></path><path d="M6.14258 96.6708V93.8729" stroke="#00818E" stroke-width="2.5" stroke-linecap="round" stroke-linejoin="round"></path><path d="M13.2666 88.7985V85.9813" stroke="#00818E" stroke-width="2.5" stroke-linecap="round" stroke-linejoin="round"></path><path d="M6.14258 88.7985V85.9813" stroke="#00818E" stroke-width="2.5" stroke-linecap="round" stroke-linejoin="round"></path><path d="M18.4464 80.6361H0.962891V102.035H18.4464V80.6361Z" stroke="#00818E" stroke-width="2.5" stroke-linecap="round" stroke-linejoin="round"></path><path d="M13.9027 70.4481H5.48828V80.6362H13.9027V70.4481Z" stroke="#00818E" stroke-width="2.5" stroke-linecap="round" stroke-linejoin="round"></path><path d="M25.147 32.7059H18.4463V102.035H25.147V32.7059Z" stroke="#00818E" stroke-width="2.5" stroke-linecap="round" stroke-linejoin="round"></path></g><defs><clipPath id="clip0_2011_8413"><rect width="107" height="103" fill="white"></rect></clipPath></defs></svg>