<svg xmlns="http://www.w3.org/2000/svg" width="40" height="40" viewBox="0 0 40 40" fill="none"><path d="M0.0142131 21.5953V21.6565C0.0142131 22.6659 0.0142131 23.7364 0.0142131 24.7458C0.0142131 26.3363 0.10588 27.9268 0.289213 29.4561C0.900324 34.9312 3.95588 38.2651 9.36421 39.3357C10.6475 39.5804 12.0225 39.7027 13.4587 39.7027C14.8337 39.7027 16.2392 39.7333 17.5837 39.7333H17.6142C21.4031 39.7945 25.3142 39.8556 29.1642 39.458C34.5725 38.8769 37.9642 35.7264 39.0031 30.3737C39.2475 29.0891 39.3698 27.7127 39.3698 26.2751C39.3698 24.8681 39.4003 23.4 39.4309 22.0236V21.993C39.492 18.2308 39.5837 14.3463 39.0948 10.5535C38.392 4.89497 35.5198 1.77512 30.0198 0.704582C28.7364 0.459888 27.392 0.337541 25.9559 0.337541H25.8337C24.4587 0.337541 23.0531 0.306954 21.7392 0.306954H21.7087C20.3642 0.276367 19.0198 0.276367 17.6753 0.276367C15.2003 0.276367 12.6948 0.337541 10.2503 0.643408C7.40866 0.979863 5.23921 1.89747 3.5281 3.54915C0.961435 5.99609 0.38088 9.2077 0.136435 11.9911C-0.0163425 13.9181 0.0142131 15.9368 0.0142131 17.8943C0.0142131 18.5978 0.0142131 19.3319 0.0142131 20.066C0.0142131 20.5554 0.0142131 21.0754 0.0142131 21.5953ZM1.93921 21.7483V19.4543H1.96977C1.96977 18.9037 1.96977 18.3226 1.96977 17.772V17.7414C1.96977 15.998 1.96977 14.2239 1.96977 12.4499C2.00032 10.7065 2.33644 9.05477 2.9781 7.49485C4.26144 4.46676 6.76699 2.78448 10.4337 2.44803C14.7114 2.08099 19.0503 2.14216 23.2364 2.23392C24.7337 2.26451 26.2614 2.29509 27.7587 2.29509C28.8587 2.29509 29.9587 2.57038 30.967 2.84566C34.2975 3.76326 36.3448 6.05727 37.1087 9.66651C37.3531 10.8288 37.4753 11.9911 37.4753 13.0922C37.4753 14.4992 37.4753 15.9368 37.4753 17.3438C37.4753 20.6166 37.4753 24.0423 37.4448 27.3762C37.4448 28.6609 37.2309 29.9761 36.8337 31.3831C35.917 34.6559 33.6253 36.7052 30.0503 37.4699C28.8892 37.7146 27.6975 37.8369 26.567 37.8369H26.5975C25.5892 37.8369 24.5503 37.8369 23.542 37.8369H21.4031C18.4698 37.8369 15.4142 37.8369 12.4198 37.8063C11.167 37.8063 9.88366 37.6228 8.50866 37.2252C5.20866 36.3076 3.13088 34.0136 2.36699 30.4043C2.03088 28.8138 1.96977 27.1927 2.00032 25.694C1.93921 24.3787 1.93921 23.0329 1.93921 21.7483Z" fill="#0C8890"></path><path d="M21.0668 26.3359H21.0057C20.7002 26.3359 20.3641 26.3665 20.0891 26.4583C19.8141 26.55 19.6307 26.7642 19.5696 27.0394C19.5085 27.3147 19.5391 27.59 19.7224 27.8347C19.9668 28.1406 20.2724 28.2629 20.7918 28.2629C21.7696 28.2629 22.778 28.2629 23.7557 28.2629H24.7641H24.7946H25.3446C25.8335 28.2629 26.2918 28.2629 26.7807 28.2629C27.8807 28.2629 29.0113 28.2629 30.1113 28.2629C30.753 28.2323 31.1807 27.8959 31.1807 27.3147C31.1807 26.7642 30.7835 26.4277 30.0807 26.3665C29.9585 26.3665 29.8363 26.3665 29.7141 26.3665H27.0557C25.0696 26.3359 23.053 26.3359 21.0668 26.3359Z" fill="#0C8890"></path><path d="M19.5089 14.1019C19.4784 14.7748 20.0895 15.0501 20.7006 15.1112C20.9145 15.1418 21.1589 15.1418 21.4034 15.1418C22.1367 15.1418 22.8395 15.1418 23.5422 15.1418H24.3367H25.3145C25.7728 15.1418 26.2617 15.1418 26.72 15.1418C27.7895 15.1418 28.92 15.1418 29.9895 15.1112C30.6922 15.0806 31.1506 14.7442 31.1506 14.163C31.1506 13.4595 30.5395 13.2148 29.9589 13.2148C28.4617 13.2148 26.9339 13.2148 25.4061 13.2148C23.8172 13.2148 22.2284 13.2148 20.7311 13.2148C19.9978 13.2148 19.5395 13.5513 19.5089 14.1019Z" fill="#0C8890"></path><path d="M15.2919 25.2655C15.5669 24.9902 15.7197 24.6537 15.6891 24.3785C15.6891 24.1644 15.5975 23.9808 15.4141 23.8279C14.9558 23.4303 14.4363 23.4914 13.8863 24.0726C13.6113 24.3479 13.3363 24.6232 13.0613 24.8984C12.5725 25.3878 12.053 25.9078 11.5641 26.4278C11.2891 26.7031 10.9836 26.9783 10.5863 26.9783C10.2808 26.9783 10.0058 26.8254 9.70024 26.5501C9.63912 26.489 9.5169 26.4278 9.15023 26.4278H9.11968H9.08912C9.05857 26.4278 9.05857 26.4278 9.02801 26.4278C8.72246 26.4278 8.50857 26.5807 8.35579 26.8866C8.17246 27.2842 8.20301 27.5901 8.47801 27.8959C8.87524 28.3547 9.33357 28.783 9.73079 29.1806C10.3725 29.7923 10.7391 29.8229 11.3502 29.2112C12.6336 28.0183 13.8863 26.7336 15.2919 25.2655Z" fill="#0C8890"></path><path d="M14.0091 13.429C14.4674 12.9702 14.8952 12.542 15.3536 12.0832C15.6286 11.8079 15.6897 11.5938 15.6897 11.5632C15.6897 10.9209 15.4758 10.6762 15.1702 10.5538C14.773 10.3703 14.4063 10.4315 14.0702 10.7679C13.2758 11.5326 12.4508 12.3584 11.5036 13.3372C11.2591 13.6125 10.648 14.2242 9.76189 13.4901C9.57856 13.3372 9.36467 13.276 9.18134 13.276C8.93689 13.276 8.69245 13.3984 8.50911 13.6125C8.20356 13.9795 8.23411 14.4689 8.60078 14.8971C8.998 15.3254 9.39523 15.723 9.79245 16.09C10.373 16.6406 10.8008 16.6406 11.3813 16.09C12.2674 15.203 13.1536 14.316 14.0091 13.429Z" fill="#0C8890"></path></svg>