<svg xmlns="http://www.w3.org/2000/svg" width="27" height="26" viewBox="0 0 27 26" fill="none"><path d="M26.7753 22.7108C26.7753 17.4487 26.7753 11.9973 26.7753 6.54594C26.7753 6.3188 26.6559 6.05381 26.4968 5.90238C25.4227 4.84239 24.3089 3.82026 23.2348 2.79812L22.8768 2.45742C22.5188 2.11671 22.121 2.07884 21.8027 2.3817C21.6834 2.49527 21.6038 2.6467 21.6038 2.83598C21.6038 3.02527 21.7232 3.25241 21.9221 3.44169C22.1607 3.66883 22.3994 3.89597 22.6779 4.12311C22.7972 4.23668 22.9166 4.31239 22.9961 4.42596L23.0757 4.50168L23.0359 4.61524C22.3994 5.63737 22.3199 6.81094 22.7972 7.87092C23.2348 8.89305 24.1498 9.65019 25.3432 9.95304L25.4625 9.9909V16.7294C25.4625 18.6979 25.4625 20.6665 25.4625 22.6729C25.4625 23.4679 25.0647 24.0736 24.3487 24.2629C23.8315 24.4143 23.3144 24.3386 22.8768 24.0736C22.4392 23.7708 22.2005 23.2786 22.2005 22.7486C22.2005 21.6129 22.2005 20.5151 22.2005 19.3794C22.2005 18.1301 22.2005 16.7294 22.2005 15.3666C22.2005 13.4359 20.9275 11.7323 19.0181 11.013C18.8192 10.9373 18.6203 10.8995 18.4214 10.8238C18.302 10.7859 18.2225 10.748 18.1031 10.748L17.9838 10.7102V7.49236C17.9838 6.16737 17.9838 4.84239 17.9838 3.5174C17.9838 1.58671 16.5915 0.261719 14.5627 0.261719H10.1868H4.85621C2.74784 0.261719 1.39531 1.54885 1.39531 3.55526V21.0829H1.27596C0.20189 21.1586 0.162109 21.2343 0.162109 22.2565V24.7172C0.162109 25.4743 0.361012 25.6636 1.15662 25.6636H16.5517C16.7506 25.6636 16.9495 25.6636 17.1484 25.6636C17.586 25.6636 18.0633 25.6636 18.5407 25.6636C18.9783 25.6636 19.2568 25.3986 19.2568 25.02C19.2568 23.9979 19.2568 22.9001 19.2568 21.8022C19.2568 21.4236 18.9783 21.1586 18.5805 21.1586C18.5009 21.1586 18.4214 21.1586 18.302 21.1586H18.0236V12.1109L18.2225 12.1866C18.302 12.2244 18.3418 12.2244 18.4214 12.2623C18.5407 12.3002 18.6601 12.338 18.7794 12.3759C20.1319 13.0194 20.848 14.0416 20.848 15.4801C20.848 16.843 20.848 18.2058 20.848 19.5686C20.848 20.6665 20.848 21.7643 20.848 22.8622C20.848 24.4522 22.2005 25.7393 23.8713 25.7393C25.4227 25.55 26.7753 24.3007 26.7753 22.7108ZM2.74784 3.5174C2.74784 2.19241 3.46389 1.511 4.85621 1.511C8.07843 1.511 11.2609 1.511 14.4831 1.511C15.8356 1.511 16.5517 2.19241 16.5517 3.47954V21.0072H2.74784V3.5174ZM17.7451 24.225H1.47487V22.3701H17.7451V24.225ZM25.383 7.75736C25.383 7.90878 25.3432 8.0602 25.3432 8.21163V8.40092L25.1443 8.32521C24.11 7.94664 23.6326 6.88665 23.9509 5.63738L24.0304 5.41024L24.2293 5.59952C24.3487 5.71309 24.468 5.82667 24.5874 5.90238C24.9056 6.16738 25.1841 6.39451 25.3034 6.69736C25.4227 7.03807 25.383 7.41665 25.383 7.75736Z" fill="#00828C"></path><path d="M13.6874 3.32812C12.6531 3.32812 11.6586 3.32812 10.6243 3.32812H9.66957H8.43638C8.03857 3.32812 7.60099 3.32812 7.20318 3.32812C6.64625 3.32812 6.08933 3.32812 5.5324 3.32812C4.93569 3.32812 4.65723 3.59312 4.65723 4.12312C4.65723 5.48596 4.65723 6.92452 4.65723 8.32522C4.65723 8.89307 4.93569 9.12021 5.5324 9.12021C8.23747 9.12021 10.9823 9.12021 13.6874 9.12021C14.2841 9.12021 14.5626 8.85521 14.5626 8.28736C14.5626 6.92452 14.5626 5.52382 14.5626 4.16098C14.6024 3.59313 14.3239 3.32812 13.6874 3.32812ZM13.0509 7.71951H6.16889V4.76669H13.0509V7.71951Z" fill="#00828C"></path><path d="M9.62953 9.19545C8.277 9.19545 6.88468 9.19545 5.53214 9.19545C4.89565 9.19545 4.61719 8.93046 4.61719 8.32475C4.61719 6.8862 4.61719 5.4855 4.61719 4.12265C4.61719 3.5548 4.93543 3.25195 5.53214 3.25195C6.08907 3.25195 6.64599 3.25195 7.20292 3.25195H9.66931H10.624C11.6583 3.25195 12.6529 3.25195 13.6871 3.25195C14.3634 3.25195 14.6419 3.51695 14.6419 4.16051C14.6419 5.52335 14.6419 6.92405 14.6419 8.28689C14.6419 8.8926 14.3634 9.19545 13.7269 9.19545C12.3744 9.19545 10.9821 9.19545 9.62953 9.19545ZM7.2427 3.36552C6.68577 3.36552 6.12885 3.36552 5.57192 3.36552C5.01499 3.36552 4.73653 3.59266 4.73653 4.12265C4.73653 5.4855 4.73653 6.92405 4.73653 8.32475C4.73653 8.85475 4.97521 9.08189 5.57192 9.08189C8.277 9.08189 11.0219 9.08189 13.7269 9.08189C14.3236 9.08189 14.5623 8.85474 14.5623 8.28689C14.5623 6.92405 14.5623 5.52335 14.5623 4.16051C14.5623 3.59266 14.3236 3.36552 13.6871 3.36552C12.6529 3.36552 11.6583 3.36552 10.624 3.36552H9.66931H7.2427ZM13.1302 7.7569H6.12885V4.72836H13.1302V7.7569ZM6.20841 7.68118H13.0109V4.84193H6.20841V7.68118Z" fill="white"></path><path d="M10.1077 11.1268C9.94857 10.9754 9.78945 10.9375 9.63033 10.9375C9.43142 10.9375 9.2723 11.0132 9.11318 11.1646C8.27779 11.9596 7.20371 13.0953 6.60701 14.496C6.16942 15.4803 6.28876 16.5782 6.92525 17.4489C7.52196 18.3196 8.51647 18.8117 9.63033 18.8117C10.7044 18.8117 11.6591 18.3574 12.2956 17.5246C12.8923 16.7296 13.0515 15.7075 12.7332 14.761C12.2161 13.2468 11.142 12.1489 10.1077 11.1268ZM10.7442 16.9946C10.4259 17.2217 10.0281 17.3731 9.63033 17.3731C9.23252 17.3731 8.8745 17.2596 8.55625 17.0324C7.91976 16.5782 7.72086 15.7832 7.99932 15.0639C8.31757 14.2689 8.83472 13.5875 9.63033 12.7168L9.70989 12.6032L9.78945 12.7168C9.94857 12.9818 10.1077 13.2089 10.2668 13.436C10.6248 13.966 10.9431 14.496 11.2215 15.026C11.6194 15.7074 11.3807 16.5024 10.7442 16.9946Z" fill="#00828C"></path><path d="M9.63007 18.8493C8.51621 18.8493 7.5217 18.3572 6.88521 17.4865C6.24872 16.6158 6.12938 15.5179 6.56697 14.4958C7.16368 13.0572 8.23775 11.9594 9.07314 11.1266C9.23226 10.9751 9.43117 10.8994 9.63007 10.8994C9.82897 10.8994 9.98809 10.9751 10.1472 11.1266C11.1815 12.1108 12.2556 13.2465 12.7727 14.7229C13.1308 15.6694 12.9319 16.7294 12.3351 17.5243C11.6987 18.3572 10.7041 18.8493 9.63007 18.8493ZM9.63007 10.9751C9.47095 10.9751 9.27204 11.0508 9.1527 11.1644C8.31731 11.9594 7.24324 13.0572 6.64653 14.4958C6.24872 15.4801 6.32828 16.5401 6.96477 17.3729C7.56148 18.2058 8.51621 18.6979 9.63007 18.6979C10.7041 18.6979 11.6191 18.2436 12.2556 17.4108C12.8523 16.6158 13.0114 15.6315 12.6932 14.6851C12.176 13.2087 11.1417 12.1108 10.1074 11.1266C9.94831 11.0508 9.78919 10.9751 9.63007 10.9751ZM9.63007 17.4108C9.23226 17.4108 8.83446 17.2972 8.51621 17.0322C7.87972 16.5401 7.64104 15.7451 7.95929 14.9879C8.27753 14.193 8.83446 13.5115 9.59029 12.6408L9.70963 12.4894L9.82897 12.6408C9.98809 12.9058 10.1472 13.133 10.3063 13.3601C10.6644 13.8901 10.9826 14.4201 11.2611 14.9501C11.6191 15.6694 11.4202 16.5022 10.7439 16.9943C10.4257 17.2972 10.0279 17.4108 9.63007 17.4108ZM9.70963 12.6787L9.66985 12.7165C8.87424 13.5872 8.35709 14.2687 8.03885 15.0637C7.76038 15.7829 7.95929 16.5401 8.55599 16.9943C8.87424 17.2215 9.23226 17.3351 9.63007 17.3351C10.0279 17.3351 10.3859 17.2215 10.7041 16.9943C11.3406 16.5022 11.5395 15.7451 11.1815 15.0637C10.903 14.5337 10.5848 14.0415 10.2268 13.5115C10.0677 13.2844 9.90853 13.0194 9.74941 12.7544L9.70963 12.6787Z" fill="white"></path></svg>