<svg xmlns="http://www.w3.org/2000/svg" width="41" height="47" viewBox="0 0 41 47" fill="none"><g clip-path="url(#clip0_2362_10041)"><path d="M40.9532 16.3105V16.3565C35.7417 23.9831 26.4717 34.8257 12.5898 43.4171C14.988 44.9332 17.663 46.1278 20.4762 46.9547C29.1005 44.4278 36.1568 38.5012 39.4312 30.0476C41.1376 25.8208 41.0454 20.9508 40.9532 16.3105Z" fill="#007B85"></path><path d="M40.9089 2.20468C40.9089 2.20468 40.0326 1.92902 38.4184 1.60742C36.5737 4.68562 33.9449 8.86646 30.7626 13.1392C22.415 24.3953 13.8369 32.2516 5.07422 36.5243C6.27332 38.1324 7.6569 39.6485 9.17883 40.9349C26.7964 30.5058 36.712 16.3093 40.8627 9.23401C40.9089 6.8909 40.9089 4.54779 40.9089 2.20468Z" fill="#007B85"></path><path d="M30.7618 13.1389C33.9902 8.77427 36.5729 4.68532 38.3715 1.60712C38.3254 1.60712 38.2331 1.56118 38.187 1.56118C38.0948 1.56118 38.0487 1.51523 37.9564 1.51523C37.8642 1.51523 37.8181 1.46929 37.7258 1.46929C37.6336 1.46929 37.5414 1.42335 37.4491 1.42335C37.3569 1.42335 37.2646 1.3774 37.2185 1.3774C37.1263 1.3774 37.034 1.33146 36.9418 1.33146C36.8496 1.33146 36.7573 1.28552 36.6651 1.28552C36.5729 1.28552 36.4806 1.23957 36.3884 1.23957C36.2961 1.23957 36.1578 1.19363 36.0655 1.19363C35.9733 1.19363 35.9272 1.14769 35.8349 1.14769C35.6966 1.14769 35.6044 1.10174 35.466 1.10174C35.4199 1.10174 35.3276 1.10174 35.2815 1.0558C34.9587 1.00986 34.6358 0.963912 34.2669 0.917969C28.6865 10.1985 17.2489 26.4624 2.99805 33.2621C3.18252 33.5837 3.367 33.9512 3.5976 34.2728C3.73595 34.4566 3.82819 34.6863 3.96655 34.8701C4.01267 34.962 4.10491 35.0538 4.15103 35.1457C4.47386 35.6052 4.75058 36.0646 5.11953 36.524C13.8361 32.2513 22.4142 24.395 30.7618 13.1389Z" fill="white"></path><path d="M40.9546 16.3558V16.3099C40.9546 15.8505 40.9546 15.391 40.9085 14.9316C40.9085 14.7938 40.9085 14.6559 40.9085 14.5181C40.9085 14.0127 40.9085 13.5073 40.9085 13.002C40.9085 11.7615 40.9085 10.521 40.9085 9.23462C36.7578 16.3099 26.8422 30.5064 9.22461 40.9355C9.50132 41.1652 9.77804 41.3949 10.0086 41.6246C10.2392 41.8084 10.4698 41.9922 10.7004 42.13C10.7927 42.2219 10.931 42.2678 11.0233 42.3597C11.5306 42.7273 12.0379 43.0948 12.5452 43.4164C26.5654 34.7791 35.6971 24.0743 40.9546 16.3558Z" fill="white"></path><path d="M20.4777 0C7.70271 0 0.0930374 2.20528 0.0930374 2.20528C0.0930374 5.78886 0.0930374 9.37243 0.0930374 12.956C0.0930374 18.5611 -0.552632 24.7634 1.52273 30.0929C1.93781 31.1955 2.44512 32.2522 2.99855 33.263C17.1572 26.5093 28.6408 10.1994 34.3135 0.918866C30.9007 0.41349 26.2888 0 20.4777 0ZM11.0694 20.3069L5.90406 15.1153L8.6251 12.4047L11.0694 14.8397L18.5407 7.39687L21.2618 10.1075L11.0694 20.3069Z" fill="#87E1E8"></path></g><defs><clipPath id="clip0_2362_10041"><rect width="41" height="47" fill="white"></rect></clipPath></defs></svg>