<svg xmlns="http://www.w3.org/2000/svg" width="47" height="47" viewBox="0 0 47 47" fill="none"><g clip-path="url(#clip0_2791_8787)"><path d="M28.7775 13C30.3812 13.35 31.8376 13.6667 33.294 13.9833C36.6978 14.7167 40.1016 15.4333 43.5053 16.2C45.6 16.6667 46.86 18.65 46.4345 20.7833C45.1418 27.1333 43.8163 33.45 42.5235 39.8C42.2453 41.2 41.8362 42.4667 40.5761 43.3C40.4288 43.4 40.347 43.65 40.2979 43.85C39.8397 45.8 38.3997 46.9833 36.4196 47C32.034 47.0167 27.632 47 23.2464 47C17.1097 47 10.9731 47 4.83653 47C2.03824 47 0.5 45.4333 0.5 42.6167C0.5 36.15 0.5 29.6667 0.5 23.2C0.5 20.35 2.00551 18.8167 4.77108 18.8C4.88563 18.8 5.00018 18.7833 5.09836 18.8C5.86748 18.95 6.17841 18.6333 6.30932 17.8167C6.52206 16.4167 6.86571 15.05 7.16026 13.6833C7.29118 13.0833 7.22572 12.6167 6.71843 12.15C5.90021 11.4 5.67111 10.4167 6.01476 9.33333C6.35841 8.28333 7.09481 7.73333 8.19121 7.6C9.07488 7.5 9.95856 7.31667 10.8586 7.16667C14.0496 6.61667 13.166 7.26667 14.5733 4.36667C15.0478 3.4 15.4733 2.41667 15.9315 1.43333C16.3734 0.533333 17.1097 0 18.1243 0C19.1389 0 19.8917 0.516667 20.3335 1.45C21.0535 2.96667 21.7736 4.5 22.4609 6.03333C22.69 6.51667 22.9845 6.8 23.5409 6.88333C25.1119 7.1 26.6501 7.4 28.2211 7.63333C29.203 7.78333 29.8739 8.33333 30.2175 9.25C30.6103 10.2667 30.3812 11.2167 29.6775 12.0333C29.4321 12.3167 29.1702 12.5833 28.7775 13ZM5.42565 29.5833C17.4207 32.1667 29.383 34.75 41.3616 37.35C41.4434 37.1333 41.5253 36.9833 41.558 36.8167C42.6708 31.4 43.7835 25.9833 44.8799 20.55C45.1745 19.1167 44.389 17.9667 42.9817 17.6667C38.1869 16.65 33.4086 15.65 28.6302 14.5667C27.7465 14.3667 27.1247 14.4667 26.601 15.2167C26.4538 15.4167 26.2083 15.55 26.1101 15.7667C25.9628 16.0667 25.7501 16.4333 25.7992 16.75C26.0283 18.4167 26.2737 20.1 26.601 21.75C26.8301 22.9167 26.5356 23.8667 25.6519 24.5667C24.7519 25.2667 23.7864 25.1833 22.8209 24.6333C21.6099 23.9333 20.3662 23.3 19.1716 22.5667C18.468 22.1333 17.8625 22.0833 17.1425 22.55C15.9315 23.3 14.6715 23.95 13.4278 24.65C12.5277 25.1667 11.6113 25.25 10.7277 24.6333C9.82764 24.0167 9.48399 23.1167 9.64763 22.0333C9.84401 20.75 10.0895 19.4667 10.2531 18.1833C10.3513 17.4667 10.5313 16.6333 10.2695 16.0167C9.99128 15.3333 9.25489 14.85 8.61668 14.1667C7.53664 19.3833 6.48933 24.4667 5.42565 29.5833ZM11.1531 22.3167C11.1204 23.3 11.7914 23.75 12.6587 23.2833C13.886 22.6167 15.1297 21.9833 16.3079 21.2333C17.5516 20.4333 18.6971 20.4 19.9571 21.2167C21.1517 21.9833 22.4118 22.6333 23.6718 23.3C24.5064 23.75 25.1282 23.3167 25.1119 22.3667C25.1119 22.15 25.0955 21.9167 25.0628 21.7C24.8173 20.2333 24.5719 18.75 24.3264 17.2833C24.13 16.1833 24.3919 15.2667 25.1937 14.4833C26.2737 13.4167 27.2883 12.3 28.352 11.2333C28.7448 10.8333 29.072 10.35 28.7775 9.85C28.5811 9.51667 28.0902 9.25 27.6811 9.16667C26.3228 8.9 24.9482 8.68333 23.5736 8.51667C22.4281 8.36667 21.5936 7.86667 21.1026 6.76667C20.4644 5.33333 19.8099 3.9 19.1062 2.5C18.9098 2.13333 18.4843 1.65 18.1571 1.65C17.8461 1.65 17.3879 2.11667 17.2079 2.48333C16.4715 3.93333 15.8006 5.41667 15.1297 6.9C14.7042 7.85 13.9678 8.33333 12.9859 8.5C11.5295 8.73333 10.0895 8.96667 8.63305 9.15C8.07666 9.21667 7.50391 9.36667 7.47118 9.96667C7.45482 10.3833 7.70028 10.9167 7.99484 11.25C8.87851 12.2667 9.79491 13.2667 10.7931 14.1667C11.955 15.2167 12.1677 16.45 11.8732 17.9167C11.5623 19.35 11.3822 20.8333 11.1531 22.3167ZM5.13109 31.1333C5.03291 31.5833 4.93472 31.9833 4.8529 32.3833C4.49288 34 5.22928 35.15 6.83298 35.5C11.6113 36.5333 16.4061 37.5667 21.1845 38.6C26.8138 39.8167 32.4594 41.0333 38.0888 42.2333C39.2506 42.4833 40.3798 41.8167 40.7234 40.6833C40.887 40.1333 40.9689 39.55 41.0998 38.9167C29.1048 36.3167 17.1588 33.7333 5.13109 31.1333ZM2.07097 41.5167C1.77641 44.4833 2.62736 45.4667 5.36019 45.4667C14.4915 45.4667 23.6227 45.4667 32.754 45.4667C33.9486 45.4667 35.1596 45.4833 36.3541 45.4667C37.516 45.45 38.236 44.9333 38.5797 43.95C36.436 43.4833 34.2759 43.0833 32.1485 42.5667C29.0884 41.8167 26.0283 41.45 22.87 41.5C16.2752 41.6 9.68036 41.5333 3.08556 41.5333C2.75827 41.5167 2.43099 41.5167 2.07097 41.5167ZM2.00551 39.9333C7.88029 39.9333 13.6078 39.9333 19.3353 39.9333C19.1226 39.7833 18.8935 39.7167 18.6644 39.6667C14.5733 38.7833 10.4822 37.9 6.39114 37C4.14923 36.5 2.87282 34.6 3.29829 32.3C3.7074 30.0667 4.19833 27.8667 4.65653 25.65C5.01654 23.9 5.37656 22.15 5.75293 20.4C3.0201 20.0833 2.00551 20.9833 2.00551 23.6333C2.00551 28.7167 2.00551 33.8 2.00551 38.8667C2.00551 39.2167 2.00551 39.5333 2.00551 39.9333Z" fill="#0C8890"></path><path d="M42.2451 22.1999C42.016 23.1999 41.8033 24.5332 41.4106 25.8165C41.0996 26.8332 40.036 27.3832 38.9723 27.1832C37.4013 26.8832 35.8303 26.5499 34.2757 26.1665C33.0484 25.8665 32.3775 24.7832 32.5739 23.5332C32.7539 22.4165 32.983 21.2999 33.2611 20.2165C33.5884 18.9499 34.783 18.2832 36.0431 18.5665C37.4668 18.8832 38.9068 19.1832 40.3469 19.4999C41.4924 19.7665 42.2451 20.6999 42.2451 22.1999ZM40.7396 21.7832C40.576 21.5999 40.3796 21.1665 40.0851 21.0999C38.645 20.7332 37.1722 20.4499 35.6994 20.1499C35.1103 20.0332 34.783 20.2999 34.6685 20.9165C34.4885 21.8165 34.2757 22.6999 34.0957 23.5999C33.9648 24.2332 34.2266 24.6165 34.8485 24.7499C36.2231 25.0499 37.614 25.3665 38.9886 25.6499C39.4959 25.7499 39.9378 25.6165 40.0687 25.0332C40.2978 24.0332 40.4778 23.0165 40.7396 21.7832Z" fill="#0C8890"></path><path d="M39.8234 31.3995C38.187 31.0495 36.7633 30.7495 35.3232 30.4495C32.3449 29.7995 29.383 29.1495 26.4047 28.5162C25.8319 28.3995 25.3574 28.1829 25.5046 27.5162C25.6356 26.8995 26.0938 26.8495 26.6501 26.9662C30.9212 27.8995 35.2087 28.8162 39.4961 29.7329C39.627 29.7662 39.807 29.7662 39.8888 29.8495C40.1016 30.1162 40.4452 30.4329 40.4289 30.7162C40.3798 30.9662 39.987 31.2162 39.8234 31.3995Z" fill="#0C8890"></path><path d="M39.2182 34.4835C38.0236 34.2335 37.009 34.0335 36.0108 33.8168C34.7835 33.5502 33.5725 33.2668 32.3616 33.0168C31.8216 32.9002 31.5106 32.6168 31.6252 32.0502C31.7234 31.5002 32.1161 31.3835 32.6234 31.4835C34.7999 31.9502 36.9763 32.3835 39.1528 32.9002C39.431 32.9668 39.7582 33.4502 39.791 33.7668C39.791 33.9835 39.3819 34.2835 39.2182 34.4835Z" fill="#0C8890"></path></g><defs><clipPath id="clip0_2791_8787"><rect width="46" height="47" fill="white" transform="translate(0.5)"></rect></clipPath></defs></svg>