<svg xmlns="http://www.w3.org/2000/svg" width="24" height="29" viewBox="0 0 24 29" fill="none"><path d="M9.19161 28.9997C6.42153 28.9997 3.60949 28.9997 0.839416 28.9997C0.167883 28.9997 0 28.8715 0 28.1875C0 27.4608 0 26.6913 0 25.9646C0 25.3661 0.209854 25.1951 0.797445 25.1951C1.80474 25.1951 1.80474 25.1951 1.80474 24.1692C1.80474 17.4577 1.80474 10.7035 1.80474 3.9921C1.80474 3.56461 1.80474 3.13713 1.93066 2.7524C2.22445 1.72645 3.06387 1.04248 4.11314 1.04248C7.51277 0.999729 10.9124 0.999729 14.312 0.999729C15.6131 0.999729 16.5785 2.06843 16.5785 3.47912C16.5785 5.48828 16.5785 7.45469 16.5785 9.46385C16.5785 9.84858 16.7044 10.0196 17.0401 10.1478C18.677 10.7463 18.8869 11.0455 18.8869 12.841C18.8869 15.9188 18.8869 18.9967 18.8869 22.1173C18.8869 22.7585 19.0967 23.1005 19.4745 23.1005C19.8942 23.1005 20.104 22.7585 20.104 22.1173C20.104 17.928 20.104 13.6959 20.104 9.5066C20.104 9.16461 20.0201 8.99362 19.6843 8.82263C18.8029 8.4379 18.2993 7.66843 18.2993 6.64248C18.2993 5.78751 18.2993 4.88981 18.2993 4.03484C18.2993 3.65011 18.4252 3.39362 18.8449 3.35087C19.1387 3.30813 19.1807 3.17988 19.1807 2.92339C19.1807 2.53866 19.1807 2.15393 19.1807 1.72645C19.2226 1.34171 19.3066 1.04248 19.7263 0.999729C20.062 0.956981 20.2299 1.21347 20.2719 1.6837C20.2719 2.06843 20.2719 2.45316 20.2719 2.88065C20.2719 3.22263 20.4398 3.30813 20.7336 3.30813C21.0274 3.30813 21.1113 3.17988 21.1113 2.88065C21.1113 2.45316 21.1113 2.02568 21.1113 1.55545C21.1113 1.21347 21.2372 0.999729 21.573 0.999729C21.9088 0.999729 22.0766 1.21347 22.0766 1.51271C22.0766 1.94019 22.0766 2.36767 22.0766 2.8379C22.0766 3.13713 22.1606 3.26538 22.4544 3.30813C22.8321 3.35087 23 3.60736 23 3.94935C23 4.9753 23.0839 6.00126 22.9161 7.02721C22.7901 7.79668 22.3704 8.39515 21.6569 8.69439C21.2372 8.86538 21.1533 9.12187 21.1533 9.54935C21.1533 13.6532 21.1533 17.7142 21.1533 21.818C21.1533 22.2028 21.1533 22.5448 21.0274 22.8868C20.8175 23.6135 20.146 24.0837 19.4325 24.0837C18.719 24.0837 18.0894 23.5707 17.8796 22.844C17.7956 22.5448 17.7956 22.2883 17.7956 21.989C17.7956 18.7829 17.7956 15.5768 17.7956 12.3707C17.7956 11.6013 17.5018 11.2593 16.7883 11.131C16.6204 11.0883 16.5785 11.131 16.5785 11.302C16.5785 11.3875 16.5785 11.5158 16.5785 11.6013C16.5785 15.9188 16.5785 20.2364 16.5785 24.5112C16.5785 25.1097 16.5785 25.1097 17.1661 25.1097C18.3832 25.1097 18.3832 25.1097 18.3832 26.3921C18.3832 26.9906 18.3832 27.6318 18.3832 28.2303C18.3832 28.8287 18.2573 28.957 17.6697 28.957C14.8577 28.9997 12.0036 28.9997 9.19161 28.9997ZM2.85401 14.0379C2.85401 17.586 2.85401 21.0913 2.85401 24.6394C2.85401 25.1097 2.97993 25.1951 3.39964 25.1951C7.26095 25.1951 11.0803 25.1951 14.9416 25.1951C15.5292 25.1951 15.5292 25.1951 15.5292 24.5967C15.5292 17.6287 15.5292 10.6608 15.5292 3.69286C15.5292 2.49591 15.0675 2.02568 13.8923 2.02568C10.7445 2.02568 7.63869 2.02568 4.49088 2.02568C3.27372 2.02568 2.81204 2.49591 2.81204 3.69286C2.85401 7.15545 2.85401 10.618 2.85401 14.0379ZM9.23358 27.9738C11.7938 27.9738 14.354 27.9738 16.9142 27.9738C17.292 27.9738 17.4599 27.8883 17.4179 27.5035C17.3759 27.2898 17.4179 27.0333 17.4179 26.8196C17.4179 26.2211 17.4179 26.2211 16.8303 26.2211C11.9617 26.2211 7.13504 26.2211 2.26642 26.2211C1.09124 26.2211 1.09124 26.2211 1.09124 27.4608C1.09124 27.8883 1.21715 28.0165 1.63686 28.0165C4.15511 27.9738 6.67336 27.9738 9.23358 27.9738ZM21.9507 5.78751C21.9507 5.44553 21.9507 5.0608 21.9507 4.71881C21.9507 4.50507 21.8668 4.37683 21.6569 4.37683C20.9854 4.37683 20.3139 4.37683 19.6423 4.37683C19.4325 4.37683 19.3485 4.46232 19.3485 4.67606C19.3485 5.36003 19.3066 6.08675 19.3485 6.77072C19.3905 7.45469 19.9781 7.96767 20.6496 7.96767C21.3631 7.96767 21.9088 7.41194 21.9507 6.72797C21.9507 6.38599 21.9507 6.08675 21.9507 5.78751Z" fill="#00828C"></path><path d="M11.9692 6.47971C11.9692 6.68662 11.9011 6.81077 11.8331 6.97629C11.3908 8.01084 10.9145 9.04538 10.4722 10.0799C10.3361 10.411 10.3702 10.4937 10.6764 10.4937C10.9485 10.4937 11.2207 10.4937 11.4589 10.4937C11.663 10.4937 11.8671 10.5351 11.9692 10.8248C12.0713 11.1145 11.9011 11.3214 11.731 11.4869C10.7104 12.3973 9.68972 13.2663 8.63504 14.1767C8.02265 14.7147 7.41026 15.2527 6.79786 15.7906C6.59373 15.9562 6.3896 16.1217 6.15145 15.8734C5.9133 15.6251 6.01536 15.3354 6.15145 15.0871C6.62776 14.0112 7.10406 12.9353 7.58037 11.9007C7.68243 11.6524 7.68243 11.5697 7.41026 11.5697C7.13808 11.5697 6.83189 11.5697 6.52569 11.5697C6.28754 11.5697 6.08341 11.4869 6.01536 11.1559C5.94732 10.7834 6.11743 10.6179 6.28754 10.4937C7.61439 9.33506 8.94124 8.17637 10.2681 7.01767C10.6083 6.728 10.9485 6.39695 11.3228 6.10727C11.663 5.85898 11.9692 6.06589 11.9692 6.47971ZM7.81852 10.411C7.81852 10.4524 7.85254 10.4937 7.85254 10.4937C7.92059 10.4937 8.02265 10.4937 8.09069 10.4937C8.80515 10.4937 8.97526 10.8248 8.60102 11.5697C8.567 11.6524 8.53298 11.7352 8.49896 11.7766C8.22678 12.3973 7.95461 13.018 7.68243 13.6388C7.71645 13.6388 7.71645 13.6802 7.75048 13.6802C8.567 12.9767 9.3495 12.2732 10.166 11.5697C10.0299 11.4455 9.9619 11.4869 9.85983 11.4869C9.75777 11.4869 9.68972 11.4869 9.58766 11.4455C9.28146 11.3628 9.14537 11.0731 9.24744 10.7007C9.28146 10.5765 9.3495 10.411 9.41755 10.2868C9.72374 9.58335 10.0299 8.92124 10.3361 8.21775L10.3021 8.17637C9.45157 8.96262 8.63504 9.66611 7.81852 10.411Z" fill="#00828C"></path><path d="M9.3923 20.0421C9.85398 19.9566 9.89595 20.2558 9.89595 20.5978C9.89595 21.0253 9.6861 21.1108 9.35033 21.1108C8.88865 21.1108 8.84668 20.897 8.84668 20.5123C8.84668 20.1276 9.01456 19.9566 9.3923 20.0421Z" fill="#00828C"></path><path d="M8.0073 20.5985C8.09124 21.026 7.88139 21.1115 7.50365 21.1115C7.08394 21.1115 7 20.9405 7 20.5557C7 20.171 7.12591 20.0427 7.50365 20C7.96533 20 8.09124 20.2137 8.0073 20.5985Z" fill="#00828C"></path><path d="M10.7355 20.5557C10.6515 20.171 10.7775 20 11.1972 20C11.6169 20 11.7428 20.171 11.7428 20.5557C11.7428 20.9405 11.6169 21.0687 11.2391 21.0687C10.8194 21.1115 10.6515 20.9832 10.7355 20.5557Z" fill="#00828C"></path><rect x="4.5" y="4.5" width="9" height="14" rx="0.5" stroke="#00828C"></rect></svg>