<svg xmlns="http://www.w3.org/2000/svg" width="112" height="112" viewBox="0 0 112 112" fill="none"><path d="M6.7998 95.6V14C6.7998 7.28 12.3198 2 18.7998 2H57.1998C63.9198 2 69.1998 7.28 69.1998 14V95.6" fill="white"></path><path d="M6.7998 95.6V14C6.7998 7.28 12.3198 2 18.7998 2H57.1998C63.9198 2 69.1998 7.28 69.1998 14V95.6" stroke="#397abd" stroke-width="3" stroke-miterlimit="10" stroke-linejoin="round"></path><path d="M69.2002 81.2H78.8002C81.4402 81.2 83.6002 83.36 83.6002 86V105.2C83.6002 107.84 85.7602 110 88.4002 110H90.8002C93.4402 110 95.6002 107.84 95.6002 105.2V69.2" stroke="#397abd" stroke-width="3" stroke-miterlimit="10" stroke-linejoin="round"></path><path d="M16.4004 38.0001H59.6004V16.4001C59.6004 13.7601 57.4404 11.6001 54.8004 11.6001H21.2004C18.5604 11.6001 16.4004 13.7601 16.4004 16.4001V38.0001Z" fill="white" stroke="#397abd" stroke-width="3" stroke-miterlimit="10" stroke-linejoin="round"></path><path d="M48.4387 21.271C48.8982 20.5817 48.712 19.6504 48.0227 19.1909C47.3334 18.7314 46.4021 18.9176 45.9425 19.6069L48.4387 21.271ZM43.6387 28.471L48.4387 21.271L45.9425 19.6069L41.1425 26.8069L43.6387 28.471Z" fill="#397abd"></path><path d="M47.6004 38V35.6C47.6004 30.32 43.2804 26 38.0004 26C32.7204 26 28.4004 30.32 28.4004 35.6V38" fill="#397abd"></path><path d="M95.5996 54.8V69.2" stroke="#397abd" stroke-width="3" stroke-miterlimit="10"></path><path d="M89.9004 9.19995C89.9004 8.37152 89.2288 7.69995 88.4004 7.69995C87.572 7.69995 86.9004 8.37152 86.9004 9.19995H89.9004ZM89.9004 28.4V9.19995H86.9004V28.4H89.9004Z" fill="#397abd"></path><path d="M104.3 9.19995C104.3 8.37152 103.628 7.69995 102.8 7.69995C101.971 7.69995 101.3 8.37152 101.3 9.19995H104.3ZM104.3 28.4V9.19995H101.3V28.4H104.3Z" fill="#397abd"></path><path d="M81.2002 28.3999V33.1999C81.2002 35.5999 83.6002 37.9999 83.6002 37.9999V47.5999C83.6002 51.6799 86.7202 54.7999 90.8002 54.7999H95.6002H100.4C104.48 54.7999 107.6 51.6799 107.6 47.5999V37.9999C107.6 37.9999 110 35.5999 110 33.1999V28.3999H81.2002Z" stroke="#397abd" stroke-width="3" stroke-miterlimit="10"></path><path d="M62 95.6001H74V110H2V95.6001H14" fill="white"></path><path d="M62 95.6001H74V110H2V95.6001H14" stroke="#397abd" stroke-width="3" stroke-miterlimit="10" stroke-linejoin="round"></path></svg>