<svg xmlns="http://www.w3.org/2000/svg" width="50" height="70" viewBox="0 0 50 70" fill="none"><path d="M49.7277 29.8029C49.7277 29.1174 49.7277 28.3863 49.7277 27.7009C49.7277 26.1015 49.7277 24.4565 49.6824 22.8115C49.6372 20.0241 48.2786 17.9678 45.7878 16.9625C43.297 15.9115 40.9874 16.3684 38.9043 18.3333C38.8137 18.4247 38.6778 18.5161 38.542 18.6075C38.4967 18.6532 38.4061 18.6989 38.3608 18.7446L38.3155 18.8817L38.225 18.7903C36.9116 17.2366 35.236 16.4598 33.2887 16.4598C33.2887 16.4598 33.2887 16.4598 33.2434 16.4598C31.3867 16.4598 29.7564 17.2366 28.3525 18.836L28.2619 18.9274L28.1713 18.836C24.8654 15.6373 22.2388 15.6373 18.163 18.836L18.0725 18.8817L17.9819 18.7903C17.9366 18.7446 17.8913 18.6989 17.8913 18.6532C17.8007 18.5618 17.7554 18.4704 17.6649 18.379C15.944 16.6883 13.6344 16.0943 11.4606 16.6883C9.33216 17.2823 7.70184 19.0188 7.11312 21.3035C6.88669 22.2174 6.88669 23.2684 6.88669 24.228C6.88669 24.5936 6.88669 25.0049 6.88669 25.4161C6.88669 25.9645 6.79611 26.33 6.11682 26.5585C2.8109 27.7009 0.818294 30.3969 0.773008 33.8241C0.682435 39.079 0.682435 44.1969 0.773008 49.0406C0.818294 52.285 1.99574 55.0724 4.21478 57.4029C5.25637 58.4539 6.43382 59.4135 7.61127 60.2817L7.97356 60.5558C8.56229 61.0128 8.83401 61.5154 8.78872 62.2466C8.74343 64.8969 8.74343 64.6684 8.78872 67.2274V68.0042C8.78872 69.1466 9.28687 69.832 10.102 69.832C10.4643 69.832 10.736 69.7406 10.9625 69.5121C11.2795 69.1923 11.4606 68.6896 11.4606 68.0499V66.4506C11.4606 63.7088 11.5059 63.8002 11.4153 61.0128C11.4153 60.4188 10.9625 59.6876 10.5549 59.3221C9.96617 58.728 9.24158 58.2254 8.56229 57.7227C8.24528 57.4943 7.88299 57.2201 7.56598 56.9459C4.84879 54.7982 3.39963 52.0565 3.35434 48.7207C3.26377 43.6486 3.26377 38.6678 3.35434 33.9611C3.39963 30.8539 5.52809 28.7519 8.69815 28.7519C13.0004 28.7062 17.3932 28.7519 21.6501 28.7519C23.1445 28.7519 24.639 28.7519 26.1335 28.7519C26.2693 28.7519 26.4505 28.7519 26.5863 28.7976C26.6316 28.7976 26.7222 28.7976 26.7675 28.7976H26.858V28.889C27.0392 31.8592 24.5937 34.8294 21.6501 35.1949C20.1103 35.3777 18.5253 35.4234 16.9856 35.4234C16.3516 35.4234 15.6723 35.4234 15.0383 35.4691C13.2268 35.5148 11.9588 36.5658 11.6418 38.2108C11.5059 38.8962 11.5059 39.6274 11.5059 40.3128C11.5059 40.7698 11.5059 41.2724 11.4606 41.7751C11.3701 42.8717 11.7323 43.6486 12.6381 44.334C14.042 45.385 15.1288 46.8015 15.9893 48.7207C16.895 50.7313 16.9403 52.7876 16.9403 54.9353C16.9403 55.4837 17.1214 56.3976 18.2083 56.3976C18.6159 56.3976 18.9782 56.2605 19.2046 56.032C19.431 55.7578 19.5216 55.3923 19.4763 54.981C19.431 54.5698 19.3858 54.1128 19.3405 53.6558C19.2046 51.9651 19.0688 50.183 18.5706 48.5837C18.2083 47.3499 17.529 46.2075 16.895 45.1108C16.6233 44.6082 16.3063 44.1055 16.0346 43.6029L15.9893 43.5115L18.2536 41.7294L18.3442 41.8207C19.7933 43.3744 21.4237 44.1055 23.2351 44.1055C25.0919 44.1055 26.6769 43.3744 28.1713 41.7751L28.2619 41.6837L28.3525 41.7751C29.7564 43.3287 31.3867 44.1055 33.334 44.1055C35.1455 44.1055 36.7305 43.3744 38.2702 41.7751L38.3608 41.6837L38.4514 41.7751C40.8516 44.2883 43.614 44.7453 46.92 43.1459L47.1011 43.0545V43.2373C47.1011 43.877 47.1011 44.5168 47.1011 45.1565C47.1011 46.5731 47.1464 47.8525 47.0558 49.2234C46.9653 51.6909 46.0142 53.8843 44.3839 55.5751C43.2065 56.7631 41.8932 57.7684 40.4893 58.8194C39.9458 59.2307 39.2665 59.4592 38.6325 59.4592C36.5041 59.5049 34.3756 59.5049 32.2471 59.5049C31.1603 59.5049 30.0734 59.5049 28.9865 59.5049C27.8543 59.5049 27.175 59.9618 27.175 60.7843C27.175 61.1042 27.2656 61.3784 27.492 61.6068C27.8091 61.9267 28.3072 62.1095 28.9865 62.1095C30.8433 62.1095 32.7 62.1095 34.602 62.1095H38.9043H39.0401V63.1148C39.0401 63.8916 39.0401 64.6684 39.0401 65.4452C39.0401 67.2731 39.0401 66.2678 39.0401 68.0956C39.0401 68.781 39.2665 69.3294 39.6741 69.6492C39.9911 69.8777 40.3534 69.9234 40.7157 69.7863C41.395 69.5578 41.6667 69.0552 41.6667 68.0956C41.6667 67.4102 41.6667 66.9075 41.6214 66.2221C41.5762 65.2168 41.5762 64.5313 41.5762 64.1201C41.6667 62.1095 42.0743 60.7386 43.8405 59.5505C47.7804 56.8088 49.773 52.8333 49.7277 47.7155C49.6824 43.6029 49.6824 39.3989 49.7277 35.332C49.7277 33.4585 49.7277 31.6307 49.7277 29.8029ZM16.9403 25.1419V26.1015H9.37744V25.9645C9.42273 25.5075 9.42273 25.0505 9.42273 24.5936C9.46802 23.5883 9.46802 22.583 9.69445 21.6234C10.0115 20.0241 11.5965 18.9274 13.4532 19.0645C15.0835 19.1558 16.5327 20.4353 16.8044 22.0347C16.895 22.4459 16.895 22.8572 16.895 23.2684C16.9403 23.9082 16.9403 24.5022 16.9403 25.1419ZM14.359 41.181L14.2231 41.2267V41.0896C13.9967 39.7188 13.9514 38.8962 14.359 38.4393C14.7213 38.028 15.4911 37.9823 16.6233 38.0737H16.7139V38.1651C16.8497 39.6274 15.8534 40.8611 14.359 41.181ZM26.224 26.1472C25.0013 26.1929 23.8238 26.1929 22.6011 26.1929C22.103 26.1929 21.6501 26.1929 21.1519 26.1929H19.5216V26.0558C19.5216 25.6446 19.5216 25.2333 19.5216 24.8678C19.5216 24.0452 19.4763 23.2684 19.5669 22.5373C19.7481 20.5267 21.2878 19.1102 23.2804 19.1102C23.3257 19.1102 23.3257 19.1102 23.371 19.1102C25.3183 19.1558 26.8127 20.6181 26.9939 22.583C27.0845 23.5426 27.0845 24.5022 26.9939 25.4161C26.9486 25.6903 26.541 26.1015 26.224 26.1472ZM27.0845 35.8347C27.0392 36.1545 27.0392 36.4744 27.0392 36.7943C26.9939 37.5254 26.9939 38.2565 26.8127 38.9419C26.4505 40.4499 24.9107 41.5923 23.3257 41.5923C23.2351 41.5923 23.1445 41.5923 23.0087 41.5923C21.1972 41.4095 19.9292 40.1757 19.6122 38.2565L19.5669 38.1194H19.7028C22.2388 38.2565 24.5031 37.4797 26.858 35.789L27.0392 35.6519L27.0845 35.8347ZM37.0928 28.4777V30.4426H37.0475C37.0475 31.1737 37.0475 31.9049 37.0475 32.636C37.0475 34.4181 37.0928 36.2916 37.0022 38.0737C36.9569 39.8102 35.7342 41.0896 33.8774 41.4552C33.651 41.5009 33.4699 41.5009 33.2434 41.5009C31.8848 41.5009 30.5715 40.6784 29.9828 39.3532C29.8017 38.9876 29.5752 38.3936 29.5752 37.7996C29.5299 32.179 29.5299 27.4724 29.5752 22.7201C29.5752 20.8923 30.8885 19.3386 32.7 19.0645C34.5567 18.7903 36.3229 19.8413 36.8211 21.6234C37.0022 22.2174 37.0022 22.8572 37.0475 23.4512C37.0928 25.1419 37.0928 26.8327 37.0928 28.4777ZM47.1464 30.3512C47.1011 31.0823 47.1011 31.8592 47.1011 32.5903C47.1011 34.4181 47.1464 36.2916 47.0558 38.1194C47.0105 39.8558 45.6972 41.2267 43.7952 41.5009C43.614 41.5466 43.4782 41.5466 43.297 41.5466C41.8932 41.5466 40.4893 40.6327 39.9458 39.3075C39.7194 38.5764 39.6741 37.8909 39.6741 37.3883C39.6288 33.23 39.6288 28.7062 39.6741 23.177C39.6741 20.7095 41.1686 19.0645 43.3876 19.0645C43.3876 19.0645 43.3876 19.0645 43.4329 19.0645C45.6067 19.0645 47.1011 20.7095 47.1917 23.1313C47.1917 23.177 47.1917 23.2684 47.1917 23.3141V30.3512H47.1464Z" fill="#00828C"></path><path d="M25.228 0.832031C24.8204 0.832031 24.5487 0.923422 24.3223 1.1519C24.0958 1.38038 23.96 1.70024 23.96 2.1572V6.90951C23.96 7.82342 23.96 8.69163 23.96 9.60554C23.96 10.4738 24.3675 10.9307 25.1827 10.9307C26.179 10.9307 26.4054 10.1996 26.4054 9.60554C26.4054 8.0062 26.4054 6.36117 26.4054 4.76183V2.1572C26.496 1.28898 26.0431 0.832031 25.228 0.832031Z" fill="#00828C"></path><path d="M12.0943 7.00131C11.8226 6.72713 11.5508 6.63574 11.2791 6.63574C10.9621 6.63574 10.6904 6.77283 10.3734 7.047C9.82995 7.59535 9.82995 8.18938 10.3281 8.78342C10.6904 9.24038 11.1433 9.65164 11.5055 10.0172C11.6414 10.1543 11.7773 10.2914 11.9584 10.4285C12.2754 10.7483 12.5471 11.0225 12.8189 11.3424C13.5887 12.1649 14.4039 12.9874 15.2643 13.7185C15.6266 13.9927 16.3059 14.0841 16.7588 13.947C16.9852 13.9013 17.1664 13.5814 17.3475 13.3073C17.4381 13.1702 17.4834 13.0788 17.5739 12.9417C17.5287 12.8046 17.4381 12.7132 17.3928 12.5761C17.3022 12.3477 17.2116 12.1649 17.0758 12.0278C15.536 10.4742 13.8604 8.73773 12.0943 7.00131Z" fill="#00828C"></path><path d="M42.7077 4.62492C42.4359 4.35075 42.0737 4.16797 41.6208 4.16797C41.2132 4.21366 40.8962 4.39645 40.6698 4.71631L40.6245 4.76201C40.6245 4.76201 40.5792 4.76201 40.5792 4.8077C39.2206 6.04148 34.7372 10.5653 33.5145 11.8448C33.1522 12.256 32.9258 12.6673 32.9258 13.0329C32.9258 13.3527 33.0616 13.6269 33.3334 13.8554C33.9674 14.4494 34.6014 14.358 35.326 13.6726L36.1411 12.8501C37.9073 11.068 41.1679 7.7779 42.1642 6.72691C42.2095 6.68121 42.2095 6.63552 42.2548 6.58982C42.2548 6.54413 42.3001 6.54413 42.3001 6.49843L42.3454 6.45274C42.6171 6.26996 42.7982 5.99578 42.8435 5.63022V5.58452L42.8888 5.53883V5.49313V5.44744C42.9794 5.17327 42.8888 4.89909 42.7077 4.62492Z" fill="#00828C"></path></svg>