<svg xmlns="http://www.w3.org/2000/svg" width="49" height="48" viewBox="0 0 49 48" fill="none"><path d="M24.4176 27.8961C24.4341 27.8961 24.4672 27.8961 24.4838 27.8961C28.3078 27.8961 31.9 26.4381 34.5983 23.7651C37.2801 21.1407 38.7368 17.6578 38.7203 13.9804C38.6706 6.18832 32.4463 0.0485994 24.5335 0C24.5003 0 24.4672 0 24.4507 0C20.6929 0 17.1338 1.45798 14.4355 4.08235C11.7372 6.73912 10.2639 10.2221 10.2804 13.9156C10.297 17.8036 11.853 21.3999 14.6507 24.0243C17.2662 26.4867 20.8253 27.8961 24.4176 27.8961ZM24.4341 1.68478C24.4672 1.68478 24.5003 1.68478 24.5169 1.68478C31.3868 1.73338 36.9655 7.25751 36.949 13.9804C36.9655 17.2042 35.6247 20.3793 33.2905 22.6959C30.973 24.9801 27.8277 26.2113 24.4507 26.2113C21.0902 26.1951 17.9615 24.9477 15.6605 22.6635C13.3098 20.3469 11.9855 17.1556 12.002 13.9156C12.0186 10.6433 13.3429 7.56531 15.7101 5.23253C18.0774 2.94836 21.1564 1.68478 24.4341 1.68478Z" fill="#0C8890"></path><path d="M48.9006 34.3755C48.5861 33.1767 47.6094 32.3343 46.3844 32.2371C46.0864 32.2047 45.7719 32.2371 45.4905 32.2695C45.3912 32.2857 45.3084 32.2857 45.2091 32.3019C44.8283 31.2652 44.2821 30.601 43.5702 30.3256C42.8253 30.034 41.9314 30.1636 40.8885 30.6982C40.6402 30.8278 40.3753 30.9574 40.1104 31.087L39.8952 31.2004C39.531 30.1798 39.1006 29.5966 38.5047 29.3212C37.7432 28.981 36.7168 29.143 34.9621 29.872C34.7304 28.9162 34.2006 28.2034 33.4723 27.8794C32.7108 27.523 31.7672 27.604 30.8236 28.0738L29.7807 28.6084C27.5128 29.7748 25.1621 30.9736 22.8611 32.1724C22.2486 32.4963 21.7354 32.5611 21.1064 32.3505C18.8054 31.6378 16.4878 31.4596 14.2033 31.8322C13.9716 31.8646 13.7729 31.9132 13.6074 31.978C13.5412 31.9942 13.4584 32.0104 13.3591 32.0428C13.2101 32.0914 13.028 32.14 12.7797 32.2047L12.7466 32.2209C12.0347 32.6097 10.7104 33.1929 9.45232 33.7437C8.21076 34.2945 6.91955 34.8615 6.20772 35.2503C5.79387 35.4771 5.46279 35.5743 5.18137 35.5905C4.0557 35.6229 2.91347 35.6229 1.78779 35.6067H1.10907C0.728331 35.6067 0.446912 35.6877 0.248263 35.8821C0.0661687 36.0603 -0.0166016 36.3195 -0.0166016 36.6597C-0.0166016 39.6243 -0.0166016 42.5888 -0.0166016 45.5534C-0.0166016 46.2176 0.314479 46.5416 1.0263 46.574C1.62225 46.5902 2.23475 46.6064 2.8307 46.6388C5.06549 46.7036 7.38306 46.7846 9.65097 46.9466C12.7135 47.1572 15.8422 47.4488 18.855 47.7404L20.5104 47.9024C21.3878 47.9834 22.2817 48.0482 23.2087 48.0482C24.3344 48.0482 25.4766 47.951 26.652 47.6756C30.178 46.8494 33.3398 45.1322 36.4023 43.4798C36.9155 43.2044 37.4452 42.9128 37.9584 42.6374L37.975 42.6212C38.0577 42.5726 38.1405 42.524 38.2233 42.4592C41.0706 40.9688 45.6891 38.5065 47.6425 37.4211C48.7185 36.7893 49.2152 35.5905 48.9006 34.3755ZM1.92022 44.9054C1.85401 44.9054 1.78779 44.9054 1.72157 44.9054V37.3401C2.05266 37.3401 2.38374 37.3401 2.71482 37.3401C3.6584 37.3563 4.53576 37.3563 5.44624 37.3077C5.8932 37.2915 6.38982 37.1295 6.9361 36.8379C7.63137 36.4653 8.87293 35.9145 10.0648 35.3799C11.3726 34.7967 12.7135 34.1973 13.4584 33.7761C13.5081 33.7437 13.5743 33.7113 13.6239 33.6951C13.7398 33.6465 13.8391 33.5817 13.955 33.5169C14.0543 33.5169 14.1371 33.5169 14.2364 33.5169C14.3192 33.5169 14.3854 33.5169 14.4682 33.5169C14.9483 33.5331 15.4614 33.5169 15.9415 33.5007C17.1665 33.4683 18.4412 33.4359 19.5668 33.7599C21.8016 34.3755 23.9702 34.3917 26.2712 34.3917C26.95 34.3917 27.6452 34.3917 28.3239 34.3917C29.2344 34.3917 30.1283 34.3917 31.0388 34.3917C31.105 34.3917 31.1712 34.3917 31.2375 34.3917C31.4692 34.3917 31.7506 34.3755 31.8831 34.4727C32.3466 34.8291 32.628 35.1693 32.6114 35.3961C32.6114 35.7363 32.2473 36.1575 31.9162 36.4491C31.7837 36.5625 31.5354 36.5787 31.2871 36.5949C31.1878 36.5949 31.0885 36.6111 31.0057 36.6111C30.0621 36.7245 29.1351 36.8379 28.1915 36.9513C25.4932 37.2753 22.6956 37.6155 19.9476 37.9881C19.6827 38.0205 19.451 38.2635 19.2523 38.4903C19.1695 38.5875 19.0702 38.6847 18.9875 38.7495L18.855 38.8629L18.9875 38.9763C19.0702 39.0411 19.153 39.1383 19.2523 39.2355C19.4675 39.4623 19.6827 39.6891 19.9476 39.7215L20.2125 39.7539C22.1493 40.0293 24.1523 40.3208 26.1388 40.4342C30.8236 40.7258 35.2932 39.7053 39.4152 37.4211C41.2858 36.3843 43.2557 35.3151 45.4574 34.1325C45.8381 33.9381 46.2023 33.8733 46.5168 33.9705C46.7983 34.0515 47.03 34.2459 47.179 34.5375C47.5929 35.2989 47.0797 35.8173 46.5665 36.1089C46.1361 36.3519 45.6726 36.5949 45.2422 36.8379C45.0766 36.9189 44.9277 36.9999 44.7621 37.0971C44.2489 37.3725 43.3385 37.8585 42.279 38.4255C40.3091 39.4785 37.8425 40.7906 36.5844 41.471C35.9388 41.795 35.2932 42.1352 34.6476 42.4592C33.2239 43.2044 31.7506 43.9658 30.2773 44.6624C27.6287 45.9098 25.3773 46.4444 23.1922 46.3472C21.2388 46.2662 19.2358 46.0718 17.3155 45.9098C16.0574 45.7964 14.7331 45.683 13.4418 45.5858C10.7766 45.3914 8.06178 45.2456 5.44624 45.0836C4.51921 45.035 3.59218 44.9702 2.66516 44.9216C2.53272 44.9216 2.41684 44.9054 2.28441 44.9054C2.13543 44.8892 2.01955 44.9054 1.92022 44.9054ZM31.9658 29.4184C32.4459 29.1754 32.8929 29.3212 33.1577 29.8234C33.4391 30.3418 33.3067 30.7792 32.777 31.087L32.6942 31.1356C31.0057 32.1237 29.4 33.0633 27.3473 32.7231C27.0989 32.6907 26.8506 32.6745 26.5858 32.6745C26.3706 32.6745 26.1554 32.6907 25.9567 32.6907C25.8243 32.6907 25.6753 32.7069 25.5429 32.7069C26.0726 32.4315 26.6189 32.1562 27.1486 31.8808C28.7047 31.0708 30.3435 30.2284 31.9658 29.4184ZM38.1736 31.7674C38.1239 31.9942 37.9418 32.2047 37.6604 32.3505C36.8162 32.8041 35.9554 33.2415 35.1442 33.6627C34.8628 33.8085 34.5814 33.9543 34.3165 34.1001L33.1908 32.7879C33.4226 32.6583 33.6543 32.5287 33.9027 32.3991C34.8462 31.897 35.9057 31.3138 36.9983 30.8116C37.2135 30.7144 37.8425 30.9574 38.0412 31.2004C38.1736 31.3948 38.2233 31.5892 38.1736 31.7674ZM42.7591 33.6465C42.0473 34.0191 41.3189 34.4241 40.6236 34.8129C38.3723 36.0603 36.0547 37.3563 33.4723 38.0205C31.4527 38.5389 29.582 38.7819 27.7777 38.7333C27.8273 38.7333 27.8604 38.7171 27.9101 38.7171C29.0854 38.5551 30.2939 38.3931 31.4858 38.2797C32.8763 38.1501 33.7537 37.5345 34.2668 36.3519C34.3662 36.1413 34.5814 35.8983 34.8131 35.7849C37.0479 34.6185 39.2662 33.4683 41.9148 32.1238C42.3452 31.9132 42.6929 31.8322 42.9412 31.9132C43.1233 31.978 43.2888 32.1238 43.4047 32.3667C43.653 32.9013 43.4709 33.2577 42.7591 33.6465Z" fill="#0C8890"></path><path d="M22.9442 19.0181C23.4739 19.3421 23.7056 19.5365 23.6394 20.0873C23.5898 20.4923 23.6725 20.8163 23.8546 21.0269C24.0036 21.1889 24.2188 21.2699 24.5002 21.2699C24.5002 21.2699 24.5002 21.2699 24.5168 21.2699C24.7817 21.2699 24.9803 21.1889 25.1293 21.0269C25.361 20.7839 25.3776 20.4113 25.361 20.1359C25.3114 19.6175 25.4769 19.4069 26.0232 19.1963C27.2813 18.7427 28.1421 17.3009 28.0097 15.8268C27.8938 14.5632 26.9337 13.5426 25.5431 13.2186C25.2948 13.17 25.0465 13.1214 24.7982 13.1052C24.6161 13.089 24.434 13.0566 24.2519 13.0242C23.5235 12.8784 23.1594 12.441 23.1594 11.6634C23.1594 11.0802 23.4242 10.5618 23.8546 10.2702C24.2188 10.0272 24.6492 9.99484 25.0631 10.173C25.3114 10.2864 25.51 10.5456 25.7252 10.821C25.8742 11.0154 26.0232 11.2098 26.2053 11.3718C26.404 11.55 26.6523 11.6472 26.884 11.7444C26.9833 11.793 27.0827 11.8254 27.182 11.874L27.331 11.955L27.3806 11.8092C27.4137 11.712 27.48 11.5986 27.5296 11.4852C27.6786 11.1936 27.811 10.9182 27.6952 10.7076C27.3475 10.0758 26.9337 9.28205 26.2881 8.87705L26.2384 8.84465C25.6094 8.45586 25.2286 8.21286 25.3114 7.46767C25.3445 7.15988 24.8148 6.73868 24.4837 6.67388C24.1195 6.59288 23.6891 7.37047 23.6891 7.38667C23.6063 7.53247 23.6229 7.69447 23.6394 7.85647C23.6394 7.96987 23.656 8.08326 23.6229 8.16426C23.5401 8.40726 23.4077 8.61786 23.2752 8.69886C21.8185 9.52505 21.2391 10.7076 21.504 12.3114C21.7192 13.656 22.6462 14.4498 24.3181 14.7576C24.434 14.7738 24.5499 14.79 24.6658 14.8062C24.7817 14.8224 24.881 14.8386 24.9969 14.8548C25.6259 14.9682 26.3543 15.2922 26.2881 16.2318C26.2384 17.139 25.6259 17.7383 24.732 17.7707C23.6891 17.8031 23.1097 17.1714 22.6296 16.4748C22.4806 16.248 22.2323 15.9726 21.9012 15.9402C21.7688 15.924 21.5536 15.9564 21.3384 16.167C21.1067 16.41 20.9908 17.0742 21.1894 17.3495C21.6364 17.9003 22.2323 18.5807 22.9442 19.0181Z" fill="#0C8890"></path></svg>