<svg xmlns="http://www.w3.org/2000/svg" width="69" height="68" viewBox="0 0 69 68" fill="none"><g clip-path="url(#clip0_2793_8842)"><path d="M60.0176 54.4264L60.2158 54.2287C62.1973 52.252 64.2228 50.2313 66.2483 48.2326C68.1417 46.3657 69.0444 44.1913 69.0224 41.5776C69.0004 39.0737 69.0004 36.5698 69.0004 34.1318C69.0004 33.2972 69.0004 32.4626 69.0004 31.628H68.9564V30.9032C68.9564 29.761 68.9564 28.6189 68.9564 27.4768C68.9564 24.8851 68.9564 22.2274 68.9343 19.6138C68.9123 16.5827 66.9088 14.1667 64.2008 13.8592C62.4615 13.6616 60.8543 14.1228 59.6654 15.1551C58.4985 16.1874 57.816 17.7029 57.794 19.438C57.7719 21.5026 57.7719 23.6112 57.7719 25.6538V25.6758C57.7719 26.5982 57.7719 27.4988 57.7719 28.4212V28.5311C57.7719 28.8605 57.7719 29.3437 57.4197 29.7171C57.1775 29.9587 56.8252 30.0905 56.3849 30.0905C54.9978 30.0905 53.7869 30.6835 52.554 31.9355C52.0256 32.4626 51.4972 32.9897 50.9908 33.4949L50.9028 33.5827C50.0221 34.4613 49.1194 35.3618 48.2387 36.2623C47.4462 37.097 46.6536 37.3825 45.5968 37.2068C42.6245 36.7016 40.2908 37.5143 38.4634 39.6667C37.935 40.2817 37.3625 40.8528 36.8121 41.4019C36.3938 41.8192 35.9535 42.2585 35.5572 42.6977C35.337 42.9393 35.0068 43.2468 34.5444 43.2468C34.0601 43.2468 33.7518 42.9393 33.4876 42.6758C33.1354 42.2804 32.7391 41.907 32.3428 41.5337C31.7924 40.9846 31.2199 40.4355 30.6915 39.8205C28.7981 37.5582 26.3763 36.7236 23.2719 37.2507C22.3252 37.4045 21.6207 37.1629 20.8941 36.4161C19.7493 35.23 18.5604 34.0659 17.4155 32.9238C17.0192 32.5285 16.6229 32.1551 16.2486 31.7597C15.1698 30.6835 14.113 30.1564 12.9902 30.1344C11.1628 30.1125 11.1848 28.7946 11.1848 28.1577C11.2289 25.1486 11.2509 22.0298 11.1628 18.9768C11.0747 16.3411 9.00518 14.1448 6.36319 13.8592C4.64589 13.6835 3.08272 14.1448 1.93785 15.1771C0.726941 16.2533 0.0664429 17.8566 0.0444263 19.6796C0.0224097 23.4355 0.0224097 27.1913 0.0224097 30.8153C0.0224097 34.3295 0.0224097 37.9755 0.000393116 41.6215C-0.0216235 44.2132 0.881057 46.3657 2.73045 48.1887C3.96338 49.3967 5.19631 50.6486 6.3852 51.8347C8.71896 54.1848 11.1188 56.6228 13.5846 58.907C15.368 60.5543 16.0505 62.2675 15.9184 64.5957C15.8523 65.7817 16.0505 66.6383 16.5569 67.1654C17.0853 67.7145 17.9659 68.0001 19.2869 68.0001H31.9024H37.1644C38.4193 68.0001 39.6963 68.0001 40.9513 68.0001H41.7218C44.5179 68.0001 47.4021 68.0001 50.2423 68.0001C52.0916 68.0001 53.1484 66.9238 53.1705 65.0789C53.1705 64.8812 53.1705 64.6835 53.1705 64.4858C53.1925 63.8709 53.1925 63.2339 53.1484 62.6189C53.0604 61.4988 53.6108 60.8179 54.0952 60.3566C56.1207 58.314 58.1903 56.2494 60.0176 54.4264ZM32.7831 64.8373C32.3868 65.2326 31.8364 65.2765 31.3961 65.2765H31.308C28.0495 65.2326 24.4388 65.2326 20.3217 65.2765C19.8594 65.2765 19.331 65.2546 18.9567 64.8592C18.6705 64.5737 18.5384 64.1564 18.5384 63.5634C18.5384 62.9703 18.5384 62.4871 18.5604 62.0698C18.6044 60.137 18.6044 60.137 17.1954 58.7753C16.8651 58.4678 16.4688 58.0724 16.0285 57.6112C12.704 54.2727 8.80703 50.3411 4.91009 46.5414C3.36893 45.0259 2.68642 43.3786 2.73045 41.3579C2.7965 38.898 2.77448 36.3722 2.77448 33.9561C2.77448 32.9238 2.77448 31.8915 2.77448 30.8592V30.1344H2.7965V27.345C2.7965 24.8192 2.7965 22.2933 2.7965 19.7675C2.7965 18.7132 3.12675 17.8347 3.7212 17.2417C4.2496 16.7365 4.93211 16.4729 5.70269 16.4729C7.39797 16.4949 8.56485 17.8127 8.56485 19.7236C8.56485 21.5466 8.56485 23.3696 8.56485 25.2145V25.3463C8.56485 27.1034 8.56485 28.8605 8.56485 30.5957C8.56485 31.1667 8.41073 31.6719 8.03645 32.199C6.3852 34.5272 6.60537 37.2507 8.60888 39.2933C10.8326 41.5556 13.1003 43.8179 15.3239 46.0143L15.9844 46.6732C16.4248 47.1125 16.8651 47.3321 17.2614 47.3321C17.5917 47.3321 17.8779 47.1784 18.1641 46.8928C18.3842 46.6512 19.0668 45.9484 17.9219 44.7843C15.5881 42.4342 13.1663 39.9962 10.7005 37.5802C9.64366 36.5259 9.40148 35.3618 9.99593 34.1758C10.3702 33.429 11.0307 32.9238 11.8453 32.792C12.726 32.6383 13.6727 32.9678 14.3992 33.6706C16.3807 35.5815 17.8558 37.075 19.2429 38.5026C20.4098 39.7107 21.5987 40.1719 22.9197 39.9303C25.6057 39.4251 27.7853 40.2597 29.7448 42.5659C29.987 42.8515 30.2512 43.137 30.5154 43.4225C31.7924 44.8282 33.0913 46.2559 33.2234 48.4962C33.2675 49.3528 33.2675 50.1874 33.2675 51.022V51.615C33.2675 52.8011 33.2675 53.9871 33.2675 55.1732C33.2675 57.8967 33.2675 60.6861 33.2895 63.4535C33.2234 64.0905 33.0913 64.5298 32.7831 64.8373ZM51.7834 58.7753C50.7486 59.7856 50.3523 60.73 50.4184 62.0918C50.4844 63.3437 50.5065 64.1784 49.9781 64.7055C49.4717 65.2326 48.7231 65.2326 47.3581 65.2326C46.4994 65.2326 45.6188 65.2326 44.7601 65.2326H44.4739C42.1842 65.2326 39.8064 65.2326 37.4726 65.2546H37.4286C37.0763 65.2546 36.57 65.2106 36.1957 64.8592C35.9095 64.5737 35.7994 64.2003 35.7994 63.6293C35.8214 61.0595 35.8214 58.3799 35.8214 56.0298C35.8214 53.7455 35.8214 51.3734 35.8434 49.0453C35.8434 47.0905 36.57 45.3993 37.957 44.0156L38.8377 43.137C39.5422 42.4561 40.3128 41.6654 41.0613 40.8967C41.942 39.9962 42.9548 39.6448 44.0776 39.8424C47.0278 40.3915 49.3616 39.513 51.211 37.1409C51.9375 36.1964 52.8182 35.3838 53.6548 34.615C53.9631 34.3295 54.2933 34.022 54.6015 33.7365C55.9005 32.4626 57.4857 32.3967 58.6086 33.5388C59.7534 34.6809 59.6433 36.2623 58.3664 37.5362C56.3409 39.5789 54.2933 41.6215 52.3118 43.5763L51.1449 44.7404C50.5285 45.3554 50.3744 45.8386 50.6386 46.4316C50.8147 46.8709 51.189 47.1784 51.6073 47.2662C52.0036 47.3541 52.4219 47.2223 52.7521 46.9148C55.4822 44.2572 58.3003 41.5336 60.9203 38.7003C62.4615 37.0311 62.5495 34.3734 61.1405 32.3747C60.6781 31.7158 60.48 31.0569 60.48 30.2442C60.48 28.3773 60.48 26.4884 60.48 24.6654C60.48 23.0181 60.48 21.3709 60.48 19.7016C60.48 17.8566 61.5588 16.5827 63.188 16.4729C64.0026 16.429 64.7512 16.6706 65.3016 17.1977C65.9181 17.7688 66.2483 18.6034 66.2483 19.5259C66.2483 22.2714 66.2483 25.0169 66.2483 27.6745V30.6396L66.2703 30.9251C66.2703 31.9135 66.2703 32.9019 66.2703 33.8902V34.044C66.2703 36.5259 66.2483 39.0737 66.2924 41.5776C66.3364 43.4665 65.6759 44.982 64.2668 46.3877C62.6376 47.991 61.0084 49.6383 59.4232 51.2197C56.9353 53.7236 54.3594 56.2933 51.7834 58.7753Z" fill="#00828C"></path><path d="M20.1017 24.5775C19.9035 25.3682 19.6613 26.3566 19.4191 27.2791C19.0889 28.509 19.265 29.6072 19.9255 30.4419C20.6301 31.3204 21.841 31.8475 23.1179 31.8256C25.7819 31.7597 28.468 31.7817 31.0879 31.7817C31.5503 31.7817 31.9686 31.7817 32.4089 31.7817H32.563C33.2235 31.7817 33.884 31.7817 34.5445 31.7817C35.7114 31.7817 36.9003 31.7817 38.0672 31.7817C40.423 31.7817 43.3732 31.7817 46.1473 31.7817C47.4022 31.7817 48.437 31.3424 49.0755 30.5517C49.692 29.7829 49.8901 28.7287 49.6699 27.5866C49.4278 26.4664 49.1415 25.3243 48.8553 24.2261C48.6131 23.2597 48.3489 22.2713 48.1288 21.2829C47.3362 17.8346 45.4868 15.5504 42.4265 14.2765C42.0742 14.1227 41.6559 13.9031 41.4798 13.3979C41.3036 12.9147 41.5018 12.4755 41.6999 12.168C42.2063 11.3114 42.5145 10.3889 42.6466 9.44444C43.131 5.77649 41.4137 2.48191 38.1553 0.856589C37.0104 0.28553 35.7555 0 34.5005 0C32.3429 0 30.2953 0.834625 28.7542 2.35013C26.1342 4.9199 25.5618 8.60982 27.257 11.9922C27.4772 12.4315 27.6533 12.9147 27.4772 13.4419C27.2791 13.969 26.8167 14.2106 26.3984 14.4083C23.7564 15.5284 22.0391 17.4832 21.2465 20.2067C20.8282 21.6344 20.4539 23.1279 20.1017 24.5775ZM34.5225 2.81137C37.5828 2.81137 39.9826 5.1615 39.9826 8.17054C40.0047 11.1357 37.5608 13.5517 34.5666 13.5956H34.5225C33.0474 13.5956 31.6604 13.0245 30.6256 11.9922C29.5908 10.9599 29.0404 9.59819 29.0624 8.14858C29.0624 5.1615 31.4842 2.81137 34.5225 2.81137ZM22.3914 26.7959C22.7877 25.478 23.1179 24.1163 23.4262 22.7765C23.5362 22.3372 23.6243 21.8979 23.7344 21.4806C24.483 18.3618 26.7947 16.4729 29.899 16.407C32.9593 16.3411 36.0637 16.3411 39.124 16.407C42.2283 16.4729 44.5181 18.3837 45.2886 21.4806C45.3987 21.9199 45.5088 22.3592 45.5969 22.7985C45.9051 24.1163 46.2354 25.478 46.6317 26.7959C46.7197 27.0814 46.9619 27.8501 46.5216 28.4212C46.1473 28.9044 45.5749 28.9703 45.0465 28.9703H44.9144C42.4705 28.9483 39.9606 28.9483 37.5388 28.9483H37.2966C35.4472 28.9483 33.5758 28.9483 31.7264 28.9483H31.6824C29.3266 28.9483 26.6626 28.9483 24.1307 28.9703H23.9986C23.6904 28.9703 22.9418 28.9703 22.5235 28.4212C22.0611 27.8501 22.3033 27.1034 22.3914 26.7959Z" fill="#00828C"></path></g><defs><clipPath id="clip0_2793_8842"><rect width="69" height="68" fill="white"></rect></clipPath></defs></svg>