<svg width="100" height="28" viewBox="0 0 100 28" fill="none" xmlns="http://www.w3.org/2000/svg">
<path d="M14.1466 0.0170898C6.33365 0.0170898 0 6.27742 0 14C0 18.2642 1.93178 22.082 4.97693 24.6468V22.8634V15.4985V13.4966L4.98249 13.4981C5.1437 8.63203 9.18459 4.73613 14.1466 4.73613C19.2109 4.73613 23.3163 8.79407 23.3163 13.7999C23.3163 18.7268 19.3391 22.7355 14.3852 22.8604L14.3853 22.8634H10.4439C9.85164 24.3647 8.63861 25.5582 7.11671 26.1367C9.18762 27.3111 11.5878 27.9829 14.1466 27.9829C21.9597 27.9829 28.2933 21.7226 28.2933 14C28.2933 6.27742 21.9597 0.0170898 14.1466 0.0170898Z" fill="#1797CF"/>
<path d="M13.9038 17.8999C15.9649 17.8999 17.6357 16.2485 17.6357 14.2112C17.6357 12.1739 15.9649 10.5225 13.9038 10.5225C11.8427 10.5225 10.1719 12.1739 10.1719 14.2112C10.1719 16.2485 11.8427 17.8999 13.9038 17.8999Z" fill="white"/>
<path d="M31.3281 5.4827C31.3281 5.31999 31.4104 5.23828 31.5754 5.23828H39.1103C40.0332 5.23828 40.8163 5.38114 41.4591 5.66597C42.102 5.95115 42.6211 6.34639 43.0169 6.85135C43.4125 7.35649 43.7006 7.95946 43.8822 8.65974C44.0634 9.36036 44.1543 10.1259 44.1543 10.957C44.1543 11.8207 44.0635 12.6027 43.8822 13.303C43.7006 14.0038 43.4125 14.6065 43.0169 15.1114C42.6213 15.6166 42.102 16.0034 41.4591 16.2723C40.8163 16.5411 40.0332 16.6755 39.1103 16.6755H34.8081C34.6431 16.6755 34.561 16.7572 34.561 16.9198V22.5163C34.561 22.6793 34.4784 22.7607 34.3137 22.7607H31.5754C31.4104 22.7607 31.3281 22.6793 31.3281 22.5163V5.7514V5.4827ZM34.8081 8.41537C34.6431 8.41537 34.561 8.49704 34.561 8.65974V13.2542C34.561 13.4172 34.6431 13.4986 34.8081 13.4986H39.5306C39.8274 13.4986 40.0621 13.3971 40.2353 13.1931C40.4084 12.9896 40.5358 12.7494 40.6185 12.4722C40.7008 12.1952 40.7544 11.9144 40.7792 11.629C40.8039 11.3442 40.8163 11.12 40.8163 10.957C40.8163 10.7943 40.8039 10.57 40.7792 10.2849C40.7544 10 40.7008 9.71915 40.6185 9.44171C40.5358 9.16485 40.4084 8.92476 40.2353 8.72094C40.0622 8.51744 39.8274 8.41537 39.5306 8.41537H34.8081Z" fill="white"/>
<path d="M45.459 10.0283H52.4315C53.0577 10.0283 53.5892 10.1626 54.0262 10.4314C54.4628 10.7002 54.8175 11.0465 55.0896 11.47C55.3615 11.894 55.5592 12.3663 55.6828 12.8873C55.8065 13.409 55.8683 13.9303 55.8683 14.4515V22.5162C55.8683 22.6792 55.7856 22.7606 55.621 22.7606H46.9921C46.4976 22.7606 46.0936 22.6101 45.7806 22.3084C45.4674 22.0071 45.2242 21.6528 45.0514 21.2453C44.8783 20.8382 44.7586 20.4308 44.6928 20.0233C44.6268 19.6163 44.5938 19.3067 44.5938 19.0947C44.5938 18.7037 44.6433 18.2721 44.7423 17.7994C44.841 17.3271 44.9976 16.8915 45.212 16.492C45.426 16.0929 45.7066 15.755 46.0527 15.4778C46.3989 15.2008 46.8191 15.0621 47.3137 15.0621H51.2634C51.6919 15.0621 52.0338 14.9607 52.2895 14.7566C52.5451 14.5533 52.6728 14.3129 52.6728 14.0357C52.6728 13.8078 52.6237 13.5722 52.4082 13.3899C52.2484 13.2546 52.046 13.1866 51.7828 13.1866H45.4593C45.2943 13.1866 45.212 13.1052 45.212 12.9421V10.2724C45.2119 10.11 45.2942 10.0283 45.459 10.0283ZM52.4181 19.8276C52.5703 19.8276 52.6467 19.7526 52.6467 19.6018V18.2461C52.6467 18.0956 52.5703 18.0201 52.4181 18.0201H48.349C48.1355 18.0201 47.9605 18.107 47.8233 18.28C47.686 18.4533 47.6174 18.6452 47.6174 18.856C47.6174 19.1123 47.6934 19.3382 47.846 19.5339C47.9983 19.7297 48.2119 19.8276 48.4862 19.8276H52.4181Z" fill="white"/>
<path d="M63.7513 10.0287C63.9159 10.0287 63.9986 10.1104 63.9986 10.2731V12.7657C63.9986 12.9287 63.9159 13.01 63.7513 13.01H61.3777C61.2293 13.01 61.0974 13.0508 60.9821 13.1322C60.8666 13.2139 60.7635 13.3075 60.673 13.4132C60.5822 13.5194 60.5123 13.6333 60.4628 13.7555C60.4135 13.8776 60.3888 13.9877 60.3888 14.0854V22.5165C60.3888 22.6796 60.3061 22.761 60.1415 22.761H57.3723C57.2073 22.761 57.125 22.6796 57.125 22.5165V13.2298C57.125 12.8062 57.2114 12.3989 57.3847 12.0078C57.5577 11.6168 57.7926 11.2747 58.0893 10.9814C58.386 10.6882 58.7322 10.456 59.1278 10.2848C59.5234 10.1138 59.9437 10.0283 60.3888 10.0283H63.7513V10.0287Z" fill="white"/>
<path d="M65.5051 5.23828H68.23C68.3946 5.23828 68.4772 5.31999 68.4772 5.4827V22.5163C68.4772 22.6793 68.3946 22.7607 68.23 22.7607H65.5051C65.3401 22.7607 65.2578 22.6793 65.2578 22.5163V5.4827C65.2578 5.31999 65.3401 5.23828 65.5051 5.23828ZM73.4223 10.2237C73.5213 10.0936 73.6609 10.0283 73.8426 10.0283H77.0568C77.1391 10.0283 77.1844 10.0527 77.193 10.1015C77.201 10.1503 77.1722 10.2078 77.1065 10.2726L72.4831 15.478C72.4497 15.5108 72.4126 15.5512 72.3717 15.6001C72.3304 15.6489 72.3098 15.6898 72.3098 15.7223C72.3098 15.7551 72.3303 15.8039 72.3717 15.8688C72.4127 15.9341 72.4499 15.983 72.4831 16.0154L77.3786 22.5895C77.4608 22.7036 77.4359 22.7605 77.3043 22.7605H74.1148C73.9499 22.7605 73.8096 22.6871 73.6945 22.5406L69.3925 16.7731C69.2768 16.6265 69.1781 16.4596 69.0958 16.272C69.0131 16.0849 68.9722 15.9016 68.9722 15.7223C68.9722 15.592 69.0132 15.4332 69.0958 15.2457C69.1781 15.0585 69.2851 14.8834 69.4172 14.7203L73.4223 10.2237Z" fill="white"/>
<path d="M78.6848 5.23828H81.4118C81.5764 5.23828 81.6591 5.31999 81.6591 5.4827V22.5163C81.6591 22.6793 81.5764 22.7607 81.4118 22.7607H78.6848C78.5198 22.7607 78.4375 22.6793 78.4375 22.5163V5.4827C78.4375 5.31999 78.5198 5.23828 78.6848 5.23828Z" fill="white"/>
<path d="M83.1608 5.23828H85.8878C86.0526 5.23828 86.1354 5.31999 86.1354 5.4827V7.97542C86.1354 8.13848 86.0526 8.21966 85.8878 8.21966H83.1608C82.996 8.21966 82.9141 8.13848 82.9141 7.97542V5.4827C82.9141 5.31999 82.996 5.23828 83.1608 5.23828ZM82.9141 10.2726C82.9141 10.1099 82.996 10.0283 83.1608 10.0283H85.8878C86.0526 10.0283 86.1354 10.1099 86.1354 10.2726V22.5163C86.1354 22.6793 86.0526 22.7607 85.8878 22.7607H83.1608C82.996 22.7607 82.9141 22.6793 82.9141 22.5163V10.2726Z" fill="white"/>
<path d="M100 17.8243C100 18.8019 99.9136 19.6082 99.7406 20.2436C99.5677 20.879 99.3037 21.3843 98.9496 21.7588C98.5947 22.1339 98.1464 22.3942 97.6021 22.5408C97.0578 22.6874 96.4062 22.7607 95.6488 22.7607H91.248C90.489 22.7607 89.8628 22.6262 89.3685 22.3575C88.8742 22.0888 88.4783 21.7386 88.1816 21.3067C87.8849 20.8751 87.6783 20.3864 87.5636 19.8404C87.448 19.2948 87.3906 18.7369 87.3906 18.1665V13.8652C87.3906 13.2785 87.4931 12.7495 87.6996 12.2766C87.9054 11.8042 88.1816 11.4012 88.5283 11.0669C88.8742 10.7332 89.2824 10.4768 89.7521 10.2972C90.2218 10.118 90.7201 10.0283 91.248 10.0283H96.2423C96.6873 10.0283 97.1365 10.11 97.5898 10.2727C98.0431 10.4358 98.4464 10.6757 98.8013 10.9936C99.1554 11.3111 99.4439 11.6942 99.6669 12.142C99.889 12.5903 100 13.1074 100 13.694V17.8243ZM96.7046 14.3986C96.7046 14.2181 96.648 14.0566 96.5332 13.9136C96.4193 13.7709 96.271 13.6507 96.089 13.5528C95.9062 13.4551 95.7005 13.3836 95.4726 13.3385C95.2439 13.2932 95.016 13.2707 94.7882 13.2707H92.3005C92.1029 13.2707 91.9054 13.2897 91.7078 13.3271C91.5095 13.3649 91.3308 13.4286 91.1718 13.5187C91.0119 13.6089 90.8783 13.7296 90.7718 13.8795C90.6652 14.0301 90.6119 14.2104 90.6119 14.4208V18.0295C90.6119 18.3305 90.6767 18.5786 90.8062 18.7737C90.9349 18.9694 91.0988 19.1235 91.2964 19.2361C91.4947 19.3488 91.7078 19.4243 91.9357 19.4618C92.1636 19.4995 92.3767 19.5181 92.5742 19.5181H94.6742C95.2218 19.5181 95.6964 19.3905 96.0996 19.1346C96.5029 18.8792 96.7046 18.5561 96.7046 18.1647V16.3604V14.3986Z" fill="white"/>
</svg>
